<svg width="82" height="64" viewBox="0 0 82 64" fill="none" xmlns="http://www.w3.org/2000/svg">
    <path fill-rule="evenodd" clip-rule="evenodd"
        d="M78.5723 43.1613C78.5207 44.8085 78.5565 46.9467 77.6551 48.395C77.5096 48.6287 77.0167 49.3568 76.9617 48.7163C76.9077 48.0875 77.0624 47.4648 76.9091 46.8287C76.8272 46.4883 76.5514 45.7448 76.08 46.0523C75.8398 46.209 75.7765 46.5959 75.6825 46.8401C75.5435 47.2014 75.3877 47.557 75.2413 47.9155C74.7301 49.1672 74.2004 50.6609 73.0639 51.4892C73.2127 50.4099 73.618 49.2575 73.3455 48.1664C73.2527 47.7946 72.9713 47.1157 72.4869 47.3335C72.0148 47.5458 71.7089 48.493 71.4861 48.9147C70.8105 50.1935 70.1197 51.4482 69.3592 52.6792C68.9767 53.2984 68.5636 53.8643 68.063 54.3939C67.7501 54.7253 67.3599 55.2852 66.8666 55.3345C66.8666 54.3904 67.1773 53.4782 67.4609 52.5892C67.766 51.6331 68.0442 50.669 68.3436 49.7112C68.6034 48.8803 68.8166 48.0558 68.9895 47.2038C69.0612 46.8515 69.1179 46.4866 69.4182 46.259C69.6882 46.0545 70.1147 45.9572 70.4157 45.8069C71.2062 45.4119 72.0191 44.9858 72.7535 44.495C73.055 44.2934 73.3145 44.0331 73.6302 43.8523C73.99 43.6463 74.3258 43.473 74.6586 43.222C76.0946 42.1388 77.3891 40.8065 78.2614 39.2204C78.403 39.8576 78.5905 40.4802 78.6113 41.1371C78.6324 41.8106 78.5935 42.4882 78.5723 43.1613ZM66.754 50.7325C66.5243 50.3446 66.1744 50.5035 65.8661 50.6905C65.3877 50.9806 64.908 51.2687 64.4271 51.5552C63.4486 52.1382 62.4882 52.7517 61.5321 53.3707C59.586 54.6304 57.572 55.6614 55.5203 56.7277C53.5372 57.7582 51.6326 58.9845 49.7746 60.224C49.3281 60.5219 48.8847 60.8268 48.4559 61.1499C48.0753 61.4367 47.7709 61.8394 47.3703 62.0947C46.9531 62.3605 46.6663 62.1448 46.2672 61.9488C45.7682 61.7036 45.2481 61.4981 44.7379 61.277C42.6793 60.3845 40.6148 59.4581 38.6122 58.445C36.6217 57.4383 34.7357 56.2781 32.8285 55.126C31.9201 54.5773 31.0273 53.9938 30.1314 53.4249C29.1779 52.8196 28.1908 52.3662 27.1906 51.8515C26.7481 51.6237 26.3561 51.3145 25.9016 51.1074C25.4238 50.8899 24.919 50.7338 24.4911 50.4198C24.2993 50.279 24.1375 50.1108 23.9183 50.0112C23.7382 49.9295 23.5339 49.9158 23.3562 49.829C22.9946 49.6524 22.8911 49.294 22.8211 48.9213C22.3707 46.5286 22.1313 44.0696 21.8703 41.6503C21.7236 40.2898 21.5599 38.9346 21.3571 37.5813C21.2657 36.9712 21.4496 36.4985 21.5461 35.9049C21.6588 35.2117 21.7033 34.504 21.7788 33.806C22.1351 34.4661 22.4432 35.1588 22.8966 35.7612C23.2307 36.2051 23.8016 36.8346 24.4169 36.8198C25.3733 36.7967 25.3296 35.1563 25.3681 34.5051C25.8038 34.894 25.9359 35.5274 26.2975 35.9791C26.6276 36.3914 27.0769 36.903 27.5839 37.0877C28.6515 37.4765 28.5487 35.495 28.49 34.933C28.4605 34.6511 28.3014 34.2052 28.679 34.3337C29.0267 34.452 29.3651 34.9427 29.6574 35.1678C30.1627 35.5569 30.7169 35.8803 31.2352 36.2517C31.8783 36.7126 32.5722 37.0457 33.2278 37.4749C33.6379 37.7434 34.0852 37.8037 34.5323 38.0011C35.1873 38.2905 35.7659 38.7217 36.3893 39.0685C37.6238 39.7551 38.9933 40.3707 40.3437 40.7846C40.7806 40.9185 41.3628 41.2961 41.6943 40.9081C41.8984 40.6694 42.0325 40.3048 42.2057 40.0371C42.4248 39.6983 42.6576 39.3685 42.8992 39.0453C43.7583 37.8969 44.7117 36.8125 45.7704 35.8439C47.0022 34.7171 48.3491 33.7031 49.7898 32.8585C50.4088 32.4957 52.9935 30.8692 53.5617 32.0139C53.0948 31.9848 52.6901 32.1556 52.2909 32.3694C52.1935 32.4216 51.691 32.7805 51.8086 32.4642C51.6626 32.4915 51.5345 32.6819 51.424 32.7665C51.233 32.9128 50.9433 33.0817 50.7221 33.2028C50.5034 33.3225 50.2332 33.3518 50.034 33.4969C49.9612 33.5499 49.9171 33.6358 49.8477 33.6931L49.6487 33.6947C49.6189 33.8049 49.5891 33.915 49.5593 34.0253C49.4468 33.6647 49.2864 34.1336 49.0985 34.2859C48.9855 34.3774 48.8067 34.4717 48.6737 34.5308C48.5743 34.5749 48.5589 34.4723 48.4624 34.5504C48.3767 34.6197 48.322 34.7724 48.2298 34.8593C48.1166 34.9656 47.9718 35.0483 47.8457 35.1392C47.604 35.3132 47.3484 35.4498 47.1036 35.6148C46.7742 35.8368 46.6015 36.2186 46.2818 36.4507C46.1303 36.5606 45.895 36.5735 45.813 36.6439C45.6074 36.8207 45.6751 37.0885 45.2917 37.1003C45.3266 37.1561 45.3476 37.2167 45.3547 37.2821C45.2634 37.2663 45.1822 37.2285 45.1111 37.1684C45.127 37.5508 44.751 37.6874 44.5256 37.9229C44.3956 38.0585 44.2337 38.2494 44.142 38.4127C44.1268 38.44 44.0977 38.658 44.0914 38.6609C44.0566 38.6776 43.8447 38.4915 43.8648 38.5071C43.8057 38.8604 43.4637 39.1945 43.314 39.5216C43.2352 39.6939 43.155 39.971 42.9996 40.0922C42.9573 40.1251 42.8273 40.0907 42.7198 40.2053C42.6409 40.2892 42.55 40.4445 42.518 40.5559C42.4966 40.6303 42.5223 40.8228 42.4916 40.8674C42.4354 40.949 42.3479 40.867 42.2598 40.9274C42.097 41.0389 42.0928 41.2131 41.8546 41.236C42.0188 41.635 43.0102 41.758 43.3705 41.8714C44.3896 42.1921 45.4587 42.5124 46.4112 43.0036C46.6576 43.1306 46.8907 43.2353 46.9344 43.528C46.9952 43.9352 46.7877 44.4768 46.7481 44.8881C46.6408 45.999 46.6189 47.1426 46.6413 48.2582C46.6625 49.3149 46.6967 50.3815 46.746 51.4369C46.7916 52.4154 46.9889 53.3746 47.0954 54.3463C47.1246 54.613 47.1051 55.8156 47.5637 55.755C47.9465 55.7045 47.7048 54.8831 47.6976 54.6476C47.6816 54.1264 47.7913 53.5943 47.7867 53.0685C47.7845 52.8158 47.895 52.598 47.9056 52.3562C47.9162 52.1171 47.7974 51.9283 47.833 51.6805C47.8672 51.4428 48.5699 50.0754 47.895 50.2356C47.9345 50.0401 47.9691 49.843 48.0214 49.6504C48.0935 49.7153 48.1517 49.7911 48.1956 49.8776C48.2556 49.4576 48.2356 49.0384 48.2728 48.6182C48.2896 48.4278 48.3667 48.2192 48.3404 48.0273C48.3454 47.9478 48.3353 47.8697 48.3101 47.7932C48.2686 47.7493 48.2172 47.7262 48.1561 47.7239C48.124 47.6188 48.1157 47.5899 48.1728 47.4868C48.1972 47.4169 48.2458 47.3732 48.3185 47.3559C48.4569 47.3395 48.4727 47.26 48.3658 47.1173C48.4216 46.8357 48.4288 46.658 48.3886 46.377C48.3547 46.1409 48.4791 45.6839 48.3524 45.4737C48.2044 45.228 48.1309 45.4663 48.1033 45.1257C48.0974 45.0537 48.0927 44.9035 48.1217 44.8316C48.1535 44.7533 48.2489 44.7854 48.2611 44.7576C48.344 44.5683 48.3495 44.1957 48.0563 44.228C48.0678 44.0928 48.0793 43.9577 48.0907 43.8225C48.3025 44.0664 48.2285 43.8599 48.3486 43.7244C48.5105 43.5417 48.6688 43.5102 48.9001 43.438C49.5166 43.2457 50.1106 42.9563 50.7131 42.7215C51.9889 42.2244 53.2883 41.7805 54.5267 41.1929C57.1313 39.957 59.6843 38.6157 62.3049 37.4124C62.1177 37.065 62.2341 37.0481 62.371 36.7218C62.5536 36.8487 62.5152 36.7602 62.6452 36.7524C62.6334 36.6436 62.6672 36.6108 62.7466 36.6539C62.8098 36.6733 62.8746 36.6802 62.9411 36.6745C63.1033 36.7023 63.2358 36.7916 63.3833 36.8255C63.4317 36.8612 63.4849 36.8879 63.5429 36.9059C63.595 36.894 63.6394 36.8682 63.6762 36.8285C63.9149 36.8728 63.9953 37.0526 64.0059 37.3129C64.0076 37.3582 63.869 37.4047 63.9087 37.4655C63.978 37.5719 64.1646 37.5465 64.2714 37.5601C64.248 37.6706 64.2246 37.781 64.2013 37.8914C64.6698 37.6752 64.5476 38.3519 64.6896 38.5742C64.7293 38.6362 64.8174 38.5867 64.8634 38.6586C64.9231 38.7524 64.9051 38.8852 64.9562 38.9786C65.0715 39.1899 65.1869 39.1642 65.3018 39.4062C65.9025 40.6694 66.7015 41.8463 67.278 43.1367C67.5525 43.7509 67.8 44.3756 68.0866 44.9844C68.3503 45.5447 68.501 46.021 68.313 46.6328C67.8771 48.0522 67.4109 49.4974 66.8396 50.8684C66.8111 50.8231 66.7826 50.7778 66.754 50.7325ZM36.3457 61.3271C36.3048 61.3967 36.2639 61.4664 36.223 61.5361C36.1322 61.0135 36.3742 61.2559 36.3457 61.3271ZM34.4229 60.3487C34.2918 60.3095 34.3484 60.0954 34.3527 60.0039C34.4355 60.1072 34.5169 60.2125 34.5859 60.326C34.5315 60.3336 34.4771 60.3411 34.4229 60.3487ZM29.1529 58.3399C29.2905 58.2627 29.3895 58.2073 29.5455 58.1198C29.387 58.4289 29.387 58.4289 29.1529 58.3399ZM20.862 31.1128C20.6517 31.6289 21.2929 34.8159 20.696 34.9199C20.6103 34.6402 20.5996 33.87 20.2452 33.7781C19.8054 33.6639 19.8488 34.4569 19.7887 34.7021C18.8859 34.0739 18.4849 32.8609 18.0536 31.8996C17.5038 30.6743 17.0712 29.3998 16.6581 28.1231C16.3048 27.0315 16.0127 25.9206 15.6557 24.8308C15.4315 24.1463 15.1897 23.4602 15.0389 22.7547C15.0062 22.6014 14.8773 22.2128 14.9868 22.0671C15.146 21.8552 15.719 22.0978 15.9036 22.1535C17.1014 22.5139 18.3439 22.669 19.5745 22.8785C20.9418 23.111 22.306 23.3514 23.6815 23.5317C24.0252 23.5767 24.3691 23.6194 24.7132 23.6608C24.9364 23.6878 25.2742 23.6609 25.4862 23.7609C25.9152 23.9634 26.0066 24.7381 26.1659 25.14C26.7605 26.6395 27.4602 28.0916 28.0861 29.5776C28.6501 30.9161 29.0776 32.3402 29.8882 33.559C29.2836 33.291 28.5175 31.8741 27.8419 32.6908C27.5515 33.042 27.6248 33.5047 27.648 33.925C27.6816 34.5326 27.6921 35.1447 27.6921 35.7532C27.031 35.5815 26.5868 34.831 26.2398 34.2995C25.7657 33.5734 25.4671 32.8892 25.2572 32.0569C25.1663 31.6965 24.9252 31.6875 24.711 31.4718C24.5733 31.3332 24.5041 31.1464 24.3067 31.348C24.0586 31.6015 24.2236 32.3034 24.2665 32.6026C24.3682 33.3147 24.702 34.4106 24.3776 35.0798C23.9397 35.9828 22.7663 33.7106 22.6289 33.3825C22.5589 33.2154 21.3105 30.0118 20.862 31.1128ZM20.0423 15.6369C20.1162 15.6482 20.19 15.6596 20.264 15.6709C20.2044 15.7235 20.0804 15.9079 19.9792 15.8591C20.0002 15.7851 20.0212 15.7111 20.0423 15.6369ZM23.9582 14.7966C23.9351 14.8221 23.9118 14.8475 23.8886 14.8729C23.7826 14.7404 23.8201 14.5472 23.8201 14.3939C23.9602 14.4786 23.9945 14.6479 23.9582 14.7966ZM24.2747 16.267V16.7002C23.9811 16.573 23.9753 16.5073 24.2747 16.267ZM24.6311 16.8178C24.4255 16.7614 24.4009 16.7159 24.4298 16.3998C24.515 16.5768 24.5712 16.6935 24.6311 16.8178ZM25.8151 20.0258C25.7288 20.2476 25.225 19.7191 25.2435 19.5609C25.2611 19.41 25.3384 19.365 25.4452 19.462C25.4805 19.4941 25.4281 19.6103 25.4506 19.6506C25.5319 19.7965 25.6958 19.9158 25.8151 20.0258ZM25.8207 21.3621C25.6944 21.6773 25.4694 21.1809 25.7992 21.1674C25.8209 21.2308 25.828 21.2957 25.8207 21.3621ZM25.5758 20.8652C25.5269 20.8 25.4794 20.7339 25.4333 20.6667C25.6032 20.701 25.7381 20.9485 25.9173 20.7834C25.8961 21.0352 25.7171 21.0422 25.5758 20.8652ZM14.5895 16.7709C14.3163 16.4727 16.0979 16.2634 16.3128 16.2122C17.8725 15.8403 19.345 15.3021 20.8033 14.6417C21.499 14.3267 22.1912 14.0079 22.8705 13.6586C23.1639 13.5079 23.566 13.3801 23.811 13.1538C23.9859 12.9923 23.9789 12.8701 24.2062 12.7738C24.3992 12.6923 24.4089 12.7693 24.4972 12.6218C24.5503 12.5333 24.6104 12.2091 24.5793 12.1131C24.4947 11.8513 24.3695 12.0636 24.1938 11.8832C24.0673 11.7531 24.098 11.3832 24.1325 11.2301C24.1773 11.303 24.2031 11.3822 24.21 11.4676C24.4006 11.3736 24.3237 11.0508 24.5322 10.9979C24.752 10.9423 24.7293 11.1135 24.7866 11.2885C24.9526 11.0446 24.8195 10.8367 24.7297 10.5986C25.1865 10.513 25.6774 10.4302 26.1303 10.5822C26.4577 10.692 26.738 10.962 27.0838 11.0142C27.4224 11.0653 27.4875 10.9047 27.7371 10.7418C27.9398 10.6096 28.1138 10.7653 28.2181 10.6654C28.1538 11.0026 27.601 10.9565 27.669 11.3779C27.6997 11.5676 27.9321 11.7379 28.0379 11.8855C28.1707 12.0707 28.2766 12.2755 28.367 12.4843C28.7189 13.2961 28.8693 14.2383 29.017 15.1065C29.3813 17.2496 29.4275 19.435 29.7702 21.5849C29.9335 22.609 30.0972 23.6336 30.182 24.6677C30.2033 24.9263 30.3612 25.5127 30.232 25.7615C30.1227 25.9715 29.8797 25.972 29.6664 26.0229C29.2489 26.1221 28.8569 26.2569 28.4565 26.4062C28.0975 26.54 27.9932 26.6221 27.7628 26.2844C27.5399 25.9576 27.4297 25.5681 27.2702 25.2098C27.0671 24.7533 26.8217 24.3129 26.5861 23.8725C27.0489 23.8725 27.3153 23.6227 27.303 23.1525C27.2896 22.6316 26.8612 22.508 26.6847 22.0799C26.5129 22.303 26.4984 22.3093 26.376 22.0975C26.236 21.8554 26.1416 21.4123 26.0559 21.1376C26.1172 21.203 26.1784 21.2683 26.2397 21.3336C26.3941 21.1211 26.1522 20.786 26.0713 20.5858C25.9464 20.2767 25.9244 19.9426 25.8059 19.6343C25.7413 19.4661 25.5917 19.3337 25.555 19.1582C25.5305 19.0407 25.6287 18.9289 25.6054 18.8097C25.5648 18.602 25.33 18.3793 25.2569 18.1681C25.1445 17.8432 25.0225 17.5572 24.8831 17.2408C24.6945 16.8124 24.7383 16.3629 24.7038 15.907C24.668 15.4343 24.5166 14.9821 24.4631 14.5114C24.4262 14.1863 24.5419 13.7769 24.2959 13.5165C24.2671 13.9494 24.3912 13.9427 23.9844 14.0205C23.5214 14.1091 23.1855 14.4541 22.7477 14.557C22.6575 14.5783 22.5917 14.184 22.6269 14.7218C22.4169 14.5668 21.9687 14.7593 22.1359 14.8513C22.0092 14.9869 21.7595 14.8931 21.7179 15.0962C21.2871 14.6775 20.5965 16.1028 20.0836 15.3593C19.9989 15.8632 19.6341 16.1611 19.1443 16.2277C18.898 16.2611 18.7462 16.3432 18.5276 16.4171C18.4833 16.4319 18.467 16.4957 18.4145 16.5129C18.3342 16.5391 18.2165 16.4601 18.1586 16.4755C18.041 16.5067 17.9101 16.6616 17.7458 16.6924C17.5575 16.7276 17.352 16.7114 17.1634 16.6896C16.9276 16.6623 16.8239 16.6343 16.5931 16.712C16.3854 16.7819 16.163 16.9777 15.9703 16.7645C15.6676 17.2882 14.9459 17.1602 14.5895 16.7709ZM28.5841 10.4509C28.355 10.4235 28.5141 10.2264 28.6202 10.1673C28.9085 10.0066 28.8315 10.4806 28.5841 10.4509ZM15.8995 12.3303C17.244 10.3905 19.5438 9.05777 21.5673 7.93639C22.6726 7.32388 23.8008 6.73016 24.9613 6.22885C25.5383 5.97972 26.122 5.74022 26.7112 5.52137C27.0258 5.40447 27.3443 5.2982 27.6629 5.19241C27.751 5.16321 27.9112 5.07354 28.0035 5.08229C27.9875 5.08072 28.2326 5.14738 28.1845 5.16832C28.3424 5.0996 28.4175 4.92037 28.6031 4.8487C28.8117 4.76808 29.0775 4.73475 29.3009 4.72747C29.4986 4.72099 29.6698 4.80269 29.8582 4.80908C29.982 4.81321 30.0872 4.75441 30.2084 4.74576C30.2704 4.74144 30.2649 4.83425 30.3023 4.83965C30.3185 4.84201 30.4837 4.77997 30.4852 4.78106C30.5454 4.81969 30.5987 4.97051 30.6531 5.0294C30.809 5.19831 31.0379 5.31599 31.2458 5.40487C31.4989 5.51301 32.1162 5.62175 31.8301 6.02189C32.0333 5.99269 32.1279 6.17635 31.8734 6.22285C31.7356 6.24812 31.6767 6.12188 31.5744 6.03576C31.3379 5.83716 30.764 5.55441 30.4234 5.56719C30.2318 5.57436 30.0837 5.71977 29.907 5.77257C29.7331 5.82448 29.647 5.74396 29.4944 5.75674C29.3161 5.77158 29.2012 5.9225 29.0312 5.94934C28.8721 5.97451 28.7834 5.86597 28.6411 5.87354C28.472 5.88248 28.3082 6.02937 28.1468 6.07872C27.89 6.15718 27.7014 6.21066 27.4507 6.34073C26.9649 6.59291 26.4223 6.68867 25.9215 6.90575C25.5212 7.07928 25.0673 7.17061 24.6968 7.36252C24.2849 7.57577 23.8711 7.78823 23.4677 8.01996C23.1763 8.18739 22.5838 8.245 22.2625 8.20243C22.2579 8.79409 21.9667 8.3793 21.6732 8.63846C21.7426 8.69971 21.8215 8.74474 21.9095 8.77355C21.5914 8.90057 21.2975 9.05866 20.9893 9.20466C20.6709 9.35567 20.3311 9.3889 20.1219 9.67451C19.9292 9.9377 19.9945 9.80192 19.7069 9.90555C19.575 9.95313 19.4602 10.0982 19.3652 10.1957C19.2018 10.3632 19.1656 10.6169 19.0723 10.2726C19.0451 10.3145 18.9379 10.5819 18.9171 10.5886C18.8002 10.4646 18.7833 10.6116 18.718 10.6642C18.7524 10.7786 18.7032 10.8535 18.5705 10.889C18.5033 10.9389 18.4353 10.9879 18.3666 11.0358C18.1173 11.2087 17.7999 11.3571 17.6243 11.6148C17.4948 11.5384 17.4468 11.4065 17.5257 11.2719C17.2782 11.5 16.983 11.7343 16.916 12.0854C16.8853 12.0557 16.8494 12.0343 16.8087 12.0211C16.7082 12.0889 16.8391 12.2911 16.9028 12.3366C17.1806 12.2286 16.8334 12.2678 17.0201 12.2852C17.0732 12.2901 17.1279 12.3299 17.1866 12.3306C17.3588 12.3329 17.5205 12.3246 17.6912 12.2983C18.0675 12.2403 18.4374 12.1323 18.8017 12.0239C19.1985 11.906 19.5954 11.7882 19.9835 11.6435C20.303 11.5243 20.6172 11.3915 20.9313 11.2592C21.0568 11.2063 21.1821 11.1527 21.3078 11.1002C21.5464 11.0005 21.6722 10.8367 21.6389 11.1173C21.829 11.0857 21.9936 10.8171 22.1395 10.7075C22.3448 10.5534 22.5757 10.4385 22.8189 10.3599C22.9174 10.328 22.9898 10.2875 23.0916 10.2872C23.1416 10.2871 23.1715 10.4279 23.2029 10.4202C23.4212 10.3673 23.3217 10.2464 23.4198 10.0722C23.6344 9.69142 24.2125 9.48083 24.5675 9.26453C24.7929 9.12719 24.9528 8.94245 25.1609 8.79036C25.2582 8.71928 25.3289 8.68781 25.4308 8.65773C25.5089 8.63463 25.6047 8.81395 25.6553 8.63374C25.4737 8.55951 25.324 8.46798 25.1493 8.41381C25.0257 8.37537 25.1739 8.24392 24.9781 8.32218C24.8994 8.35364 24.8724 8.50583 24.8435 8.56954C24.6248 8.37419 24.0097 8.57662 23.7501 8.65842C23.7322 8.66402 23.6521 8.62175 23.6144 8.6243C23.4645 8.63433 23.3602 8.83597 23.2616 8.92289C22.9994 9.15383 22.715 9.25037 22.3921 9.38221C22.478 8.91276 23.1095 8.72045 23.4781 8.54064C24.0169 8.27774 24.5185 7.94219 25.1084 7.80081C25.5012 7.70653 26.0218 7.63073 26.1915 8.0875C26.2931 8.36131 26.3058 9.04155 25.9622 9.16789C25.926 9.04008 26.0422 8.93085 26.0772 8.81995C25.7351 8.95051 25.6788 9.36137 25.419 9.5758C25.273 9.69623 25.2208 9.73487 25.1502 9.85128C25.0802 9.9669 25.0465 10.0747 24.8822 10.1977C24.6137 9.62741 24.6592 10.4086 24.523 10.5066C24.5778 10.4672 24.3011 10.5824 24.3341 10.5702C24.3214 10.5749 24.2008 10.3796 24.1227 10.3838C23.9804 10.3912 24.0077 10.5478 23.9392 10.6267C23.7069 10.8935 23.4067 11.0685 23.0328 11.0265C23.0241 11.2164 23.0827 11.4432 22.8234 11.4605L22.7894 11.0396C22.6483 11.1824 22.4626 11.3179 22.3478 11.4832C22.2171 11.6713 22.2311 11.7871 22.0143 11.9125C21.7878 12.0435 21.3058 12.3017 21.0362 12.324C21.1029 12.2294 21.0911 12.144 21.001 12.0679C20.8655 12.2077 20.6653 12.2215 20.521 12.3477C21.022 12.557 20.1361 12.5462 20.0237 12.5699C19.9485 12.5858 19.8828 12.6543 19.8066 12.6698C19.7054 12.6903 19.6924 12.584 19.6053 12.6177C19.4778 12.667 19.5296 12.8063 19.3962 12.8763C19.3005 12.9267 19.1381 12.926 19.03 12.9738C18.7725 13.0878 18.224 13.3404 18.05 13.034C17.9618 13.5596 17.0612 13.2397 16.7278 13.2043C16.2712 13.1559 15.4759 12.9415 15.8995 12.3303ZM17.8172 6.95265C17.8818 6.89749 17.9465 6.90152 18.0112 6.96484C17.9211 6.48919 18.6177 6.25824 18.9216 6.05601C19.3247 5.78781 19.7991 5.26742 20.3266 5.30862C20.2366 5.37527 20.1469 5.44193 20.057 5.50859C20.1853 5.52521 20.3135 5.54182 20.4416 5.55844C20.3694 5.66462 20.297 5.7707 20.2246 5.87678C20.1062 5.22436 19.4886 6.04805 19.3098 6.16809C19.1298 6.28892 18.9503 6.37898 18.7903 6.52635C18.6318 6.67235 18.4888 6.93524 18.2268 6.8039C18.2029 7.17651 17.9033 7.07544 17.6962 7.28181C17.6875 7.15232 17.7617 7.06079 17.8172 6.95265ZM20.5537 5.09262C21.1913 4.85381 21.7464 4.41228 22.3472 4.09688C22.921 3.79558 23.5065 3.52502 24.0899 3.24394C24.3858 3.10128 24.928 2.7324 25.2663 2.92038C25.7227 3.17423 25.0943 3.25613 24.9311 3.34402C24.8707 2.95312 24.6593 3.30725 24.7856 3.52472C24.4373 3.3743 23.6776 3.96282 23.3453 4.1251C23.2701 4.16187 23.3038 4.1831 23.2183 4.22636C23.1972 4.23698 22.9791 4.28663 22.9167 4.30757C22.6039 4.41228 22.3977 4.3291 22.2629 4.70673C22.2347 4.61785 22.2065 4.52888 22.1783 4.4399C21.9824 4.87967 21.3871 5.07217 21.0065 5.33221C20.9083 5.39926 20.6281 5.65931 20.5037 5.60553C20.3304 5.53061 20.3999 5.15013 20.5537 5.09262ZM32.0553 6.4185C32.3245 6.43629 32.065 6.56184 32.1389 6.64482C32.1305 6.63548 32.301 6.78089 32.2787 6.74097C32.3088 6.79465 32.381 6.79269 32.418 6.90182C32.5453 7.27709 31.9894 7.66484 31.8019 7.87779C31.4373 8.292 31.2266 8.81651 30.8467 9.21744C30.6752 9.39854 30.5045 9.52359 30.2667 9.59114C30.1002 9.63842 29.9241 9.58779 29.7712 9.74785C29.648 9.87674 29.6759 9.94999 29.5397 10.0185C29.2998 10.1393 29.1942 10.0334 28.9608 10.2945C28.7599 9.74844 29.337 9.74932 29.6381 9.44415C30.0538 9.02287 30.5093 8.59786 30.8991 8.14718C31.2454 7.74674 31.3841 7.39566 31.5485 6.90919C31.6003 6.75582 31.6568 6.42695 31.7996 6.3307C32.0221 6.18087 31.8886 6.40739 32.0553 6.4185ZM33.379 20.6034C34.0851 19.8138 34.9608 19.1047 35.9102 18.6291C36.2495 18.459 36.7325 18.2358 37.0842 18.4976C37.4291 18.7542 37.3548 19.2662 37.2158 19.6144C37.0826 19.5621 37.2083 19.0727 37.1392 18.9517C36.9884 18.6879 36.663 18.828 36.4416 18.9164C36.1822 19.0201 35.9508 19.1345 35.7454 19.3226C35.662 19.3988 35.5025 19.4671 35.4491 19.5195C35.3689 19.4862 35.3216 19.5105 35.3074 19.5923C35.3239 19.6424 35.322 19.6918 35.3014 19.7403C35.2897 19.7558 35.1854 19.6924 35.1706 19.7051C35.1029 19.763 35.0396 19.8312 34.973 19.8849C34.8394 19.993 34.7258 20.0441 34.6028 20.1947C34.3652 20.4859 34.051 20.6564 33.8124 20.9338C33.7585 20.9965 33.694 21.1572 33.6819 21.1713C33.5612 21.3121 33.3824 21.4235 33.2463 21.5725C33.0111 21.83 32.7599 22.0029 32.4884 22.2237C32.3715 22.3186 32.2351 22.421 32.1574 22.5531C32.122 22.6134 32.102 22.9437 32.1007 22.9451C31.8345 23.2369 31.8863 22.6504 31.9064 22.5768C32.1226 21.7855 32.8536 21.1914 33.379 20.6034ZM31.9258 25.9544C31.959 26.0787 31.9862 26.1815 32.0198 26.3076C31.8088 26.1345 31.8088 26.1345 31.9258 25.9544ZM31.6979 26.3615C31.6203 26.4396 31.5423 26.5173 31.4638 26.5945C31.291 26.4119 31.7295 26.3302 31.6979 26.3615ZM31.5882 23.2191C31.5056 23.5532 31.2033 23.9582 30.9955 24.2218C31.0184 24.1927 30.8181 24.2512 30.7953 24.2645C30.7213 24.3074 30.8986 24.5852 30.642 24.461C30.551 24.5126 30.7302 24.7224 30.6066 24.8163C30.2491 24.0017 31.2252 23.296 31.6031 22.6914C31.7879 22.8611 31.6346 23.0318 31.5882 23.2191ZM29.2663 27.6231C29.527 27.6901 29.6625 27.6479 29.8385 27.3919C29.9443 27.2382 29.9829 26.9658 30.2249 27.1959L30.2676 26.9C30.6129 27.0417 30.5839 27.5537 30.7349 27.8375C30.8083 27.5165 30.9822 26.6197 31.5148 26.7636C32.1126 26.9251 31.1176 27.9533 31.0252 28.2052C30.822 27.8898 30.9019 28.1832 30.7469 28.2276C30.6138 28.2658 30.406 28.1679 30.2444 28.1768C29.7526 28.2035 29.3206 28.4247 28.8714 28.612C28.7576 28.3054 28.644 27.9987 28.5302 27.6921C28.7947 27.7124 29.3415 27.0085 29.4192 27.5201C29.2231 27.486 29.1678 27.4947 29.0722 27.6732C29.1333 27.6422 29.198 27.6255 29.2663 27.6231ZM30.3702 31.6256C30.3694 31.6231 30.8789 31.6546 30.9243 31.638C31.2729 31.5106 31.144 31.1152 31.2153 30.8357C31.3591 30.9678 31.2829 31.209 31.3272 31.38C31.3792 31.5809 31.5298 31.7522 31.5438 31.9671C31.5756 32.4527 31.1771 32.3449 30.8751 32.5021C30.617 32.6364 30.5884 32.8053 30.3704 32.4434C30.3114 32.3454 30.1846 32.0903 30.1976 31.9651C30.2103 31.841 30.4069 31.7378 30.3702 31.6256ZM30.7808 33.7268L30.6399 33.569C31.0597 33.6975 30.8121 33.5043 30.9087 33.2401C31.2309 33.4546 31.4937 33.6752 31.7486 33.2456L32.189 35.0222C31.8932 35.0918 31.5115 34.6347 31.3086 34.4777C31.1914 34.387 30.5411 34.0374 30.9316 33.9356C30.8812 33.866 30.831 33.7964 30.7808 33.7268ZM33.6559 28.1482C33.4114 28.3807 33.1651 28.5108 32.8989 28.6936C32.6654 28.8541 32.7458 29.0382 32.5434 29.2171C32.409 29.3361 32.0939 29.4572 31.9278 29.548C31.632 29.7096 31.367 29.7404 31.0627 29.5595C31.1455 30.2262 30.6889 30.2784 30.1206 30.4104C29.8495 30.4734 29.6891 30.5697 29.4937 30.3214C29.3599 30.1515 29.3075 29.8439 29.474 29.6885C29.7383 29.4415 30.4427 29.5267 30.7818 29.3714C31.0392 29.2536 31.3014 28.5899 31.619 28.8315C31.4551 28.5704 31.6459 28.5001 31.7884 28.314C31.9444 28.11 32.0403 27.8715 32.2017 27.6692C32.5085 27.2846 32.9794 26.8977 33.415 26.6658C33.7984 26.4618 33.9996 26.6062 34.057 27.0346C34.0859 27.25 34.0849 27.5709 33.9642 27.7621C33.9258 27.823 33.7989 27.8237 33.7604 27.8809C33.6935 27.9809 33.7549 28.054 33.6559 28.1482ZM38.1541 22.9775C38.46 23.2142 38.4302 23.7117 38.4784 24.0505C38.5463 24.528 38.4971 24.9901 38.4898 25.4764C38.4821 25.986 38.2321 26.3179 38.1144 26.7955C37.9836 27.3268 37.8148 27.6082 37.5215 28.0541C37.8396 28.1041 37.3661 29.0542 37.2881 29.1772C37.2033 29.3107 36.5199 29.926 36.8129 29.926C36.6513 30.1391 36.4753 30.3579 36.3143 30.5651C36.2508 30.6467 36.1396 30.6788 36.0897 30.7364C35.9879 30.8535 35.9818 30.9579 35.9089 31.0946C35.7983 31.3019 35.7619 31.2466 35.6165 31.397C35.5161 31.5009 35.4503 31.6381 35.3516 31.7377C35.0339 32.0585 34.9934 31.7957 34.8157 31.5486C34.7885 31.6148 34.7401 31.6562 34.6706 31.6731C34.615 31.3934 34.998 31.111 35.159 30.9411C35.4228 30.6627 35.6639 30.3559 35.8971 30.0514C36.3965 29.399 36.8454 28.7059 37.1995 27.9634C37.5762 27.1733 37.8772 26.3181 38.0335 25.4561C38.1526 24.799 38.2659 23.672 37.388 23.5048C36.7494 23.3833 36.0455 23.7713 35.5191 24.0854C35.1983 24.2767 34.8757 24.4669 34.5701 24.6821C34.2384 24.9156 33.9517 25.2459 33.5917 25.4332C33.7886 25.3307 33.1389 25.6391 33.2384 25.5523C33.1918 25.5928 33.232 25.7166 33.2012 25.7725C33.1611 25.8451 33.0217 25.9169 32.9591 25.9639C32.794 26.088 32.5301 26.2149 32.455 26.4198C31.4073 25.6724 33.4907 24.3455 34.0248 24.0076C35.0841 23.3374 36.9274 22.0278 38.1541 22.9775ZM40.9801 15.7087C40.9701 15.1705 41.4084 14.4358 41.7044 13.9969C41.8492 13.7821 42.0805 13.7907 42.1654 13.5373C42.2144 13.3914 42.1502 13.2384 42.1647 13.0919C42.1844 12.8938 42.2703 12.735 42.3694 12.5647C43.2653 11.0254 44.3539 9.66291 45.5133 8.31992C46.085 7.65786 46.627 6.97034 47.2436 6.3484C47.5012 6.08865 48.1934 5.15485 48.5894 5.24825C48.7991 5.2977 48.9211 5.61772 49.0158 5.78102C49.1723 6.05109 49.3445 6.30406 49.5347 6.5524C50.0368 7.20807 50.616 7.78361 51.3 8.24834C51.727 8.53877 52.1586 8.82103 52.5762 9.12532C52.92 9.37573 53.4398 9.66202 53.6853 10.0136C53.9309 10.3653 53.5703 10.6631 53.3731 10.9551C53.0668 11.4092 52.785 11.8797 52.4774 12.3333C52.3552 12.2455 52.3867 12.0669 52.303 11.9543C52.2287 11.8546 52.1236 11.8139 52.0209 11.7523C51.8242 11.6344 51.6311 11.4903 51.4534 11.6878C51.1425 12.0335 51.57 12.8506 52.0309 12.7609C52.0852 13.1021 51.1649 13.6639 50.9342 13.8517C50.2264 14.4277 49.4962 14.9284 48.5611 14.9805C48.1827 15.0015 47.7889 14.9728 47.4294 14.8462C47.2571 14.7855 47.0667 14.7023 46.9347 14.57C46.7766 14.4117 46.7363 14.1762 46.5829 14.0195C46.4499 13.8835 46.2672 13.8625 46.1343 13.7261C46.0012 13.5895 45.9354 13.3738 45.8814 13.1969C45.7758 12.8514 45.7559 12.4869 45.6544 12.1406C45.5934 11.9322 45.5432 11.6537 45.3441 11.8539C45.055 12.1447 45.2002 13.0591 45.2742 13.4075C45.3801 13.9046 45.6284 14.3054 45.8884 14.733C46.1704 15.197 46.2745 15.6273 46.325 16.1641C46.4196 17.169 46.708 18.1333 47.1567 19.0374C47.3455 19.4181 47.5718 19.776 47.7757 20.1479C47.8709 20.3215 48.0844 20.9135 48.3434 20.9104C48.7573 20.9053 48.1677 19.6982 48.0859 19.4956C47.6325 18.3734 47.1994 17.1938 47.1023 15.9786C47.7523 16.146 48.4607 16.3049 49.1338 16.1988C48.6993 17.1704 49.1532 18.1377 49.0976 19.1378C49.0699 19.6393 49.0498 20.1019 49.0602 20.602C49.0693 21.0404 48.8713 21.4787 48.7001 21.8752C48.3601 22.6627 47.9322 23.634 47.3008 24.2372C46.7729 24.7414 46.0668 24.7809 45.3772 24.6647C43.8082 24.4005 42.7774 23.1944 42.119 21.8247C41.6959 20.9448 41.3726 20.0055 41.1718 19.0499C40.9394 17.9439 41.0007 16.8305 40.9801 15.7087ZM43.0176 8.25532C41.5535 7.19598 43.681 5.99299 44.764 6.15678C45.018 6.19513 45.4854 6.30013 45.4616 6.63165C45.4421 6.9026 44.9902 7.20463 44.8167 7.37186C44.3218 7.84909 43.8183 8.8345 43.0176 8.25532ZM53.6685 31.7937C53.6182 31.7487 53.2085 31.8592 53.3708 31.6167C53.5057 31.4153 53.8797 31.6678 54.0155 31.7196C53.9036 31.7969 53.8061 31.9168 53.6685 31.7937ZM47.572 44.606C47.4462 44.6216 47.3147 44.2822 47.7683 44.5358C47.7029 44.5592 47.6374 44.5826 47.572 44.606ZM47.5591 50.1374C47.5747 50.2895 47.6212 50.3897 47.5132 50.5004C47.4218 50.3878 47.41 50.229 47.5591 50.1374ZM47.7432 52.4228C47.7298 52.5056 47.7165 52.5884 47.7033 52.6711C47.5985 52.6181 47.4939 52.5651 47.3891 52.512C47.5071 52.4823 47.6252 52.4526 47.7432 52.4228ZM47.8714 50.4956C48.0275 50.554 47.9549 50.3673 48.0682 50.3411C48.1089 50.5354 48.0588 50.7019 47.9472 50.8623C47.9366 50.8243 47.8794 50.4985 47.8714 50.4956ZM51.8614 36.7044C51.6424 36.6765 51.6093 36.908 51.446 36.9977C51.3406 37.0557 51.0197 37.0122 50.9598 37.1232C51.0388 37.146 51.118 37.1689 51.197 37.1917C51.016 37.2892 50.835 37.3869 50.654 37.4844C51.0894 37.4844 51.543 37.2764 51.9754 37.3375C52.1582 37.3634 52.2922 37.4251 52.4068 37.5737C52.4764 37.664 52.5376 37.8092 52.5488 37.9197C52.5609 38.0393 52.4677 38.1219 52.4842 38.1789C52.679 38.1842 52.656 38.5038 52.6123 38.6341C52.5174 38.9165 52.1406 39.3589 51.8029 39.1797C51.9441 39.3802 51.9081 39.4946 51.6992 39.6109C51.7182 39.5447 51.7322 39.4288 51.6254 39.4403C51.598 39.5514 51.6085 39.7275 51.5177 39.8113C51.4162 39.905 51.3255 39.7955 51.2284 39.8564C51.1133 39.9288 51.1479 40.0424 51.0573 40.1208C50.9376 40.2244 50.9205 40.1508 50.7773 40.1709C50.5605 40.2016 50.6989 40.0669 50.5252 40.2425C50.4652 40.3031 50.4753 40.4607 50.378 40.5494C50.191 40.7195 49.692 40.8969 49.5129 40.6786C49.0822 41.3613 47.7912 41.525 47.1903 40.9862C46.2319 40.1268 48.0189 38.3791 48.6089 37.8251C49.201 37.2693 49.8588 36.7891 50.5243 36.3256C50.9024 36.0623 51.2904 35.8233 51.6866 35.5888C51.9311 35.4439 52.238 35.1796 52.5383 35.2049C52.8077 35.2277 53.0379 35.4368 53.3215 35.4782C53.5266 35.508 53.9251 35.5574 53.6663 35.8356C53.5453 35.9656 53.07 36.1758 52.9082 36.2075C52.8131 36.226 52.713 36.1905 52.6188 36.2097C52.4593 36.2425 52.3498 36.3771 52.1763 36.3599C52.2312 36.6174 52.1309 36.7387 51.8614 36.7044ZM54.6977 27.1452C54.6978 27.3467 54.3301 27.2965 54.2534 27.228C54.1269 27.1155 54.1225 26.7788 54.0756 26.6257C54.2893 26.6795 54.6975 26.8764 54.6977 27.1452ZM51.7357 20.4993C52.5081 19.8645 53.3202 19.2825 54.1786 18.7699C54.4861 18.5863 54.9201 18.216 55.302 18.2623C55.4621 18.2817 55.7933 18.4657 55.6726 18.6685C55.6501 18.7064 55.4719 18.7217 55.4168 18.7492C55.3544 18.7804 55.3054 18.8663 55.2475 18.9088C54.8464 19.203 54.3645 19.3838 53.9621 19.6852C53.6313 19.9326 53.3229 20.2095 52.9669 20.4218C52.6254 20.6255 52.2685 20.7544 51.9442 20.9799C51.9506 20.9754 51.5225 21.1293 51.6064 21.1573C51.2306 21.0316 51.6276 20.5883 51.7357 20.4993ZM56.8853 20.2629C57.3441 20.08 57.793 19.8581 58.2734 19.7352C58.5131 19.6739 58.7592 19.6278 59.0073 19.6554C59.0495 19.5815 59.1056 19.5652 59.1758 19.6064C59.2306 19.6906 59.3027 19.7552 59.3924 19.8003C59.5293 19.9055 60.0331 20.043 59.9324 20.2754C59.8659 20.429 59.3606 20.4418 59.222 20.4763C58.8041 20.5804 58.4144 20.8146 57.9838 20.8721C57.9434 20.8775 57.8115 20.8286 57.81 20.8289C57.642 20.8655 57.5022 21.0399 57.3579 21.1234C57.0472 21.3032 56.6008 21.3334 56.3778 21.6438C57.1002 22.1335 57.7269 21.6478 58.3621 21.2781C58.7425 21.0567 59.1509 20.8969 59.5667 20.7549C59.784 20.6808 60.0032 20.6037 60.2235 20.5387C60.3146 20.5054 60.4083 20.4815 60.5044 20.4669C60.5939 20.4491 60.6579 20.4816 60.6966 20.5646C60.9628 20.5558 60.9856 20.3887 61.1459 20.7003C61.3718 21.1396 61.0261 21.1172 60.7013 21.1712C60.2508 21.2459 59.7926 21.4142 59.3487 21.5258C59.2464 21.5516 58.3487 21.7597 58.3476 21.7671C58.3069 22.0504 60.8834 21.788 61.1046 21.7456C61.4949 21.6705 61.9135 21.4572 62.3176 21.5086C62.6279 21.5481 63.3346 22.0033 62.8397 22.3057C62.7423 21.8393 62.4078 22.2245 62.2332 22.3819C62.0006 22.5914 61.6673 22.5712 61.3483 22.6533C60.912 22.7654 59.795 23.186 59.4851 22.6498C59.5831 23.1197 57.8026 22.8809 57.5578 22.8654C57.3192 22.8501 57.0112 22.9009 56.7806 22.8328C56.6301 22.7885 56.5465 22.6907 56.4049 22.6687C56.3702 22.706 56.3286 22.7315 56.2802 22.7449C56.2085 22.7087 56.1437 22.6625 56.0859 22.6065C55.609 22.3874 54.8713 22.2662 55.1362 21.5681C55.3862 20.9097 56.2791 20.5045 56.8853 20.2629ZM61.3546 20.6698C61.3665 20.6288 61.3784 20.5878 61.3902 20.5467C61.3916 20.6725 61.6915 20.7261 61.6569 20.889C61.5801 21.2498 61.234 20.7078 61.2044 20.6487C61.2545 20.6557 61.3044 20.6627 61.3546 20.6698ZM63.1854 21.2691C63.2201 21.4169 63.6189 21.7315 63.5201 21.8041C63.3629 21.5903 62.9283 21.6874 63.1854 21.2691ZM56.459 34.7521C56.605 34.4626 57.0463 34.9556 56.9997 34.4613C57.2397 34.483 57.0899 34.6656 57.3774 34.5854C57.4852 34.5553 57.558 34.4358 57.6894 34.4083C57.7244 34.4009 57.8757 34.4129 57.9279 34.4113C58.1008 34.406 58.7786 34.3868 58.3121 34.1599C58.5732 33.9873 58.6054 34.0749 58.841 34.2331C58.7806 33.9061 59.1273 34.0917 59.2888 34.1325C59.1736 33.946 59.4594 33.7476 59.5521 33.6216C59.5188 33.8157 59.5363 34.0331 59.8173 33.9089C59.8873 33.8781 59.8716 33.7408 59.9271 33.7184C60.0288 33.6774 60.0856 33.752 60.1221 33.7478C60.158 33.7438 60.2336 33.7639 60.309 33.7355C60.407 33.6987 60.3597 33.5671 60.484 33.5475C60.5649 33.5349 60.624 33.6538 60.7228 33.6548C60.7735 33.6553 60.8582 33.6038 60.8967 33.6065C60.9035 33.607 60.9518 33.4906 61.0111 33.4878C61.0978 33.4835 61.1331 33.7159 61.1647 33.761C61.3165 33.9763 61.5184 34.1167 61.7512 34.2315C61.33 34.6177 60.4804 34.5768 59.9507 34.707C59.6639 34.7776 59.4191 34.8793 59.1566 35.0105C59.0933 35.0517 59.0388 35.1022 58.9931 35.1621C58.956 35.1374 58.9187 35.1127 58.8816 35.088C58.7377 35.0969 58.6017 35.0257 58.4397 35.053C57.9396 35.1374 57.548 35.5121 57.0397 35.5955C56.8113 35.6331 56.6236 35.6855 56.4749 35.4875C56.3443 35.3139 56.366 34.9367 56.459 34.7521ZM55.7732 32.4443C55.8866 32.5402 55.7502 32.8523 55.9697 32.8183C56.1254 32.7943 56.0943 32.5527 56.2166 32.5015C56.3773 32.4343 56.4742 32.5937 56.6252 32.5789C56.9067 32.5512 56.8906 32.3054 56.6527 32.1975C56.9 32.1322 56.9793 32.4246 57.1982 32.4219C57.4858 32.4185 57.4171 32.0792 57.6619 32.023C57.7678 31.9986 57.7324 32.1542 57.8012 32.1736C57.9388 32.2122 58.0347 32.1459 58.1564 32.0875C58.2653 32.0353 58.3429 31.9344 58.4619 31.9002C58.5161 31.8845 58.6538 31.9131 58.6935 31.8841C58.7736 31.8257 58.8454 31.5982 58.9242 31.5682C58.9081 31.5743 59.1667 31.7038 59.2037 31.716C59.181 31.8121 59.1284 31.8235 59.0458 31.7503C59.0458 31.9671 59.6483 32.0347 59.5247 31.7668C59.8506 31.9016 59.6079 31.9711 59.5754 32.1593C59.5624 32.235 59.5183 32.233 59.5314 32.313C59.5374 32.3499 59.7082 32.3181 59.706 32.3683C59.6917 32.6919 58.6604 32.7914 58.4651 32.8199C58.0606 32.879 57.6779 32.9784 57.288 33.1008C56.9976 33.1919 56.4972 33.453 56.1883 33.4367C55.744 33.4134 55.6861 32.8338 55.7732 32.4443ZM54.7805 29.1427C54.6722 28.7828 55.0197 28.0393 55.4724 28.1322C55.5837 28.155 55.6111 28.2473 55.6974 28.2882C55.818 28.3454 56.014 28.3153 56.1185 28.3744C56.3528 28.507 56.2347 28.8449 56.4695 28.967C56.0988 29.0569 54.9527 29.7148 54.7805 29.1427ZM55.2095 30.5412C55.3691 30.4553 55.628 30.4443 55.7368 30.2792C55.7911 30.3168 55.8937 30.5448 55.9909 30.5099C56.0363 30.4937 56.0832 30.3701 56.08 30.3702C56.1666 30.3677 56.1838 30.2504 56.3162 30.2636C56.4377 30.2758 56.5738 30.4219 56.682 30.4764C56.6635 30.1142 56.7563 30.0796 57.0499 29.8857C57.1143 29.8432 57.1681 29.6837 57.2275 29.6193C57.1707 29.9993 57.3139 30.0014 57.6174 30.0585C57.9979 30.1301 58.2349 30.3344 58.3874 30.702C58.0632 30.6388 57.6449 30.7149 57.5171 31.0634C57.2584 30.5906 56.3179 31.243 56.0136 31.3766C55.7878 31.4758 55.5251 31.6092 55.3357 31.378C55.2024 31.2152 55.2788 31.0194 55.2816 30.8747C55.2824 30.8293 55.3293 30.8267 55.325 30.759C55.3195 30.6727 55.2071 30.6382 55.2095 30.5412ZM58.6712 37.9759C58.5855 38.0083 58.1448 38.0265 58.1419 37.8805C58.1396 37.7515 58.9198 37.8815 58.6712 37.9759ZM57.9552 37.5036C57.6217 37.7091 57.2486 36.9847 57.126 36.7761C57.4758 36.8209 57.6466 36.5283 57.8527 36.3059C58.0487 36.7354 58.3464 36.5084 58.6596 36.365C59.0288 36.1958 59.4335 36.1945 59.8118 36.0587C59.9299 36.0163 60.0387 35.9533 60.1539 35.9048C60.2468 35.8701 60.3393 35.8346 60.4314 35.7981C60.4968 35.7391 60.5201 35.6664 60.501 35.5803C60.47 35.5079 60.4912 35.4622 60.5644 35.4434C60.6515 35.4693 60.7404 35.4845 60.8312 35.4885C60.9771 35.4596 61.1866 35.322 61.0106 35.1738C61.1991 35.0025 61.388 35.1728 61.5696 35.2478C61.5264 35.1248 61.4835 35.0018 61.4403 34.8788C61.5304 34.9171 61.7978 35.2907 61.825 35.2886C61.9979 35.2756 61.9799 35.0437 62.0792 34.9501C62.1365 35.0208 62.1529 35.5479 62.3782 35.3703C62.4746 35.2944 62.2671 35.0358 62.216 34.9769C62.4738 35.0351 62.6988 35.3429 62.7685 35.5818C62.6461 35.5995 62.533 35.5749 62.4291 35.5079C62.3626 35.8405 62.9785 35.7058 63.0781 35.8796C63.2734 36.2198 62.0034 36.4562 61.8379 36.4878C61.5068 36.5509 61.116 36.5744 60.8125 36.7212C60.5216 36.8617 60.4528 36.9019 60.1131 36.9282C59.7252 36.9583 59.3468 37.0861 58.9716 37.1856C58.6459 37.2719 58.244 37.3256 57.9552 37.5036ZM65.0438 25.3232C65.35 25.213 66.3815 24.6411 66.6441 24.8954C66.6164 24.8685 66.8335 25.317 66.8312 25.2888C66.8499 25.5221 66.8442 25.6159 66.557 25.7277C66.3514 25.8078 66.1722 25.6377 65.9872 25.7052C65.784 25.7794 65.9261 25.9108 65.8215 26.0025C65.7069 26.1031 65.4859 26.1466 65.3432 26.1906C64.994 26.2985 64.642 26.3886 64.2945 26.5048C63.5873 26.7413 62.8385 26.9613 62.1117 27.1285C61.5686 27.2535 60.6468 27.5641 60.1464 27.1973C60.0975 27.4058 59.9782 27.3773 59.8124 27.4076C59.6823 27.4314 59.4472 27.4958 59.3315 27.4992C59.1391 27.5048 58.6042 27.4543 58.6778 27.1845C58.6576 27.2588 59.0939 27.0044 59.0184 26.9885C59.2037 27.0276 59.1437 26.9343 59.2955 26.8823C59.4938 26.8146 59.701 26.8182 59.9034 26.7465C60.4138 26.5656 60.8419 26.3308 61.3805 26.2174C62.611 25.9586 63.8567 25.7503 65.0438 25.3232ZM15.7192 53.2046C15.6196 53.2073 15.542 52.924 15.8453 53.1263C15.8033 53.1524 15.7613 53.1785 15.7192 53.2046ZM13.3233 52.8381C13.1877 52.8728 13.1337 52.7971 13.1613 52.6112C13.3503 52.5365 13.4043 52.6121 13.3233 52.8381ZM11.4736 52.4587C11.4389 52.2929 11.5618 52.2556 11.6732 52.1811C11.662 52.4008 11.662 52.4008 11.4736 52.4587ZM6.81955 51.0947C6.63206 51.0535 6.38224 50.8701 6.33928 51.1779C6.30792 51.1067 6.14786 50.7714 6.21658 50.6938C6.25247 50.6532 6.38834 50.841 6.37388 50.8224C6.53797 50.4905 6.82083 50.8911 6.97892 51.0095C6.92583 51.0379 6.87264 51.0664 6.81955 51.0947ZM55.5659 14.4136C55.6306 14.2767 55.707 14.2333 55.7947 14.2833C55.6568 14.6034 55.19 14.777 55.5659 14.4136ZM58.8093 11.4087C58.9249 11.6255 58.751 11.7171 58.6268 11.8973C58.6995 11.7029 58.7498 11.5683 58.8093 11.4087ZM72.9057 32.5705C73.3227 32.5704 74.2111 32.3503 74.4626 32.827C74.629 32.503 74.8182 33.1105 74.9626 33.208C74.9788 33.219 75.0828 33.1394 75.1312 33.1687C75.2042 33.2129 75.2671 33.3331 75.3089 33.4046C75.4348 33.6201 75.489 33.8763 75.5588 34.1134C74.8304 34.1134 74.0835 33.9438 73.3556 33.8822C72.8779 33.8417 72.4096 33.8405 71.9312 33.8663C71.8361 33.8714 71.6473 33.84 71.566 33.8579C71.4834 33.8761 71.3337 34.0443 71.2426 34.0173C71.3841 34.2828 73.196 34.9257 73.3342 34.6317C73.1704 34.5326 72.8066 34.4565 72.8069 34.217C72.8072 33.9487 73.1482 33.9492 73.3289 33.957C73.7241 33.9743 74.386 34.1059 74.548 34.5168C74.6174 34.693 74.6388 35.1366 74.5625 35.3067C74.5132 35.4165 74.4298 35.5486 74.2977 35.5709C74.2435 35.58 74.1655 35.5079 74.1572 35.5097C73.886 35.5672 73.3842 35.785 73.0884 35.478C72.8752 35.7539 71.848 35.4525 71.5335 35.3484C70.9835 35.1663 70.2262 34.9163 69.8921 34.4031C69.4849 33.7776 70.3128 33.249 70.7881 32.9947C71.4379 32.6473 72.1803 32.5708 72.9057 32.5705ZM75.6812 34.0167C75.8091 34.0528 75.9369 34.089 76.0647 34.125C76.0305 34.3492 75.5262 34.1718 75.6812 34.0167ZM79.5459 42.1648C79.5852 41.2667 79.3255 40.4757 79.1756 39.6071C79.1385 39.3918 79.1764 39.0154 79.0128 38.8383C78.8566 38.669 78.5079 38.8066 78.494 38.5074C78.3401 38.6876 78.3557 38.7252 78.166 38.518C78.2006 38.6068 78.2056 38.6972 78.1811 38.7892C78.0634 38.7218 77.6369 38.4978 77.6728 38.8041C77.3221 38.7265 77.4236 38.5072 77.2236 38.3397C77.1952 38.3159 77.081 38.4004 77.0365 38.3644C76.956 38.2992 76.9162 38.24 76.8484 38.1561C76.7622 38.2603 76.6448 38.3356 76.5394 38.418C76.4781 38.2846 76.3589 38.1866 76.2155 38.1542C76.3495 38.4346 76.6809 38.7978 76.2264 38.9573C75.9552 39.0525 75.5109 38.9358 75.2236 38.958C74.1589 39.0406 72.9927 38.8085 71.9632 38.5548C70.9056 38.2943 69.8361 37.9265 68.885 37.3889C68.6823 37.2743 68.5546 37.1386 68.38 36.9964C68.2103 36.8582 68.0869 36.8364 67.8829 36.748C67.5157 36.5889 67.1799 36.3338 66.9006 36.0495C66.2999 35.438 65.7419 34.6384 65.9091 33.7433C66.0759 32.8511 66.6892 32.1538 67.3454 31.5663C68.1204 30.8724 68.9956 30.293 69.9242 29.8259C70.3395 29.6172 71.4017 28.8328 71.812 29.2918C72.0742 29.5849 71.9267 29.959 71.5685 30.0242C71.4801 30.0403 71.3878 29.9811 71.2984 30.0217C71.1696 30.0803 71.2149 30.1495 71.1617 30.1983C71.0694 30.2832 70.9713 30.4155 70.8334 30.489C70.3519 30.7457 69.8865 30.9492 69.4263 31.2618C69.2141 31.4058 69.0099 31.4678 68.8229 31.5935C68.6369 31.7185 68.5946 31.9253 68.3445 31.7977C68.4336 32.1615 67.8987 32.551 67.6891 32.7739C67.3644 33.119 66.9751 33.5594 67.1266 34.07C67.4232 35.0695 68.7633 35.8286 69.6209 36.2679C70.6912 36.8161 71.8715 37.2526 73.0631 37.4332C73.6556 37.5229 74.2679 37.5784 74.8648 37.6353C75.3295 37.6796 76.0427 37.5173 76.3771 37.9358C76.3874 37.4478 77.9117 37.4909 78.2361 37.4284C77.5857 35.205 76.3084 33.2282 74.943 31.3813C74.2729 30.4746 73.6148 29.5422 72.851 28.711C72.0147 27.8011 71.0593 26.9879 70.1515 26.1507C68.3711 24.5085 66.3574 23.0429 64.3083 21.7519C62.2639 20.4638 60.1467 19.1962 57.907 18.2778C55.3489 17.229 52.6557 16.5391 49.9596 15.9515C50.3254 15.4855 50.9203 15.2582 51.3885 14.9173C51.5525 14.7979 51.7741 14.5114 51.9871 14.4723C52.2177 14.4298 52.3993 14.678 52.5635 14.8025C53.0347 15.16 53.3607 15.0082 53.9004 14.9867C54.2234 14.9738 54.9882 15.1536 55.1243 14.7168C55.3054 14.9579 55.0428 15.1512 54.9084 15.3279C55.0063 15.4644 55.0851 15.3228 55.1818 15.3015C55.2115 15.2768 55.2412 15.252 55.271 15.2274C55.319 15.1579 55.3623 15.1576 55.4007 15.226C55.4583 15.3127 55.5163 15.2935 55.5747 15.1684C55.5907 15.1583 55.6067 15.1482 55.6227 15.1382C55.6925 15.101 55.7598 15.0422 55.8247 14.9959C56.3152 14.6454 56.7523 14.3468 57.2938 14.0887C57.7485 13.872 57.504 13.4574 57.8037 13.1646C57.8716 13.0983 57.9857 13.1316 58.0583 13.0754C58.1292 13.0203 58.14 12.9577 58.1918 12.8987C58.3163 12.7566 58.1681 12.5917 58.4858 12.7656L58.3712 12.1206C58.9942 12.725 58.9918 10.9856 59.0769 10.7283C59.0657 10.7623 59.1329 10.4989 59.1328 10.5011C59.151 9.97919 59.2223 9.60087 58.611 9.57059C58.8424 9.42498 58.9132 9.70931 59.0201 9.41495C59.0736 9.26748 58.9065 9.01402 59.1728 9.10909C59.2289 8.79567 59.1735 8.54201 59.1036 8.23743C59.0321 7.92567 59.0742 7.71764 59.0774 7.40588C59.081 7.05224 58.9155 6.69683 58.8625 6.3486C58.821 6.07587 58.8638 5.64574 58.5112 5.74592C58.4617 5.66835 58.6358 5.42974 58.6287 5.31176C58.6177 5.1285 58.4188 4.94229 58.3624 4.76631C58.2796 4.85184 58.1628 4.88036 58.05 4.84172C58.1559 4.60261 58.0565 4.52229 57.9551 4.31612C57.897 4.19805 57.9321 4.06768 57.8078 3.98307C57.7365 3.9345 57.615 4.0163 57.5591 3.95938C57.4394 3.83747 57.4836 3.67574 57.4012 3.51509C57.2979 3.31364 57.0618 3.15978 56.8992 3.00857C55.9848 2.15863 54.9916 1.50906 53.7752 1.17695C52.5482 0.841894 51.1176 0.721851 49.8946 1.10833C49.4058 1.26278 48.9719 1.24695 48.5319 1.53541C48.3892 1.62901 48.3739 1.60394 48.3015 1.75996C48.2847 1.79634 48.4366 1.89318 48.3436 1.95266C48.2426 2.01725 48.131 1.88591 48.0795 1.77687C47.443 2.23758 46.8466 2.85176 46.4841 3.55599C46.1239 4.25576 46.0908 5.07787 45.9533 5.83834C45.3189 5.11356 44.4608 4.76611 43.5278 5.11454C42.7147 5.41814 42.0846 6.08551 41.9255 6.95009C41.8285 7.47716 41.9345 8.01091 42.1739 8.48646C42.2774 8.69194 42.4027 8.91945 42.5931 9.05778C42.7436 9.1671 43.0014 9.15176 43.0723 9.34898C43.1809 9.65111 42.5534 10.3036 42.3905 10.5681C42.0959 11.0467 41.8221 11.5409 41.6137 12.0637C40.8664 11.0081 40.151 9.85511 39.3013 8.88179C38.4993 7.96313 37.5433 7.13925 36.6057 6.36275C34.6596 4.75117 32.6361 3.23715 30.4592 1.95325C28.4322 0.757737 25.9838 0.0940094 23.6214 0.328688C21.3133 0.558058 19.5462 2.01784 18.0592 3.70149C15.1999 6.93869 13.4488 11.5527 13.2777 15.862C13.2263 17.1565 13.3249 18.4341 13.6446 19.6897C13.7969 20.2876 13.7748 20.8756 13.8633 21.4811C13.9631 22.1642 14.1359 22.8448 14.3029 23.514C14.9392 26.063 15.7499 28.61 16.6596 31.0746C17.1326 32.3563 17.7049 33.6092 18.4792 34.7393C18.8367 35.2614 19.3 35.6698 19.6848 36.1655C20.0581 36.6462 20.1567 37.2363 20.2388 37.8262C20.4356 39.2407 20.5662 40.6611 20.6846 42.0839C20.7348 42.6868 20.7935 43.2845 20.8733 43.8832C20.9429 44.4053 20.7678 44.3796 20.3287 44.5569C20.4177 44.0878 18.3195 44.407 18.1214 44.439C17.9058 44.4738 17.6775 44.4743 17.5077 44.502C17.3179 44.5329 17.132 44.5776 16.9134 44.5713C16.592 44.5621 15.9902 44.48 15.8675 44.8903C15.7831 44.4146 15.2252 44.9347 15.6379 44.8464C15.2143 44.8938 14.782 44.815 14.3533 44.8549C13.8619 44.9005 13.3663 44.944 12.8783 45.0179C12.5387 45.0693 12.2145 45.2002 11.8742 45.2381C11.4388 45.2868 10.9844 45.2823 10.5447 45.321C8.92301 45.4641 7.24211 45.8178 5.66572 46.2228C5.30864 46.3146 4.89837 46.3798 4.55721 46.527C4.46588 46.5664 4.38369 46.6545 4.29619 46.6883C4.1495 46.7449 4.16956 46.7058 4.03929 46.7317C3.25876 46.8878 2.45356 47.1426 1.67313 47.3426C1.24025 47.4536 0.536115 47.5536 0.183006 47.8558C0.0247183 47.9911 -0.113611 48.231 0.140043 48.3848C0.342671 48.5076 0.631875 48.3116 0.795865 48.2056C0.649768 48.5863 0.37423 48.7761 0.52304 49.2093C0.640527 49.5516 0.905781 49.9735 1.31389 49.7527C1.36855 49.8798 1.39067 50.1327 1.55161 50.1794C1.69624 50.2213 1.80094 50.0381 1.94262 50.0812C1.99335 50.0967 1.97408 50.1925 2.0195 50.2176C2.09776 50.2607 2.1771 50.2789 2.26676 50.3093C2.34384 50.3355 2.46791 50.3892 2.54834 50.3949C2.59936 50.3985 2.7196 50.3112 2.71921 50.3112C2.8364 50.329 2.89942 50.5532 2.98377 50.618C3.0933 50.7022 3.18375 50.7214 3.3209 50.7518C3.60601 50.8152 3.97352 50.9237 4.16169 50.6318C4.11863 50.8402 4.40207 50.8198 4.52713 50.8462C4.51327 50.7364 4.45261 50.6358 4.35901 50.5756C4.63862 50.594 4.52526 50.872 4.73192 50.9454C4.8792 50.9976 4.86248 50.8649 4.97515 50.8502C5.12361 50.8308 5.23628 50.9385 5.4681 50.8391C5.51834 51.0624 5.53673 51.2876 5.81093 51.3209C5.97187 51.3405 6.34714 51.0498 6.32591 51.2917C6.68545 51.1863 6.82191 51.2576 7.00979 51.5744C7.04154 51.3799 7.19521 51.4363 7.3362 51.4243C7.55967 51.4052 7.56537 51.4232 7.7386 51.2967C7.75443 51.2852 7.89069 50.973 7.95126 51.167C7.97849 51.2539 7.79847 51.4584 7.73182 51.5104C7.8146 51.5523 8.08585 51.6989 8.19016 51.672C8.28042 51.6487 8.28071 51.4944 8.38915 51.4865C8.36261 51.5751 8.33616 51.6639 8.30952 51.7526C8.5205 51.7833 8.69678 51.6421 8.86343 51.5387C9.0223 51.9404 9.47642 51.7141 9.72339 52.0164C9.85405 52.1763 9.86015 52.2978 10.1091 52.3396C10.3638 52.3824 10.5863 52.2706 10.8028 52.4807C10.7342 52.3503 10.5632 52.2422 10.7331 52.1021C10.8487 52.2662 10.9084 52.4638 11.0417 52.6164C11.0601 52.5388 11.0785 52.4613 11.0969 52.3836C11.4444 52.7553 11.8819 52.7586 12.3271 52.9646V52.6926C12.6458 53.1791 12.6628 52.8712 13.0436 52.6725C13.0177 52.8156 12.9918 52.9586 12.9659 53.1016C13.2399 53.0809 13.4959 53.4056 13.7209 53.1298C13.8568 53.3577 14.0214 53.2455 14.2441 53.3179C14.3708 53.3591 14.465 53.4837 14.5882 53.5289C14.773 53.5965 14.8281 53.5933 15.002 53.6522C15.1567 53.7045 15.2446 53.8064 15.4382 53.839C15.5639 53.8603 15.678 53.8587 15.7983 53.8529C15.8448 53.8506 15.8295 53.746 15.9328 53.7704C16.0926 53.8083 16.2115 54.0086 16.3265 54.1114C16.4996 53.6764 16.9841 54.259 17.2183 54.3366C17.2407 54.2251 17.2366 54.0907 17.3174 53.9991C17.4121 54.2067 17.4483 54.3813 17.6451 54.515C17.7586 54.5921 17.9253 54.6474 18.0565 54.6756C18.1394 54.6934 18.29 54.6721 18.3421 54.6976C18.431 54.7412 18.4637 54.8575 18.5535 54.8684C18.6063 54.8748 18.6845 54.7359 18.7241 54.7467C18.905 54.796 19.0054 55.0158 19.1881 55.1346C19.7317 55.4883 20.4158 55.5226 21.0214 55.6002C21.1734 55.6195 21.1954 55.578 21.3189 55.6672C21.3848 55.7149 21.3549 55.8598 21.4359 55.9004C21.7412 56.0534 21.7414 55.727 21.8054 55.5242C21.9063 55.6574 21.9237 55.8333 22.0619 55.9393C22.1373 55.9371 22.2128 55.9388 22.2881 55.9444C22.3306 55.9928 22.3585 56.0488 22.3715 56.1122C22.5543 56.2357 22.7615 56.1927 22.9503 56.2854C23.0123 56.3158 23.122 56.4996 23.1983 56.5523C23.3349 56.6469 23.546 56.6975 23.7021 56.7386C24.0293 56.8247 24.4984 56.7102 24.6931 57.0519C24.9516 56.7748 24.8516 57.1057 25.0271 57.1752C25.1307 57.2162 25.2865 57.0531 25.4014 57.0693C25.6084 57.0984 25.6829 57.3224 25.7492 57.4854C25.8752 57.4572 25.7887 57.1007 25.7852 57.0225C25.9418 57.004 25.9766 57.4164 26.0036 57.5071C26.2509 57.388 25.845 57.0175 26.1109 56.8986C26.0865 57.2143 26.3381 57.4743 25.8888 57.5195C25.9508 57.7096 27.4 57.9208 27.5007 57.753C27.523 58.0633 27.7314 57.7734 27.8083 57.6672C27.817 57.8482 27.7553 58.1051 27.9584 58.1893C28.0965 58.2464 28.4077 58.0987 28.4619 57.9634C28.5237 58.17 28.6274 58.1633 28.7562 58.2946C28.8446 58.3848 28.9029 58.5411 28.9958 58.6166C29.1665 58.7555 29.4842 58.7343 29.6832 58.7032C30.0725 58.6424 30.0265 58.5678 30.1652 58.9725C30.1966 58.8189 30.2949 58.4977 30.4664 58.7365C30.5755 58.8882 30.3432 59.2226 30.276 59.3558C30.426 59.2734 30.575 59.1757 30.7457 59.1402C30.7552 59.1928 30.764 59.3044 30.7388 59.3531C30.7439 59.3432 30.926 59.4653 30.9935 59.4992C30.9773 59.491 31.0469 59.187 31.0449 59.1969C31.2851 59.3452 31.1185 59.6286 31.3312 59.7748C31.3862 59.8127 31.5152 59.7685 31.5816 59.7915C31.6974 59.8317 31.7974 59.9401 31.9003 60.0035C31.8182 59.8934 31.83 59.7086 31.8356 59.5814C31.8879 59.6103 31.9253 59.7185 31.9781 59.7271C31.998 59.7303 32.205 59.7577 32.2036 59.7567C32.419 59.9076 32.3747 59.9265 32.1897 60.1079C32.2558 60.2117 32.532 60.0313 32.6067 60.0013C32.6223 60.042 32.6263 60.1894 32.6557 60.2158C32.6735 60.2594 32.6914 60.3031 32.7093 60.3467C32.7645 60.3056 32.8237 60.2919 32.8868 60.3055C32.9267 60.3194 33.2383 60.4461 33.2594 60.4028C33.1913 60.3807 33.1294 60.3469 33.0742 60.3014C33.254 60.1398 33.3723 60.0538 33.5379 60.2873C33.5588 60.3166 33.4871 60.4222 33.5083 60.4606C33.5875 60.6033 33.7501 60.7169 33.8605 60.8332C33.9062 60.6726 33.7998 60.2706 34.0537 60.2853C34.2565 60.2969 34.4108 60.7883 34.3406 60.9411C34.4212 60.8529 34.9025 60.7653 34.9934 60.7928C35.2503 60.8707 35.1782 61.1082 35.4943 60.7601C35.7098 60.9089 35.5199 60.9652 35.5587 61.1465C35.6156 61.1584 35.6695 61.1444 35.7205 61.1043C35.6824 61.8748 36.2509 61.2861 36.6201 61.4038C36.765 61.45 36.8021 61.6145 36.9576 61.6626C37.0399 61.688 37.1315 61.6279 37.2115 61.6425C37.2756 61.6334 37.3393 61.6221 37.4026 61.6086C37.4828 61.5684 37.5205 61.6133 37.5156 61.7435C37.6446 61.8104 37.5958 61.8365 37.7466 61.8495C37.8437 61.8579 37.9331 61.7569 38.0435 61.7741C38.234 61.804 38.2088 61.9502 38.3305 62.0265C38.44 62.0954 38.5635 62.0931 38.6984 62.0798C38.7671 62.073 38.9601 61.9845 38.9833 61.9842C39.1274 61.9822 39.0493 61.9515 39.2223 62.0753C39.357 62.1719 39.4135 62.2344 39.5789 62.2788C39.7686 62.3297 40.105 62.4408 40.2326 62.3038C40.405 62.5622 40.5399 62.3725 40.7674 62.3896C40.8839 62.3985 40.9023 62.4438 41.006 62.4619C41.1739 62.4912 41.3834 62.4658 41.562 62.5231C41.8435 62.6136 41.8753 62.659 42.1629 62.6712C42.2148 62.6509 42.2668 62.6306 42.3186 62.6103C42.3341 62.697 42.3749 62.7677 42.4411 62.8224C42.602 62.8561 42.7077 62.7749 42.8404 62.686C42.9393 62.994 43.2602 63.0209 43.5347 63.0614C43.9776 63.1268 44.4012 63.1625 44.8283 63.3081C45.189 63.431 45.5504 63.569 45.8973 63.7264C46.2027 63.8649 46.4909 64.0721 46.8364 63.9749C47.6191 63.7544 48.3777 62.9509 49.0326 62.4895C49.8083 61.9431 50.6449 61.4928 51.4554 61.0015C54.6821 59.0456 58.091 57.3911 61.2725 55.3624C63.0094 54.2549 64.6211 52.939 66.4864 52.0429C66.2209 53.1402 65.7688 54.2541 65.8505 55.4029C65.8834 55.8659 66.0197 56.4128 66.3788 56.736C66.8227 57.1357 67.3171 56.8812 67.7416 56.5957C68.6513 55.9841 69.258 55.0916 69.9388 54.2535C70.7441 53.2621 71.3687 52.197 71.9601 51.067C72.1017 51.2659 71.994 51.5991 71.996 51.8196C71.9988 52.101 72.0747 52.3722 72.2052 52.6234C72.542 53.2717 73.183 53.4289 73.7622 52.9847C74.8769 52.1298 75.5238 50.6074 76.1211 49.3814C76.4617 50.0152 76.9452 50.8129 77.7633 50.3603C78.4383 49.9868 78.835 49.1522 79.0414 48.4453C79.6443 46.3818 79.4533 44.2799 79.5459 42.1648Z"
        fill="#3A3A3A" />
    <path fill-rule="evenodd" clip-rule="evenodd"
        d="M78.5221 29.7705C78.4451 29.5835 78.4113 29.6141 78.5529 29.4328C78.6632 29.5414 78.5749 29.6312 78.5221 29.7705ZM81.9336 41.0879C81.7172 40.4724 81.8509 39.8041 81.7194 39.1728C81.6591 38.8831 81.5638 38.6022 81.5295 38.3073C81.5142 38.1765 81.3977 37.5875 81.4771 37.4947C81.2329 37.3469 81.2321 37.2374 81.1756 36.9475C81.2626 36.8552 81.2517 36.7764 81.1428 36.7111C81.0716 36.6249 81.0003 36.5387 80.9291 36.4526C81.2406 36.6049 81.0563 36.2151 81.0245 35.9904C80.9994 35.8129 80.9824 35.6276 80.9233 35.4574C80.8504 35.2482 80.6884 35.1424 81.0254 35.1424C80.9145 35.0163 80.7487 34.8861 80.6934 34.7317C80.614 34.5094 80.745 34.2156 80.583 34.0193C80.4926 33.9098 80.0269 33.8669 80.1086 33.6304C80.1502 33.5098 80.339 33.5998 80.3974 33.5153C80.6269 33.1834 79.9492 33.0459 79.9159 32.9047C79.8729 32.7216 80.1177 32.6807 80.1327 32.5096C80.1474 32.342 79.8869 32.0667 79.8181 31.9169C79.7243 31.9397 79.6215 32.0881 79.5141 32.0172C79.4938 32.0038 79.5243 31.4239 79.4999 31.3469C79.476 31.2712 79.4269 31.0704 79.4094 31.0333C79.3399 30.8857 79.141 30.8138 79.1094 30.6395C79.0906 30.5355 79.4982 30.378 79.0307 30.3731C79.1986 30.0771 78.891 29.8973 78.779 29.6445C78.6351 29.3193 78.5502 28.9681 78.4024 28.6413C78.2586 28.3237 78.0979 28.0223 77.8906 27.7414C77.703 27.487 77.6219 27.2424 77.472 26.9738C77.442 26.9502 77.412 26.9266 77.382 26.903C77.257 26.9211 77.2169 26.8642 77.2617 26.7322C77.166 26.5905 77.095 26.4393 77.0106 26.2913C76.9126 26.1194 76.7803 25.9792 76.6791 25.8119C76.5447 25.5902 76.505 25.3402 76.3531 25.1178C76.1664 24.8442 75.9564 24.6029 75.7832 24.3191C75.5664 23.9635 75.3262 23.7425 75.0532 23.4671C74.9234 23.3359 74.9077 23.0084 74.7486 22.8222C74.5752 22.6193 74.4041 22.5644 74.2839 22.2981C74.1276 21.9518 73.8982 21.7864 73.675 21.487C73.4907 21.2401 73.4008 20.9562 73.1978 20.7173C73.0233 20.5121 72.8252 20.3246 72.6389 20.1301C72.4037 19.8844 72.2301 19.5858 71.9853 19.3522C72.0206 19.3859 71.7723 19.1891 71.7848 19.1954C71.7298 19.1674 71.5524 19.1449 71.5783 19.1601C71.2088 18.9429 70.7459 18.148 70.1899 18.5692C69.8974 18.7907 70.0377 19.197 70.2419 19.4176C70.3296 19.5124 70.7853 19.9796 70.8837 19.7825C70.99 19.9332 71.3173 20.6613 71.5895 20.4527C71.5618 20.7015 71.7059 20.6189 71.8011 20.7871C71.8637 20.8981 71.8332 20.9526 71.8788 21.1258C72.0044 21.6021 72.4834 22.0672 72.7385 22.4825C73.3735 23.5161 74.074 24.4964 74.7096 25.5311C75.3154 26.5173 75.9937 27.4531 76.5749 28.4526C77.2358 29.5891 78.0593 30.6619 78.5573 31.8871C78.5741 31.9283 78.7124 31.9935 78.7468 32.0553C78.8066 32.1628 78.7937 32.3486 78.8323 32.4703C78.9659 32.8923 79.1825 33.3077 79.4293 33.6572C79.6458 33.9638 79.6615 34.3806 79.8104 34.7403C80.0205 35.2473 80.2424 35.7491 80.4465 36.2586C80.7642 37.0517 80.9794 37.8119 81.1989 38.6399C81.3412 39.1765 81.4544 39.7128 81.4997 40.2669C81.5414 40.7765 81.5516 41.3073 81.7402 41.7897C81.8688 41.5911 82.0203 41.3339 81.9336 41.0879Z"
        fill="#3A3A3A" />
    <path fill-rule="evenodd" clip-rule="evenodd"
        d="M9.26512 52.0069C9.03684 51.9608 8.82202 51.8993 8.77365 51.6371C8.74051 51.7607 8.70748 51.8843 8.67435 52.0079C8.95228 52.0708 9.23032 52.1338 9.50826 52.1968C9.44337 52.0824 9.39598 52.0334 9.26512 52.0069Z"
        fill="#3A3A3A" />
    <path fill-rule="evenodd" clip-rule="evenodd"
        d="M9.87776 8.98988C9.89506 8.91594 9.91748 8.84349 9.9451 8.7728C9.96388 8.84172 10.0559 8.99076 10.0023 9.05575C9.93409 9.13823 9.86507 9.09153 9.87776 8.98988ZM10.9969 6.86056C11.0718 6.8936 11.2339 6.89999 11.3269 6.92791C11.0857 7.13545 11.0432 7.0744 10.7312 7.05031C10.7174 6.84031 10.8027 6.77513 10.9969 6.86056ZM8.90561 12.0593C8.93796 12.0602 8.9704 12.061 9.00295 12.0617C9.00491 11.9703 9.00255 11.879 8.99567 11.7877C9.32463 11.8596 9.13843 11.2848 9.0351 11.1656C9.356 11.1763 9.51232 10.1603 9.61398 9.96457C9.70423 9.79075 9.80648 9.72351 9.87245 9.51154C9.93016 9.32602 9.99259 9.15908 10.0759 8.98358C10.2672 8.5801 10.5182 8.21368 10.4719 7.74343C10.634 8.09629 10.7766 7.74402 10.8794 7.57531C11.0451 7.30347 11.4492 6.95662 11.4922 6.63375C11.5301 6.34952 11.319 6.33448 11.4436 6.07089C11.5697 5.80407 11.6733 5.83081 11.8941 5.74547C12.041 5.68864 12.0702 5.75766 12.1738 5.57224C12.241 5.4522 12.2173 5.36273 12.3033 5.26431C12.3388 5.29519 12.3792 5.30797 12.4244 5.30266C12.4942 5.21054 12.54 5.1079 12.5618 4.99473C12.6187 4.84195 12.6462 4.70166 12.7319 4.55615C12.8133 4.41831 12.9576 4.04953 13.0341 3.98306C13.1153 3.91247 13.5759 3.94835 13.5739 3.95091C13.7642 3.71161 13.415 3.4732 13.8985 3.52363C13.803 3.34588 14.1384 3.12526 14.2357 3.02635C14.4788 2.77948 14.4982 2.66524 14.5495 2.35476C14.5756 2.19647 14.4055 2.21476 14.6335 2.17868C14.7278 2.16383 14.8182 2.28437 14.8862 2.26667C15.1866 2.1888 14.8724 2.20365 14.9553 2.08125C14.9814 2.04241 15.115 1.8857 15.1137 1.88737C15.1072 1.89523 15.1438 1.75101 15.1741 1.71394C15.2315 1.70903 15.2881 1.699 15.3436 1.68386C15.3718 1.62683 15.3968 1.56843 15.4184 1.50866C15.6358 1.32737 15.961 1.24626 16.1113 1.04707C16.2086 0.918275 16.1795 0.792136 16.3051 0.663737C16.4248 0.541432 16.5831 0.630014 16.6068 0.353748C16.6369 0.00227091 16.2594 -0.154149 16.105 0.200573C15.6861 -0.315288 13.9355 1.57738 13.7333 1.82464C12.8548 2.89805 11.9914 3.998 11.2709 5.18497C10.5688 6.34156 9.99259 7.5585 9.54221 8.83414C9.32503 9.44921 9.19279 10.0615 9.06017 10.6977C9.01563 10.9108 8.68283 11.8602 8.82136 12.0727C8.84938 12.0682 8.8775 12.0637 8.90561 12.0593Z"
        fill="#3A3A3A" />
    <path fill-rule="evenodd" clip-rule="evenodd"
        d="M78.0513 38.3823C78.1993 38.2836 78.1993 38.2836 78.2252 38.097C78.0268 38.1332 78.0268 38.1332 78.0513 38.3823Z"
        fill="#3A3A3A" />
    <path fill-rule="evenodd" clip-rule="evenodd"
        d="M5.11761 50.9304C5.11965 50.9302 5.12116 50.9308 5.12235 50.9319C5.1189 50.9275 5.1064 50.9145 5.11761 50.9304Z"
        fill="#3A3A3A" />
    <path fill-rule="evenodd" clip-rule="evenodd"
        d="M5.018 51.0297C5.06372 51.1285 5.13716 51.1531 5.23842 51.1033C5.27834 51.1603 4.89215 50.7475 5.018 51.0297Z"
        fill="#3A3A3A" />
    <path fill-rule="evenodd" clip-rule="evenodd"
        d="M11.6962 5.93298C11.4644 6.3873 11.7547 6.05686 11.7398 6.20443C11.7496 6.10749 11.7898 5.96936 11.6962 5.93298Z"
        fill="#3A3A3A" />
    <path fill-rule="evenodd" clip-rule="evenodd"
        d="M49.3697 12.9647C49.4701 13.7794 50.5846 13.3941 50.8353 12.9013C51.0179 12.5426 51.4789 11.1249 50.9829 10.8255C50.6152 10.6035 50.5366 11.5603 50.446 11.774C50.2941 12.132 50.1754 11.8783 49.8377 11.9702C49.465 12.0715 49.3282 12.6269 49.3697 12.9647Z"
        fill="#3A3A3A" />
    <path fill-rule="evenodd" clip-rule="evenodd"
        d="M48.152 11.4735C48.5504 11.562 48.9409 11.5164 49.2238 11.2018C49.3805 11.0276 49.5891 10.682 49.3069 10.5134C49.0512 10.3607 48.7613 10.7183 48.492 10.6443C48.1257 10.5438 48.3143 10.1511 48.1887 9.89172C47.727 10.1576 47.4694 11.3219 48.152 11.4735Z"
        fill="#3A3A3A" />
    <path fill-rule="evenodd" clip-rule="evenodd"
        d="M48.5651 13.5306C48.1811 13.5298 48.1779 14.0021 48.3784 14.2045C48.5702 14.3982 49.0553 14.5943 49.3154 14.4436C49.8284 14.1463 48.8759 13.5613 48.5651 13.5306Z"
        fill="#3A3A3A" />
    <path fill-rule="evenodd" clip-rule="evenodd"
        d="M26.2211 32.3125C26.3031 32.3523 26.5448 32.5572 26.6466 32.4647C26.5029 32.3199 26.359 32.175 26.2153 32.0302C26.1359 32.1173 26.0814 32.2446 26.2211 32.3125Z"
        fill="#3A3A3A" />
    <path fill-rule="evenodd" clip-rule="evenodd"
        d="M24.4063 11.5914C24.3655 11.6218 24.3246 11.6522 24.2838 11.6826C24.4215 11.7973 24.4181 11.8315 24.5569 11.7228C24.5157 11.6685 24.4655 11.6248 24.4063 11.5914Z"
        fill="#3A3A3A" />
    <path fill-rule="evenodd" clip-rule="evenodd"
        d="M50.4333 38.6197C50.3561 38.4811 50.2103 38.7367 50.1117 38.7783C49.9512 38.8459 49.8196 38.488 49.8656 38.9169C49.5029 38.7509 49.2828 39.1319 49.0489 39.3303C48.7185 39.6107 48.3143 39.7627 48.0939 40.1609C49.1314 40.4037 50.2714 39.5092 51.045 38.9217C51.1712 38.8257 51.8022 38.3417 51.3746 38.2949C51.1997 38.2758 50.5631 38.8527 50.4333 38.6197Z"
        fill="#3A3A3A" />
    <path fill-rule="evenodd" clip-rule="evenodd"
        d="M50.1255 37.7799C50.3289 37.6198 49.8905 37.6052 49.8212 37.5884C49.8272 37.7157 49.833 37.8429 49.839 37.9702C49.9371 37.9108 50.0326 37.8472 50.1255 37.7799Z"
        fill="#3A3A3A" />
    <path fill-rule="evenodd" clip-rule="evenodd"
        d="M49.3621 38.3138C49.4229 38.2759 49.5923 38.1574 49.477 38.0691C49.3729 38.1354 49.2985 38.2435 49.2822 38.3669C49.3088 38.3492 49.3355 38.3315 49.3621 38.3138Z"
        fill="#3A3A3A" />
    <path fill-rule="evenodd" clip-rule="evenodd"
        d="M32.5588 27.9899C32.4289 28.0408 32.3707 28.1213 32.3844 28.2316C32.584 28.1908 32.5459 28.0024 32.5588 27.9899Z"
        fill="#3A3A3A" />
</svg>
