<svg width="215" height="244" viewBox="0 0 215 244" fill="none" xmlns="http://www.w3.org/2000/svg">
    <path fill-rule="evenodd" clip-rule="evenodd"
        d="M203.246 163.621C204.25 165.152 205.254 166.682 206.309 168.177C206.464 168.397 206.623 168.618 206.783 168.841C208.277 170.926 209.877 173.159 209.853 175.811C209.841 177.115 209.652 178.556 208.395 179.256C208.366 178.749 207.639 179.251 207.395 179.419C207.38 179.429 207.367 179.438 207.357 179.445C206.921 179.742 206.834 179.868 206.725 179.892C206.624 179.915 206.504 179.85 206.068 179.754C205.52 179.633 205.001 179.618 204.496 179.604C203.648 179.58 202.837 179.557 201.985 179.033C201.161 178.527 200.34 178.016 199.519 177.506C197.47 176.232 195.423 174.958 193.328 173.752C186.986 170.099 180.707 166.359 174.823 161.994C171.562 159.574 168.211 157.234 164.855 154.89C157.625 149.842 150.367 144.773 143.912 138.845C134.468 130.171 124.556 121.566 113.348 115.222C113.18 115.127 112.942 115.021 112.675 114.903C111.751 114.493 110.488 113.932 110.642 113.145C110.772 112.482 111.88 111.622 112.718 110.971C113.004 110.749 113.259 110.551 113.432 110.394C114.267 109.638 115.114 108.895 115.961 108.153C117.506 106.801 119.049 105.448 120.518 104.01C124.716 99.8975 128.882 95.3591 132.249 90.5341C133.723 88.4222 134.547 86.0975 135.394 83.7087C135.488 83.4423 135.583 83.1755 135.679 82.9077C136.523 80.5519 137.303 77.6519 135.933 75.3216C135.299 74.2419 134.423 73.8041 133.199 73.886C133.037 73.8968 132.902 73.9111 132.788 73.9232C132.188 73.9873 132.166 73.9894 131.829 73.086C131.776 72.9436 131.724 72.7983 131.671 72.6521C131.298 71.6083 130.902 70.5036 129.885 69.916C128.784 69.2804 128.005 69.8474 127.134 70.4809C127.054 70.5394 126.973 70.5983 126.89 70.6568C126.708 70.3928 126.518 70.0971 126.319 69.7865C125.299 68.1966 124.028 66.217 122.14 66.0875C119.797 65.9269 118.46 68.8033 117.645 70.5579L117.63 70.5892C115.223 75.7681 112.092 80.6056 108.724 85.2174C105.073 90.2165 101.341 95.3016 97.319 100.009C97.1354 100.224 96.9463 100.46 96.7506 100.705C96.0394 101.593 95.2419 102.59 94.3008 103.064C93.0701 103.685 92.0486 103.102 91.0083 102.388C90.4378 101.997 89.8708 101.603 89.3049 101.21C87.4378 99.9128 85.578 98.621 83.6193 97.4397C81.4548 96.1337 79.2436 94.9119 77.0317 93.6898C76.3547 93.3158 75.6776 92.9414 75.0016 92.5649C74.497 92.2839 74.0024 91.9798 73.5079 91.6754C72.7556 91.2129 72.0027 90.7501 71.2117 90.3659C70.5141 90.027 69.781 89.786 69.0476 89.5447C68.4969 89.3636 67.946 89.1825 67.41 88.9596C71.7094 87.6779 76.2237 89.1693 80.349 90.5317C80.6287 90.6243 80.907 90.7159 81.1828 90.8065C83.4382 91.5445 85.7971 92.3131 88.205 92.1146C90.2877 91.9432 92.1778 90.8281 93.8251 89.6102C96.8028 87.4084 97.0365 84.1015 96.0655 80.7592C95.4087 78.4968 94.5467 76.2856 93.6858 74.0758C93.0826 72.5281 92.4797 70.981 91.9479 69.418C91.3607 67.6919 90.956 65.859 92.2931 64.3677C93.4894 63.0331 95.0375 62.8691 96.6702 63.3943C96.8325 63.4465 96.9937 63.4984 97.1546 63.5503C100.918 64.764 104.315 65.8593 108.385 65.7434C111.703 65.649 115.924 64.7073 118.159 62.0109C119.385 60.5329 119.431 58.5007 119.436 56.6674C119.442 54.4945 119.305 52.3094 119.001 50.1585C118.884 49.3327 118.727 48.5063 118.571 47.6812C117.999 44.6718 117.431 41.6756 118.816 38.7512C119.23 37.8773 120.382 35.8417 121.522 35.7198C122.753 35.5881 123.043 37.0634 123.225 37.9891C123.247 38.1013 123.267 38.2054 123.288 38.2974C123.476 38.1786 123.657 38.142 123.818 38.1096C124.111 38.0504 124.336 38.0052 124.413 37.4988C125.59 38.732 126.604 40.0927 127.618 41.4548C128.053 42.0399 128.489 42.625 128.938 43.2007C129.577 44.0198 130.376 44.7641 131.175 45.5091C132.169 46.4348 133.164 47.3608 133.85 48.4314C134.55 49.5212 134.018 50.986 133.519 52.3596C133.267 53.0533 133.024 53.7234 132.952 54.3103C132.71 56.2811 133.225 58.5365 134.571 60.0393C135.2 60.7418 135.97 61.2301 136.901 61.4189C137.396 61.5192 137.879 61.4105 138.344 61.3053C138.75 61.2141 139.143 61.1256 139.522 61.1792C140.095 61.2604 140.204 61.5944 140.367 62.0994C140.396 62.1896 140.428 62.2854 140.463 62.386C140.786 63.2971 141.199 64.1573 141.962 64.7975C142.281 65.0649 142.609 65.261 142.929 65.4526C143.464 65.7723 143.975 66.0781 144.382 66.6788C144.523 66.8864 144.648 67.0922 144.771 67.2932C145.144 67.9047 145.49 68.4728 146.153 68.9106C146.456 69.1105 146.805 69.2745 147.156 69.4389C148.166 69.9125 149.181 70.3883 149.087 71.7344L149.693 71.2527C150.161 72.7583 150.806 74.2161 151.494 75.6319C151.817 76.2953 151.983 76.6478 151.966 77.3858C151.962 77.5449 151.931 77.6912 151.901 77.833C151.84 78.1238 151.782 78.394 151.976 78.7106C152.227 79.1198 152.706 79.2766 153.181 79.4322C153.58 79.5628 153.976 79.6927 154.233 79.9707C154.511 80.2716 154.516 80.6237 154.521 80.9692C154.527 81.3411 154.533 81.7047 154.878 81.9868C154.597 82.0732 153.819 82.7022 154.112 83.0842C154.366 83.4158 154.478 83.2726 154.592 83.1274C154.667 83.032 154.743 82.9355 154.859 82.9714C155.225 83.0835 155.352 83.381 155.474 83.6672C155.578 83.9121 155.679 84.1489 155.923 84.2548C156.033 84.3028 156.023 83.7822 156.017 83.6599C157.606 86.7923 159.337 89.8487 161.068 92.9048C163.321 96.8818 165.573 100.858 167.51 104.998C173.605 118.028 180.852 130.716 188.866 142.668C189.495 143.606 190.145 144.542 190.795 145.48C192.101 147.362 193.413 149.253 194.579 151.188C195.687 153.025 196.966 154.731 198.247 156.44C198.998 157.441 199.75 158.443 200.467 159.472C201.419 160.838 202.332 162.23 203.246 163.621ZM156.016 83.6568C156.015 83.6237 156.016 83.6296 156.017 83.6599C156.017 83.6589 156.016 83.6578 156.016 83.6568ZM26.3054 73.1943C26.2866 73.4339 26.2675 73.6791 26.3489 73.957C26.4318 74.2412 26.6687 74.4547 26.9034 74.6661C27.0713 74.8176 27.2381 74.9677 27.3464 75.1422C28.2181 73.8588 28.1878 71.1103 27.656 69.7381C27.4049 69.0899 26.9299 68.2461 26.5537 67.677C26.4949 67.5882 26.3984 67.4913 26.3051 67.3977C26.202 67.2942 26.1031 67.195 26.0623 67.1142C25.9975 66.9853 25.9679 66.8101 25.938 66.6325C25.9059 66.4441 25.8739 66.2532 25.7983 66.1136C25.3755 65.3279 24.4502 65.1339 23.6369 65.2269C23.5495 65.237 23.4611 65.2467 23.3712 65.2565C22.6259 65.338 21.8113 65.4271 21.1461 65.7507C20.9392 65.8513 20.7633 65.9746 20.5948 66.0927C20.2026 66.3675 19.8519 66.6133 19.2515 66.4754C19.4667 66.8463 19.3013 67.118 19.1289 67.4015C19.0293 67.5655 18.9269 67.7334 18.8949 67.927C18.782 68.6048 19.0007 69.2122 19.4483 69.7266C20.2778 70.6801 21.4738 70.7637 22.6395 70.8452C22.7764 70.8546 22.9129 70.8644 23.0484 70.8752C24.1374 70.9629 25.4772 71.1433 26.1173 72.1638C26.3563 72.5451 26.3312 72.8645 26.3054 73.1943ZM31.2927 70.1737C31.8227 71.0824 33.0173 73.5085 32.9261 74.6449V77.5456C32.8289 78.5584 31.1175 80.2897 30.2339 81.1837C30.134 81.2847 30.0448 81.3749 29.9696 81.4522C28.1293 83.3465 26.1306 83.5889 23.4033 83.3472C21.0932 83.1424 18.1008 82.3724 16.537 80.5359C15.036 78.774 15.0572 76.0435 15.2794 73.8738C15.5894 70.8435 16.9188 68.0831 18.6901 65.6326C19.7276 64.1974 22.5664 60.8557 24.7337 61.5867C25.0534 61.6947 25.2982 61.981 25.5169 62.2363C25.557 62.2833 25.5963 62.3292 25.635 62.3731C25.8119 62.6026 25.9871 62.8332 26.1612 63.0651C26.2692 63.3699 26.4635 63.4597 26.7435 63.3351C26.9978 63.6872 27.2868 64.0104 27.5756 64.3329C28.1499 64.9751 28.7224 65.6148 29.0132 66.4754C29.2894 67.2932 29.863 68.0952 30.4196 68.8743C30.7351 69.3153 31.0451 69.7489 31.2927 70.1737Z"
        fill="#5FA1D5" />
    <path fill-rule="evenodd" clip-rule="evenodd"
        d="M127.421 237.261C128.998 236.644 130.942 236.932 132.595 236.962C134.671 237 136.753 237.157 138.823 237.319C142.798 237.631 146.752 237.499 150.73 237.871C152.706 238.055 154.682 238.226 156.658 238.394C158.389 238.541 160.399 239 162.126 238.67C162.84 238.533 164.765 237.862 164.408 236.818C164.133 236.012 161.965 235.515 161.259 235.286C159.599 234.746 157.884 234.359 156.205 233.877C155.342 233.63 154.483 233.364 153.576 233.45C152.805 233.523 151.993 234.098 151.212 234.032C150.058 233.934 149.462 232.484 148.615 231.845C147.267 230.826 146.267 231.37 145.233 232.493C144.469 233.323 143.741 234.578 142.487 234.653C140.891 234.747 140.58 233.379 141.285 232.219C141.933 231.15 143.699 230.054 143.794 228.722C143.853 227.88 142.507 225.627 141.732 225.307C140.429 224.768 138.586 226.195 137.408 226.633C135.35 227.397 133.249 228.073 131.166 228.764C129.74 229.236 127.626 229.277 127.356 230.947C127.02 233.038 127.43 235.161 127.421 237.261ZM45.8582 205.118C46.2726 204.2 46.7076 203.678 45.8794 202.826C45.4162 202.35 44.7629 202.115 44.307 201.621C43.6219 200.878 42.5485 198.848 44.0169 198.336C45.4204 197.847 46.6028 199.801 47.7322 200.23C49.1657 200.775 50.0538 199.862 50.259 198.492C50.5222 196.732 50.2325 194.893 50.4428 193.111C50.6483 191.364 51.2585 189.913 51.7266 188.241C52.0442 187.107 52.4325 185.965 50.9924 185.714C49.6718 185.483 48.1401 186.032 46.801 186.105C44.7124 186.22 42.5987 186.326 40.5275 186.639C38.215 186.988 38.2571 189.353 37.6765 191.286C36.2688 195.973 34.3812 200.572 33.5022 205.403C33.1232 207.487 34.1276 208.913 35.2971 210.552C36.7609 212.603 38.2839 214.648 39.9421 216.549C41.0492 217.817 42.2967 218.999 43.9089 219.582C45.7352 220.243 46.4332 219.51 46.0121 217.709C45.4556 215.333 44.6162 213.038 44.7151 210.563C44.7514 209.662 45.0133 208.693 44.3634 207.939C43.9127 207.416 43.1406 207.24 42.5524 206.921C41.5828 206.396 40.0807 204.706 41.9697 204.343C43.2527 204.095 44.6162 204.958 45.8582 205.118ZM89.4836 112.033C90.6363 113.321 91.8894 114.552 92.9823 115.889C93.6088 116.656 94.0529 117.578 94.7254 118.305C96.1982 119.896 97.6659 118.133 98.9702 117.101C104.1 113.046 108.927 108.652 113.814 104.311C116.142 102.243 118.62 100.336 120.911 98.2285C123.232 96.0939 125.165 93.595 127.339 91.3205C128.384 90.2283 129.634 89.1448 130.279 87.7496C130.829 86.5599 130.95 85.2657 131.577 84.0893C132.662 82.0519 134.652 79.6867 134.196 77.2227C132.852 78.6315 130.614 83.6797 128.269 81.3121C126.596 79.6223 128.305 77.1245 128.231 75.1543C126.642 75.8286 127.055 78.5625 125.361 79.0463C124.445 79.3082 123.661 78.4786 123.234 77.7514C122.495 76.4941 122.766 75.1784 123.102 73.8445C123.33 72.9355 124.789 69.9379 123.346 69.568C122.095 69.2473 121.047 71.5476 120.633 72.3626C119.873 73.8574 119.285 75.403 118.451 76.8654C117.012 79.3865 115.356 81.7952 113.776 84.2296C110.523 89.243 106.813 93.9489 102.997 98.5443C98.9207 103.453 94.5088 108.081 89.4836 112.033ZM125.622 127.98C125.458 132.396 121.663 135.745 118.379 138.201C114.183 141.339 110.313 144.906 105.308 146.692C103.382 147.38 100.976 147.181 100.204 149.35C99.9025 150.198 100.176 150.509 100.503 151.362C101.015 152.698 101.322 154.145 101.565 155.551C102.39 160.332 101.588 165.201 98.7149 169.181C97.1877 171.297 95.2363 173.096 93.2188 174.736C91.2061 176.372 89.3025 178.281 87.0836 179.634C82.3513 182.521 77.0941 184.178 71.6373 184.976C68.7993 185.391 65.9497 185.761 63.0834 185.907C61.597 185.983 60.1078 185.997 58.6206 185.932C57.9561 185.903 55.4851 185.341 55.0049 185.722C54.6354 186.015 54.4706 187.79 54.3968 188.279C54.2397 189.314 54.1161 190.335 53.9022 191.362C53.4728 193.422 52.8943 195.752 53.5271 197.83C53.7103 198.431 53.8587 198.92 54.4152 199.122C54.768 199.251 55.3932 199.025 55.7498 198.989C56.5568 198.906 57.3185 198.873 58.1299 198.959C60.7932 199.241 63.4084 199.922 66.0998 199.736C71.838 199.341 77.5817 198.937 83.2672 198.039C86.0329 197.603 88.6863 196.776 91.406 196.138C93.9982 195.53 96.589 194.915 99.0085 193.773C103.748 191.533 108.129 188.571 112.043 185.101C116.22 181.397 118.986 177.006 121.6 172.106C123.895 167.801 125.831 163.444 125.73 158.481C125.667 155.341 125.217 151.45 127.032 148.68C127.862 147.415 129.535 146.243 131.094 146.912C133.923 148.126 131.25 150.531 130.171 151.848C128.617 153.746 128.826 156.635 128.665 158.956C128.474 161.695 127.859 164.097 127.259 166.745C126.671 169.337 127.856 172.413 127.973 175.057C128.1 177.924 128.016 180.795 127.984 183.664C127.921 189.369 128.186 195.059 128.166 200.764C128.156 203.722 128.231 206.696 128.044 209.65C127.874 212.344 127.322 214.922 126.839 217.567C126.365 220.163 125.674 223.272 125.834 225.911C132.316 223.444 138.626 220.529 145.209 218.325C143.156 216.535 143.064 214.005 142.899 211.48C142.681 208.151 142.132 204.85 141.893 201.521C141.421 194.946 141.554 188.029 142.113 181.462C142.714 174.41 143.779 167.383 143.998 160.302C144.103 156.891 143.839 153.472 143.284 150.105C142.816 147.27 142.409 143.701 140.93 141.189C139.517 138.788 136.92 137.263 134.752 135.627C131.583 133.236 128.647 130.547 125.622 127.98ZM126.015 35.7542C126.826 36.8516 127.743 37.8644 128.714 38.8232C129.715 39.8126 130.141 39.5939 131.339 39.0795C133.722 38.0556 133.676 36.8715 132.346 34.8191C129.262 30.0582 128.091 24.3883 124.828 19.7249C121.612 15.1299 116.934 11.4174 112.024 8.76787C106.754 5.9246 101.043 5.01989 95.1036 5.10473C92.0681 5.1482 89.0134 5.35768 85.997 5.69781C83.0624 6.02842 80.4525 6.99136 77.612 7.71842C76.182 8.08428 74.7074 8.38787 73.3171 8.89067C72.0974 9.33162 71.0007 10.0127 69.7685 10.4247C67.0708 11.3261 64.356 12.3335 61.9219 13.8077C59.5422 15.2493 57.3982 16.7868 55.2368 18.5565C52.9985 20.3894 51.0544 22.5195 48.6339 24.1288C46.4304 25.594 44.6779 27.568 42.6798 29.285C40.5923 31.0793 38.667 33.2776 37.1008 35.5449C35.5695 37.7616 34.9868 40.63 34.0618 43.1299C32.985 46.0397 31.9168 49.1502 31.5111 52.2352C30.7553 57.9838 32.4518 64.703 34.609 70.0229C36.7428 75.2846 40.2008 79.6749 44.3268 83.5272C46.3381 85.4061 48.5329 87.1112 50.9921 88.3674C53.0956 89.4422 55.8386 91.3744 58.1282 90.0242C59.0553 89.4774 59.8079 88.8418 60.8795 88.5956C62.0511 88.3267 63.1987 88.4368 64.1442 87.5779C64.9481 86.8479 65.3326 85.9668 66.3878 85.5262C67.6392 85.0035 69.119 84.9084 70.4588 84.9126C73.4675 84.9227 76.478 85.6757 79.3495 86.5108C81.9811 87.276 84.1832 88.4301 86.9788 87.7308C89.0562 87.2112 92.3882 85.8296 92.836 83.4481C93.2362 81.3195 91.6916 78.5677 90.9139 76.663C89.8388 74.0308 88.865 71.4414 88.1897 68.674C87.6544 66.4813 86.814 62.9731 88.3249 60.9688C89.8095 58.9997 93.2418 59.0234 95.3742 59.5186C96.7719 59.8432 98.0566 60.4969 99.4549 60.8264C100.879 61.1621 102.353 61.3307 103.806 61.4954C108.842 62.0648 116.006 60.7773 115.738 54.3426C115.499 48.6076 112.339 42.8586 114.19 37.1166C114.944 34.7762 116.484 32.0695 119.05 31.4516C121.085 30.9616 123.835 31.4753 125.631 32.5396C127.071 33.3939 128.499 35.183 126.015 35.7542ZM24.8918 61.3704C19.8161 62.3605 16.4591 67.711 15.5288 72.4556C15.1071 74.6054 14.9583 77.166 15.7737 79.2462C16.7133 81.6444 19.3696 82.6453 21.7135 83.1482C24.3927 83.7232 26.7669 83.4986 28.891 81.6413C29.8247 80.8242 30.6157 79.8727 31.2868 78.8331C31.9729 77.7699 32.9271 76.9953 32.2372 75.807C30.5268 72.8627 29.0676 69.9703 27.9413 66.7313C27.4387 65.286 26.9919 63.8738 26.6582 62.3852C26.3936 61.2032 26.2654 60.4819 24.8918 61.3704ZM69.3478 93.4874C68.3657 94.4333 67.2373 95.187 65.9696 95.6955C64.5789 96.2531 64.1568 95.9852 64.2257 97.5939C64.302 99.3701 64.3149 100.792 63.5052 102.445C63.1262 103.219 61.7262 104.263 61.9905 105.133C62.3701 106.382 66.2583 107.645 67.3926 108.082C70.1063 109.128 73.2725 109.149 75.834 107.672C78.8093 105.956 79.0726 102.846 77.9519 99.8357C77.8324 99.5146 77.3974 98.972 77.5044 98.6213C77.7008 97.9787 78.5091 98.0714 78.973 98.3169C79.9802 98.8498 80.4009 100.47 80.6179 101.482C81.1971 104.184 80.1331 107.11 78.1111 108.971C77.0833 109.917 75.7982 110.549 74.4873 111.005C73.7434 111.263 72.9625 111.468 72.1768 111.547C71.5419 111.611 70.7402 111.41 70.1339 111.591C69.0654 111.91 69.0176 113.228 68.7505 114.191C68.2734 115.913 68.0742 117.777 68.0115 119.558C67.9101 122.439 68.2532 126.11 69.9106 128.553C73.7775 134.252 81.2563 136.23 87.0955 139.163C90.1993 140.722 93.0774 142.681 95.8409 144.775C96.114 144.982 96.5225 145.387 96.8502 145.548C97.9581 146.093 96.9906 145.895 97.6997 145.535C98.2458 145.258 98.7131 144.655 99.2773 144.342C100.577 143.618 102.036 143.228 103.358 142.544C106.431 140.955 109.149 138.983 111.876 136.879C114.671 134.722 117.501 132.753 120.051 130.297C121.126 129.263 122.336 128.409 123.427 127.419C124.525 126.421 123.119 126.007 122.189 125.272C119.023 122.772 115.897 120.192 112.516 117.983C111.389 117.245 110.394 116.251 109.217 115.599C107.989 114.919 107.259 115.529 106.292 116.394C105.234 117.34 104.226 118.267 103.048 119.076C101.494 120.145 99.6862 120.659 98.1232 121.677C99.1265 122.727 101.574 123.078 101.928 124.67C102.289 126.282 99.8872 127.541 98.7647 128.163C96.783 129.263 94.5969 129.931 92.3885 130.408C90.551 130.805 87.8268 130.207 86.3543 131.594C85.9343 130.706 85.5408 130.242 86.2317 129.393C86.922 128.545 88.1525 128.399 89.1266 128.072C91.7571 127.191 94.3482 126.016 96.8938 124.916C96.5559 124.125 95.7114 123.584 95.0678 123.069C94.1487 122.334 93.3765 121.519 92.6285 120.605C91.2012 118.861 89.9213 117.001 88.562 115.206C87.9727 114.427 87.435 113.65 86.3585 114.081C85.4081 114.462 84.4806 115.449 83.5674 115.96C81.5018 117.116 79.695 118.226 77.4215 118.961C76.5055 119.258 72.7543 120.102 73.7521 117.809C74.0477 117.129 75.0361 116.849 75.6449 116.552C76.7698 116.003 77.8913 115.443 78.9751 114.815C81.2016 113.526 83.1652 111.861 85.2482 110.362C87.5461 108.709 89.8834 107.104 92.0409 105.266C89.8942 103.844 87.5127 102.803 85.2928 101.502C83.0489 100.188 80.7886 98.9992 78.4677 97.8314C76.6197 96.9015 74.7415 95.91 73.0566 94.7085C72.3868 94.2303 70.0823 92.2444 69.3478 93.4874ZM136.848 47.2381C136.565 47.3092 136.286 47.39 136.009 47.4798C137.891 50.3573 135.813 53.9194 136.402 57.0326C138.139 56.0052 138.367 52.0088 141.005 52.7475C143.846 53.5436 142.432 57.0406 143.292 59.0408C144.635 57.8671 146.203 58.9642 146.757 60.3566C147.357 61.8653 146.525 63.258 146.805 64.7511C147.094 66.296 147.957 65.2822 148.436 64.3711C149.046 63.2096 149.578 61.6396 149.354 60.3109C149.08 58.6953 147.996 57.1928 147.323 55.7252C146.656 54.267 146.023 52.7788 145.057 51.485C143.227 49.0352 140.048 46.8341 136.848 47.2381ZM155.047 81.7426C153.819 78.6761 152.001 75.8679 150.839 72.777C150.499 71.8732 150.309 70.4324 149.411 69.8755C148.821 69.5095 148.035 69.7293 147.384 69.5325C146.735 69.3364 146.051 68.869 145.585 68.3867C144.734 67.5045 144.457 66.2939 143.453 65.5256C142.157 64.5341 141.155 64.1538 140.539 62.497C140.055 61.1959 140.053 61.005 138.598 61.2955C137.01 61.6124 135.72 61.2241 134.624 59.9832C132.768 57.8821 132.562 54.9221 133.473 52.386C133.899 51.1998 134.64 49.8199 134.025 48.5783C133.453 47.4245 132.064 46.5963 131.184 45.6768C128.96 43.3528 127.219 40.6331 125.133 38.1945C124.633 37.6112 124.123 37.0292 123.738 36.3605C123.494 35.9356 123.35 35.205 122.783 35.0848C121.808 34.8779 120.447 36.5639 119.956 37.1779C116.366 41.672 118.935 47.7929 119.372 52.8593C119.595 55.4393 120.095 58.5323 118.951 60.9618C117.873 63.251 115.144 64.3937 112.844 65.0311C109.742 65.891 106.41 65.853 103.254 65.3309C101.601 65.0575 100.014 64.5909 98.4488 63.9995C96.8478 63.3942 95.1823 62.3532 93.5503 63.4513C91.444 64.8691 92.0949 67.7135 92.5574 69.7864C93.3132 73.1726 94.6328 76.3311 95.8002 79.5844C96.7806 82.3166 97.5743 85.7443 95.5132 88.1891C93.4546 90.6309 90.0404 92.1591 86.8628 92.0323C80.2749 91.7697 74.2612 86.8577 67.5291 88.8669C68.7941 89.3896 70.1311 89.6972 71.3671 90.2958C72.8591 91.0182 74.24 91.9784 75.6885 92.7822C78.4687 94.3243 81.2587 95.8445 83.976 97.4971C86.4313 98.9898 88.7525 100.625 91.0957 102.28C94.0156 104.341 95.5536 102.058 97.4266 99.8312C101.516 94.9704 105.409 89.8229 109.124 84.6716C112.354 80.1935 115.353 75.5176 117.688 70.5146C118.524 68.7245 119.932 65.6879 122.378 66.0411C124.549 66.3545 125.815 68.9742 126.938 70.5777C127.721 70.0166 128.392 69.2661 129.45 69.575C130.327 69.8306 130.933 70.7306 131.322 71.4982C131.588 72.0258 131.77 73.8037 132.217 74.0712C132.534 74.2617 133.747 73.8525 134.288 73.9775C136.139 74.4052 136.731 76.7846 136.712 78.4357C136.686 80.7121 135.735 82.9894 134.955 85.0972C133.209 89.8222 130.215 93.5149 126.916 97.2484C123.568 101.037 120.062 104.472 116.286 107.834C115.354 108.663 114.431 109.503 113.522 110.358C112.777 111.059 111.597 111.789 111.014 112.613C109.934 114.137 112.822 114.829 113.896 115.387C118.519 117.787 122.779 120.949 126.85 124.173C131.048 127.497 135.27 130.835 139.304 134.358C143.25 137.804 146.978 141.477 151.133 144.681C155.403 147.974 159.877 151.013 164.264 154.146C168.656 157.282 172.929 160.581 177.316 163.721C181.603 166.79 186.205 169.42 190.714 172.144C193.072 173.57 195.443 174.974 197.813 176.381C199.729 177.519 201.809 179.287 204.08 179.431C206.127 179.561 208.068 180.314 209.292 178.089C210.22 176.399 209.836 174.075 209.023 172.434C208.03 170.431 206.478 168.589 205.231 166.735C203.796 164.604 202.465 162.411 201.049 160.268C199.692 158.214 198.183 156.318 196.669 154.382C195.134 152.419 193.969 150.206 192.601 148.128C189.676 143.685 186.669 139.323 183.897 134.781C177.538 124.363 171.843 113.609 166.401 102.693C165.921 101.731 154.734 81.9136 155.047 81.7426ZM146.094 145.79C149.512 157.603 147.541 169.615 146.84 181.632C146.486 187.708 146.432 193.822 146.275 199.906C146.198 202.864 146.204 205.824 146.327 208.78C146.389 210.267 146.497 211.749 146.603 213.234C146.697 214.546 146.345 215.998 146.51 217.264C146.722 218.886 149.943 219.205 148.954 221.287C148.29 222.683 145.965 222.897 144.72 223.486C145.273 224.127 146.14 225.086 147.063 225.147C147.895 225.201 148.537 224.48 149.283 224.207C149.945 223.964 150.856 223.73 151.274 224.503C151.712 225.312 150.795 226.211 150.432 226.838C151.665 227.076 152.517 226.34 153.63 226.408C154.799 226.479 154.852 227.63 155.621 228.296C156.5 229.058 158.036 229.222 159.119 229.542C160.38 229.915 161.648 230.377 162.796 231.024C164.849 232.181 166.612 234.366 167.371 236.603C168.157 238.921 166.93 240.927 165.101 242.35C164.419 242.88 163.443 243.495 162.539 243.21C161.506 242.883 161.345 242.043 160.086 242.105C158.956 242.161 157.883 242.612 156.746 242.67C155.076 242.756 153.407 242.451 151.735 242.515C144.988 242.774 138.24 242.832 131.504 242.183C129.761 242.015 128.052 241.878 126.334 241.823C124.998 241.781 124.887 240.784 124.66 239.533C124.113 236.512 125.323 233.538 124.724 230.603C124.764 230.796 123.818 230.292 123.704 230.196C123.009 229.612 122.777 228.782 122.571 227.919C122.02 225.621 122.025 223.28 122.196 220.937C122.583 215.618 123.573 210.349 123.492 205.002C123.451 202.307 123.532 199.618 123.533 196.925C123.534 194.45 123.757 192.008 123.778 189.551C123.824 184.163 124.391 178.835 124.549 173.453C123.428 174.544 122.833 176.065 122.121 177.427C121.245 179.101 120.267 180.757 119.197 182.315C116.988 185.531 114.023 188.149 110.952 190.523C105.091 195.051 98.7243 198.559 91.5439 200.479C83.7708 202.559 75.9096 203.962 67.8962 204.751C66.042 204.933 64.1672 205.032 62.3092 204.852C61.0923 204.733 59.1145 203.75 57.9582 204.249C56.6442 204.816 56.3798 206.18 54.6569 205.797C53.9994 205.651 53.5233 205.212 52.9476 204.916C52.101 204.48 52.0672 204.781 51.2588 204.837C50.3575 204.899 49.8173 204.448 49.0316 205.174C48.3647 205.79 48.4295 206.222 49.0386 206.799C49.895 207.61 51.2658 207.745 52.1229 208.592C52.957 209.415 52.8076 210.427 51.5194 210.44C50.2231 210.452 49.071 209.529 47.8043 209.409C48.0742 213.156 49.2019 217.343 47.9516 221.02C47.3714 222.725 46.127 223.824 44.2711 223.812C41.1652 223.792 38.441 220.935 36.5704 218.71C35.5364 217.48 34.6981 216.097 33.7 214.837C32.6792 213.548 31.5846 212.252 31.0002 210.693C30.3785 209.035 30.5599 207.371 30.9075 205.669C31.3376 203.562 31.7374 201.434 32.2574 199.347C33.2657 195.301 35.2937 191.606 36.3176 187.572C36.7049 186.046 36.7 184.254 37.6776 182.946C38.7123 181.56 40.3224 181.471 41.9192 181.559C43.8957 181.669 45.8707 181.888 47.8367 182.111C49.0783 182.252 51.7987 183.148 52.809 182.385C53.1569 182.122 53.1576 181.434 53.5644 181.196C53.9566 180.967 54.5897 181.131 55.0185 181.163C57.1412 181.321 59.2824 181.512 61.4093 181.574C69.3151 181.805 77.6576 180.573 84.716 176.901C87.9916 175.196 90.4869 172.513 93.1195 169.979C95.7082 167.487 97.9643 164.805 98.6609 161.188C99.2968 157.885 99.0562 153.935 97.9999 150.738C96.9711 147.624 93.3194 145.738 90.6618 144.203C86.9763 142.073 83.0638 140.309 79.0932 138.78C78.4628 138.538 77.6966 138.229 77.0035 138.353C76.1534 138.505 75.5826 139.241 74.8094 139.566C73.8903 139.953 72.763 139.955 71.793 140.18C70.8527 140.399 69.936 140.7 68.9783 140.845C65.9619 141.299 61.7231 140.936 59.2301 139.009C55.1553 135.86 57.6173 131.404 58.9264 127.57C57.5424 127.524 56.39 127.847 55.069 127.255C53.7528 126.665 52.7237 125.62 52.1236 124.311C51.0321 121.93 51.6625 119.193 51.9847 116.71C52.1302 115.587 52.2964 114.473 52.7247 113.419C53.0566 112.602 53.6013 111.824 53.8026 110.96C54.0241 110.008 53.7368 109.953 52.9434 109.498C51.72 108.797 50.8395 107.99 50.0907 106.759C48.6242 104.348 48.5879 101.716 49.7895 99.1796C50.276 98.1532 51.4365 96.7417 51.3045 95.5429C51.1909 94.5113 50.0235 93.7079 49.336 93.0326C47.213 90.9468 44.9558 89.0212 42.6015 87.2018C41.5013 86.3513 40.2893 85.5795 39.2894 84.6134C38.5566 83.9057 37.8124 82.366 36.8104 81.9937C35.8074 81.6214 35.1394 82.7414 34.4407 83.3419C33.3517 84.2777 32.3079 85.3545 31.121 86.1657C28.9924 87.6208 26.3531 87.3484 23.949 86.8838C21.438 86.398 19.1091 85.543 16.9679 84.1321C16.1174 83.5714 15.1238 82.4329 14.0765 82.3416C12.9579 82.2445 11.7424 83.3565 10.9428 84.0241C8.85556 85.7673 8.22902 88.4747 7.0132 90.8165C5.65563 93.4317 5.07889 96.1461 5.44841 99.0859C5.78066 101.731 6.79936 103.729 8.31469 105.865C8.62814 106.307 9.36195 107.142 8.82561 107.631C8.16946 108.229 6.82513 107.03 6.38456 106.642C2.00851 102.794 -0.478508 96.9945 0.942098 91.1892C1.70447 88.0721 3.19612 85.1881 4.92843 82.506C5.66503 81.3651 6.38352 80.2245 7.66446 79.6425C9.12268 78.9805 10.7749 79.0592 12.3324 78.9004C11.2552 73.6268 10.918 67.8883 14.2284 63.2921C16.7687 59.7652 21.9712 56.6791 26.094 59.5392C25.9251 55.6514 25.371 51.9593 26.4057 48.1311C26.8693 46.4159 27.5045 44.7466 28.2854 43.1498C29.0502 41.5853 30.1065 40.2584 30.7243 38.6299C33.1622 32.2056 37.8399 26.4671 42.8359 21.8564C47.8862 17.1957 52.8418 11.5098 59.2033 8.59401C65.84 5.5516 72.5989 2.81762 79.795 1.43526C87.2637 0.000338629 94.9406 -0.294195 102.465 1.06435C109.06 2.25537 115.165 6.25989 120.155 10.5771C125.85 15.5034 129.527 21.4423 132.435 28.3217C133.074 29.8329 133.69 31.3569 134.474 32.8012C135.343 34.4036 136.46 35.8938 137.099 37.6133C137.669 39.1467 137.765 40.8104 136.75 42.1805C136.036 43.1438 134.571 43.3612 133.947 44.2423C133.632 44.6867 133.663 45.1095 134.356 45.2418C135.071 45.3784 135.412 44.5805 135.927 44.2604C137.207 43.4636 139.014 44.1427 140.308 44.5951C143.377 45.6681 145.779 47.5955 147.616 50.2667C149.374 52.8234 150.541 55.728 151.702 58.587C152.434 60.3907 153.131 62.1825 153.534 64.0935C153.686 64.8124 153.897 66.7613 152.761 65.9073C152.301 65.5611 151.642 68.1885 151.766 68.6068C152.198 70.0619 153.739 71.4261 154.646 72.6043C156.778 75.3737 158.206 78.4762 159.71 81.6085C162.967 88.3915 166.595 94.9763 170.08 101.642C177.178 115.216 184.934 128.268 193.07 141.243C197.101 147.671 201.256 153.989 205.565 160.235C207.467 162.991 209.374 165.748 211.234 168.533C212.814 170.898 214.374 173.533 213.967 176.485C213.595 179.189 211.989 181.361 209.392 182.245C208 182.719 206.347 183.265 204.858 183.119C203.229 182.96 201.792 181.87 200.434 181.052C194.194 177.292 187.954 173.536 181.71 169.782C174.728 165.584 168.342 160.6 161.68 155.933C158.29 153.559 154.795 151.418 151.263 149.269C150.468 148.785 146.859 145.317 146.094 145.79Z"
        fill="#3A3A3A" />
    <path fill-rule="evenodd" clip-rule="evenodd"
        d="M85.6355 157.74C83.93 160.251 82.1364 162.611 79.7358 164.517C77.2066 166.524 74.5618 168.15 71.738 169.707C66.7581 172.454 60.0827 174.886 54.2986 173.641C52.6537 173.287 50.0221 171.848 51.4522 169.793C52.171 168.76 53.7128 169.03 54.8043 169.086C56.5627 169.178 58.1003 169.278 59.7853 168.687C62.8811 167.599 65.9981 166.574 69.0211 165.294C71.9491 164.053 74.5169 162.353 77.2031 160.682C79.7225 159.115 81.6443 157.24 83.8576 155.346C84.4636 154.827 85.5056 153.919 86.0789 154.928C86.4933 155.657 85.8626 157.027 85.6355 157.74Z"
        fill="#3A3A3A" />
    <path fill-rule="evenodd" clip-rule="evenodd"
        d="M154.552 37.1284C154.362 38.2161 153.846 40.3803 152.315 40.0846C150.363 39.7077 151.325 35.8858 151.295 34.5885C151.166 28.9353 149.322 23.4995 146.593 18.598C145.236 16.1614 143.564 13.908 142.331 11.4015C142.092 10.9145 141.364 9.70664 141.893 9.17831C142.527 8.54382 143.743 9.50129 144.19 9.95408C145.918 11.705 147.295 14.33 148.629 16.3903C150.41 19.1408 151.984 22.0461 153.114 25.1304C154.478 28.8559 155.244 33.1769 154.552 37.1284Z"
        fill="#3A3A3A" />
    <path fill-rule="evenodd" clip-rule="evenodd"
        d="M158.204 19.0503C158.387 20.0307 159.279 22.6981 157.688 22.9346C155.884 23.2028 155.324 18.7585 154.823 17.581C154.559 16.9602 153.152 14.2264 153.885 13.6313C155.412 12.3924 157.843 18.2616 158.204 19.0503Z"
        fill="#3A3A3A" />
    <path fill-rule="evenodd" clip-rule="evenodd"
        d="M73.3125 151.335C71.6004 152.895 69.6128 152.803 67.4518 152.655C66.3544 152.579 63.813 151.929 65.5791 150.568C66.5017 149.857 73.7398 149.368 73.3125 151.335Z"
        fill="#3A3A3A" />
    <path fill-rule="evenodd" clip-rule="evenodd"
        d="M206.719 179.897C206.841 179.654 207.868 178.493 208.09 178.962C208.299 179.405 206.99 179.883 206.719 179.897Z"
        fill="#3A3A3A" />
    <path fill-rule="evenodd" clip-rule="evenodd"
        d="M70.5445 93.6614C70.3338 94.0957 69.4544 93.7164 69.1514 93.7822C69.563 92.9008 70.0523 93.0895 70.5445 93.6614Z"
        fill="#3A3A3A" />
    <path fill-rule="evenodd" clip-rule="evenodd"
        d="M136.716 47.5527C136.625 47.901 136.534 48.2493 136.442 48.5976C136.302 48.3367 136.161 48.0758 136.02 47.8146C136.252 47.7276 136.484 47.6402 136.716 47.5527Z"
        fill="#3A3A3A" />
    <path fill-rule="evenodd" clip-rule="evenodd"
        d="M138.398 113.354C140.595 113.575 142.8 113.687 145.006 113.755C146.868 113.812 147.633 113.46 147.87 111.525C148.152 109.23 148.248 106.915 148.53 104.62C148.658 103.577 149.669 101.493 148.451 100.935C147.43 100.467 145.837 101.138 144.768 101.216C143.576 101.304 141.778 100.941 140.725 101.647C139.599 102.402 139.844 105.046 139.653 106.287C139.287 108.653 138.846 111.003 138.398 113.354ZM137.349 102.21C135.358 102.36 133.36 102.479 131.374 102.691C130.49 102.786 128.701 103.223 127.957 102.58C126.208 101.071 132.743 100.541 133.485 100.422C134.734 100.221 136.873 100.488 137.674 99.3081C138.466 98.1413 138.266 96.1809 138.471 94.8265C138.779 92.788 139.131 90.7524 139.337 88.7007C139.406 88.0111 139.307 85.7331 140.036 85.3946C141.709 84.6165 141.184 92.6341 141.156 93.2359C141.109 94.2706 141.057 95.3102 140.913 96.3362C140.832 96.9147 140.546 97.697 140.722 98.2779C141.227 99.9437 144.094 98.9831 145.4 98.8501C146.863 98.701 149.123 99.268 149.608 97.4622C150.216 95.1929 150.128 92.6156 150.354 90.2808C150.416 89.6351 150.579 84.8129 151.769 85.1866C153.098 85.6042 152.579 89.6337 152.567 90.6712C152.553 91.8421 152.558 93.0137 152.478 94.1825C152.407 95.2326 152.111 96.5194 152.33 97.5597C152.715 99.3836 154.877 98.4137 155.505 99.8646C156.101 101.243 152.85 100.162 152.243 100.636C151.336 101.343 151.554 104.299 151.425 105.334C151.141 107.607 150.595 109.967 150.417 112.233C150.278 114.022 151.716 113.785 153.179 113.655C154.434 113.544 155.813 113.246 157.071 113.413C158.082 113.548 159.494 114.479 158.023 115.098C155.722 116.068 151.037 114.088 149.881 117.031C149.663 117.586 148.649 124.025 147.374 120.847C146.841 119.518 148.146 117.434 146.755 116.416C146.272 116.062 145.554 116.125 144.994 116.086C143.616 115.99 142.229 115.957 140.848 115.928C139.471 115.9 138.234 115.623 137.703 117.131C137.288 118.306 137.334 119.62 137.004 120.823C136.755 121.724 135.94 123.302 135.095 121.827C134.54 120.859 134.965 119.167 135.075 118.113C135.129 117.586 135.444 116.495 135.044 116.052C134.614 115.577 133.465 115.834 132.921 115.877C131.353 116.001 128.433 116.756 127.232 115.333C126.228 114.143 128.316 114.121 129.136 114.04C129.982 113.957 130.828 113.881 131.673 113.792C132.603 113.694 133.835 113.825 134.71 113.533C136.181 113.044 136.076 111.045 136.172 109.748C136.361 107.215 136.931 104.713 137.349 102.21Z"
        fill="#3A3A3A" />
    <path fill-rule="evenodd" clip-rule="evenodd"
        d="M163.185 107.62C163.066 109.082 162.908 110.722 162.436 112.112C162.078 113.162 161.357 113.481 161.111 112.144C160.955 111.296 161.991 106.518 163.185 107.62Z"
        fill="#3A3A3A" />
    <path fill-rule="evenodd" clip-rule="evenodd"
        d="M70.3452 97.9903C69.7587 97.5692 66.9812 95.3545 68.9887 95.2671C70.0136 95.2222 72.222 96.9082 72.2854 97.8436C72.3014 98.0798 71.7964 98.202 71.824 98.4305C71.8762 98.8655 72.5202 99.0713 72.7277 99.4171C73.185 100.18 72.9952 101.687 72.4045 102.412C71.0574 104.066 69.5616 101.266 70.6043 100.717C70.372 100.839 67.2536 99.2541 67.1366 98.8961C66.495 96.9343 70.1874 98.7826 70.3452 97.9903Z"
        fill="#3A3A3A" />
    <path fill-rule="evenodd" clip-rule="evenodd"
        d="M75.2406 105.71C74.5283 105.732 73.0976 105.683 72.5641 105.174C71.5722 104.229 73.5069 104.103 74.0728 103.663C74.8662 103.046 75.0219 101.039 76.2673 102.281C77.5026 103.513 76.4163 104.945 75.2406 105.71Z"
        fill="#3A3A3A" />
    <path fill-rule="evenodd" clip-rule="evenodd"
        d="M64.972 100.499C66.26 100.31 69.1252 103.087 67.7349 103.271C66.8148 103.394 65.173 101.241 64.972 100.499Z"
        fill="#3A3A3A" />
</svg>
