<svg width="211" height="132" viewBox="0 0 211 132" fill="none" xmlns="http://www.w3.org/2000/svg">
<path fill-rule="evenodd" clip-rule="evenodd" d="M155.586 105.933C154.587 107.088 153.111 107.946 151.979 109.003C150.79 110.113 149.5 111.082 148.316 112.179C143.092 105.794 135.936 101.879 129.737 96.5814C126.798 94.0695 124.633 90.6625 123.048 87.1659C122.236 85.3734 121.636 83.5285 121.166 81.6189C120.955 80.7589 120.748 79.9016 120.61 79.0298C120.442 77.974 120.399 77.8839 119.687 77.0599C119.38 76.7053 118.786 75.6691 118.185 75.7833C117.68 75.8795 116.755 77.418 116.436 77.7981C114.9 79.626 113.411 81.5094 111.793 83.2666C109.319 85.9552 107.066 88.601 104.769 91.4507C100.069 97.2808 95.0001 102.769 89.8847 108.255C89.5053 108.662 88.6207 109.855 88.0756 110.015C87.4128 110.21 86.3357 109.397 85.6683 108.943C84.0572 107.846 82.7874 106.488 81.4101 105.129C78.7225 102.476 76.9026 98.7524 75.6784 95.2094C74.9455 93.0886 74.469 90.8901 73.7127 88.7766C73.3974 87.8957 72.6829 86.8131 73.0457 86.0459C73.1536 85.8172 73.8412 85.2095 74.0836 85.1631C74.3703 85.108 74.8484 85.5011 74.9479 85.4739C75.8992 85.2135 75.3713 84.2178 75.9372 83.682C76.258 83.3781 77.8894 83.4225 78.3766 83.2555C80.1576 82.6445 81.7554 81.4791 83.4391 80.7834C90.4877 77.8713 97.6222 75.0386 103.707 70.2831C105.285 69.0501 106.334 68.1234 108.217 67.3264C110.12 66.5209 112.033 65.8024 113.974 65.0996C115.687 64.4795 117.41 63.8982 119.18 63.4538C121.093 62.9731 123.808 62.3636 125.72 62.9828C129.474 64.1984 130.687 67.2921 132.182 70.5557C134.205 74.9712 136.651 79.1495 139.303 83.2137C144.404 91.0333 150.608 98.05 155.586 105.933Z" fill="#FE8668"/>
<path fill-rule="evenodd" clip-rule="evenodd" d="M42.509 36.8032C42.3024 36.6984 40.6893 37.3549 40.4185 37.4554C39.337 37.8567 38.3183 38.5234 37.2993 39.0658C38.0802 40.0162 38.8613 40.9667 39.642 41.9173C40.4074 40.0398 41.3912 38.4907 42.509 36.8032ZM43.0415 48.4846C42.7758 48.5144 45.0189 53.9048 45.2808 54.5101C46.234 56.7114 47.2348 58.8912 48.2007 61.087C49.1364 63.2149 50.3235 65.1725 51.5193 67.1603C52.5423 68.8604 53.5944 71.4986 55.1373 72.7578C54.1631 68.4356 54.2914 63.466 51.497 59.8369C48.6004 56.0747 45.7365 52.401 43.0415 48.4846ZM155.586 106.125C151.258 99.2703 145.839 93.2066 141.326 86.4745C138.798 82.705 136.338 78.8872 134.211 74.8748C132.663 71.9561 131.701 67.7917 129.311 65.5603C128.258 64.5772 127.133 63.6149 125.72 63.1744C123.785 62.5718 121.122 63.1691 119.18 63.6456C115.559 64.5334 112.022 65.912 108.592 67.3599C105.114 68.8283 102.146 71.4661 99.0028 73.5853C95.6312 75.859 91.9816 77.5152 88.2041 78.9651C84.9151 80.2276 81.9891 82.04 78.7175 83.3107C78.0656 83.564 76.7352 83.5268 76.1883 83.8571C75.599 84.2126 75.831 85.2625 75.1156 85.6498C74.7929 85.8246 74.6854 85.191 74.4376 85.2014C74.1345 85.214 73.8582 85.5697 73.5662 85.7949C72.3772 86.7123 73.1057 87.324 73.5764 88.5862C75.111 92.6991 75.9357 96.8836 78.0903 100.766C79.8618 103.958 82.3972 106.818 85.3823 108.931C85.8364 109.252 87.3166 110.498 87.8495 110.415C88.3293 110.341 89.3056 109.065 89.6369 108.719C91.1401 107.147 92.5141 105.456 94.0164 103.882C96.3378 101.448 98.5725 98.95 100.825 96.4837C103.441 93.6205 105.755 90.3763 108.111 87.3171C109.194 85.9097 110.589 84.7634 111.793 83.4585C113.413 81.7038 114.9 79.8174 116.436 77.99C116.901 77.4369 117.679 76.0223 118.402 76.0388C118.908 76.0506 119.8 77.2423 120.065 77.6157C121.049 79.0038 121.045 81.5106 121.534 83.2434C122.728 87.4687 124.881 91.5955 127.834 94.856C130.771 98.0983 134.532 100.404 138.005 103.01C141.768 105.834 145.332 108.723 148.316 112.371C149.5 111.274 150.79 110.304 151.979 109.195C153.112 108.138 154.587 107.28 155.586 106.125ZM99.8687 125.517C100.71 125.525 102.135 126.043 102.888 125.731C100.655 123.26 98.6044 121.14 95.7792 119.33C92.8475 117.451 89.9254 115.589 87.0779 113.584C81.3393 109.545 77.1185 104.755 74.7214 98.0291C74.1042 96.297 73.6908 94.4803 73.2384 92.6998C72.9951 91.7408 72.5106 87.2545 71.6879 86.8672C71.2005 86.6376 67.5328 89.2154 66.9516 89.5366C65.5929 90.2881 64.2291 90.8707 62.8244 91.4587C59.805 92.723 56.6923 93.6873 53.4904 94.4923C49.6516 95.4574 47.0368 93.8605 44.6588 90.8433C41.9608 87.4202 39.7188 83.558 37.252 79.9632C36.1302 78.3282 35.2009 76.6959 34.3724 74.8925C33.8302 73.7125 31.6798 70.529 32.4228 69.2718C34.5428 70.8858 35.3055 74.095 36.7496 76.2561C38.5494 78.9494 40.5778 81.4887 42.3869 84.1796C43.9082 86.4422 45.4602 89.1842 47.7078 90.8108C49.6848 92.2414 51.5629 91.8016 53.6906 91.1585C56.2693 90.3794 58.9423 89.9954 61.4694 89.0289C64.2043 87.9832 66.7919 86.4997 69.4602 85.2901C70.7041 84.726 72.1936 84.4055 73.3658 83.7022C74.3761 83.0965 74.2255 82.7766 74.2996 81.4867C74.3863 79.9818 74.486 78.4758 74.5526 76.9695C74.5973 75.9574 74.05 74.5852 74.4215 73.8298C71.3921 74.3549 68.4314 75.0584 65.4233 75.6807C63.7763 76.0214 62.1882 76.4426 60.5244 76.7102C59.8902 76.8122 59.0232 76.8093 58.4554 77.0856C58.0023 76.9556 57.7714 77.0383 57.7625 77.3336C57.7408 77.494 57.7066 77.6522 57.6594 77.8077C56.7306 78.2302 56.1903 77.3239 55.3847 76.4545C54.3905 75.3816 53.6461 74.1733 52.9168 72.9126C51.286 70.0939 49.4063 67.4428 47.8972 64.5447C46.359 61.5903 45.1098 58.4271 43.8058 55.362C42.6094 52.5499 41.8433 49.5086 40.5214 46.7631C39.9314 45.5375 39.1837 44.5241 38.3105 43.4888C37.59 42.6345 36.4815 40.7915 35.4055 40.3991C35.121 40.2953 34.376 40.4697 34.0528 40.4467C33.4086 40.4006 32.8345 40.1642 32.1753 40.2159C30.748 40.3276 29.192 41.2302 28.0514 42.0237C28.7885 42.6807 30.6323 43.4793 29.3079 44.6628C28.0226 45.8118 27.3127 43.7507 26.8223 42.8477C24.5128 44.7442 24.8466 47.3592 24.5798 50.0388C24.4405 51.4378 24.0739 52.8155 23.8374 54.1935C23.6671 55.1852 23.7865 56.211 23.7379 57.2235C23.6138 59.7965 23.3552 62.2593 23.3678 64.7962C23.3811 67.5079 23.5658 70.1266 23.7828 72.8186C24.148 77.3509 24.9849 81.8847 25.7025 86.3809C26.1062 88.9083 26.6588 91.3638 27.1953 93.8503C27.8041 96.6724 28.9303 99.3453 29.5618 102.16C30.2054 101.342 30.6894 101.338 31.7302 101.446C32.5308 101.53 33.0686 101.339 33.0217 102.451C32.9914 103.171 32.3556 103.722 31.6521 103.848C30.7347 104.011 30.423 103.554 29.9503 102.859C29.8397 104.175 30.7246 105.55 31.0745 106.835C31.4057 108.053 31.6251 109.247 32.1817 110.413C32.7248 111.55 33.1898 112.671 33.7393 113.797C33.9924 114.315 34.2291 114.842 34.485 115.359C34.6144 115.62 34.7668 115.981 34.96 116.201C35.413 116.718 35.3409 116.468 35.8712 116.762C37.0264 117.404 36.5925 117.244 36.6195 118.569C36.6459 119.876 37.3161 120.837 38.391 121.571C40.6716 123.131 42.9209 123.564 45.5135 124.352C47.9292 125.086 50.4737 125.716 53.0316 125.701C56.1645 125.684 59.2557 125.273 62.3886 125.231C65.8449 125.186 69.3344 125.204 72.7836 125.324C74.2044 125.373 75.524 125.436 76.8958 125.799C78.4887 126.221 80.0297 126.053 81.6716 125.99C85.1743 125.853 88.7979 125.582 92.2548 125.558C94.7439 125.54 97.3702 125.367 99.8687 125.517ZM190.697 126.874C191.32 127.203 192.716 127.068 193.342 126.977C194.445 126.816 194.563 126.379 195.263 125.396C196.467 123.702 197.445 122.081 198.153 120.119C199.509 116.365 200.063 112.524 200.658 108.597C201.32 104.233 200.112 99.7099 199.68 95.3758C199.58 94.3815 199.444 93.3961 199.287 92.4093C199.193 91.8193 199.169 89.8122 198.781 89.3014C198.035 88.3201 194.566 89.1116 193.202 89.2006C189.395 89.4492 185.564 89.5074 181.759 89.5505C179.73 89.5735 177.69 89.6585 175.681 89.6742C174.759 89.6815 173.857 89.6357 172.931 89.5459C172.621 89.516 172.319 89.4448 172.007 89.4275C170.939 89.3685 171.019 89.2136 170.743 90.1593C170.26 91.8162 170.632 93.9242 170.505 95.6439C170.335 97.9419 170.243 100.272 170.285 102.575C170.324 104.703 170.252 106.827 170.331 108.959C170.364 109.843 170.461 110.563 170.694 111.406C170.957 112.36 171.247 114.588 171.903 115.248C171.977 115.323 172.535 115.148 172.683 115.335C172.911 115.623 172.869 116.233 173.026 116.419C173.533 117.023 174.58 117.07 175.34 117.341C177.425 118.085 179.338 118.892 181.303 119.895C183.059 120.79 185.89 121.553 186.945 123.32C187.429 124.13 187.494 125.198 187.94 126.034C188.446 126.986 187.432 126.488 188.674 126.874C189.233 127.048 190.124 126.874 190.697 126.874ZM5.59348 116.106C5.43553 118.305 4.19694 120.399 3.76579 122.561C3.56404 123.573 3.22182 124.568 2.98467 125.574C2.75726 126.54 1.93566 127.683 2.01884 128.638C5.05128 127.558 8.12287 127.286 11.2922 126.995C14.2961 126.718 17.4695 126.608 20.4482 126.607C23.4835 126.606 26.7289 126.309 29.8543 126.263C33.1228 126.215 36.4406 126.13 39.6617 125.792C37.9774 124.544 35.8698 123.373 34.6262 121.637C33.2741 119.75 32.5719 117.386 31.3822 115.395C28.9949 111.4 27.4771 106.442 26.2257 101.953C23.6992 92.892 20.8758 83.9978 20.1953 74.5987C18.9003 75.2619 17.8723 77.8349 17.2239 79.1162C16.3964 80.7521 15.963 82.5254 15.425 84.2641C14.3172 87.8454 13.5504 91.5587 12.1939 95.1059C9.60126 101.887 7.93483 109.193 5.59348 116.106ZM170.203 63.2935C170.764 67.3461 171.94 71.4513 171.985 75.5528C171.995 76.4552 171.842 77.4573 172.03 78.347C172.231 79.2969 172.884 80.1367 173.262 81.0394C173.86 82.4725 175.376 85.4098 173.914 86.6241C173.885 85.4717 172.83 84.0084 172.299 83.0007C171.498 81.4825 170.446 80.0944 169.579 78.6138C167.762 75.5148 165.726 72.4821 163.385 69.7501C161.105 67.0889 158.477 64.7283 156.059 62.1942C155.332 61.4328 149.504 54.1046 149.272 54.207C151.08 61.1784 154.153 67.2442 158.359 73.0812C160.421 75.9426 162.896 77.8256 165.406 80.2497C167.496 82.2685 171.436 84.4272 170.713 87.735C173.981 87.4209 177.227 86.9189 180.524 86.9189C179.982 82.7457 179.567 78.6386 178.598 74.5339C177.499 69.8731 176.755 65.0729 175.825 60.3707C174.876 55.5703 173.266 50.923 172.265 46.1317C171.306 41.5437 170.482 36.9638 169.779 32.3247C169.198 34.8952 169.412 37.7186 169.206 40.3414C168.996 43.021 169.016 45.6512 169.086 48.3465C169.216 53.3529 169.75 58.2988 170.203 63.2935ZM184.363 39.4246C184.381 37.2817 184.796 35.1678 184.924 33.0299C184.964 32.374 185.617 27.899 185.008 27.6654C184.507 28.7578 184.39 30.1557 183.935 31.3018C183.48 32.4468 182.872 33.5376 182.436 34.6906C181.491 37.1884 181.165 40.0146 181.063 42.6701C180.833 48.6766 180.714 54.6696 181.117 60.676C181.29 63.2505 181.423 65.8295 181.376 68.4091C181.324 71.2475 180.889 73.7112 181.417 76.5264C181.939 79.3142 182.268 82.0904 182.442 84.9189C182.564 86.9041 182.613 86.7636 184.507 86.6241C185.874 86.5232 187.255 86.6309 188.624 86.5683C187.984 78.831 187.88 71.0778 186.857 63.3702C186.335 59.4381 186.321 55.4491 185.673 51.5316C185.351 49.5856 184.81 47.6787 184.5 45.7304C184.167 43.6386 184.331 41.5326 184.363 39.4246ZM45.8571 34.5554C49.5034 34.8713 53.382 35.9615 57.1194 35.2417C56.5034 34.9921 54.8911 34.6479 55.6167 33.6631C56.3545 32.6616 57.5977 33.9318 58.3335 33.8007C58.7872 33.7197 59.7897 31.8232 60.0694 31.4305C60.704 30.5381 60.7806 30.3826 61.9218 30.1539C63.0275 29.9327 63.2781 30.1723 63.4181 29.073C63.579 27.809 63.1416 26.3879 63.185 25.0953C63.2781 22.3127 64.1758 19.8724 65.0114 17.2543C61.4615 18.0266 57.9904 18.9424 54.3607 19.4402C52.809 19.653 50.3951 20.1438 48.9855 19.0891C48.619 18.8148 48.6776 18.4445 48.3776 18.1266C47.8746 17.5932 46.9415 17.0415 46.2281 16.8895C41.8376 15.9549 41.4093 22.2138 43.6095 24.5558C44.1606 25.1427 44.9273 25.4325 45.4916 25.9702C46.2449 26.6874 46.3066 27.4429 46.4165 28.5377C46.6227 30.5906 46.3427 32.6514 45.4669 34.5293L45.8571 34.5554ZM99.136 64.1033C100.432 64.3493 101.785 64.2931 103.084 64.5031C103.546 64.5776 104.93 64.8378 105.336 64.5679C105.956 64.1558 106.176 62.6442 106.469 61.9403C106.985 60.7021 107.714 59.6221 108.206 58.3614C110.214 53.212 112.087 48.0419 114.517 43.0683C113.586 42.8263 112.871 42.8168 111.932 42.6918C110.955 42.5615 110.069 41.9835 109.136 41.735C108.249 41.499 107.321 41.5592 106.443 41.2846C105.959 41.1335 105.544 40.7975 105.067 40.68C104.306 40.4931 103.419 40.3838 102.967 40.8829C102.503 41.3948 102.341 42.7984 102.089 43.4596C101.417 45.2212 100.637 46.9212 100.074 48.7233C99.5665 50.3485 99.0842 51.9566 98.6374 53.5967C98.1653 55.3281 97.2348 56.7552 96.6681 58.4092C96.2369 59.6682 95.8301 60.9552 95.7657 62.2975C95.7031 63.6074 95.5125 63.6908 96.8223 63.9C97.4835 64.0055 98.5139 64.3984 99.136 64.1033ZM184.413 125.406C184.75 125.563 185.069 125.542 185.367 125.343C182.441 124.107 179.594 122.393 176.541 121.544C173.676 120.749 170.893 119.799 168.133 118.819C165.891 118.023 163.876 117.404 161.849 116.003C160.618 115.153 159.525 114.196 158.68 112.954C157.738 111.57 157.529 109.602 156.51 108.356C155.134 109.867 153.517 111.011 151.889 112.212C151.326 112.627 149.975 113.533 149.782 114.176C149.539 114.987 150.191 115.763 150.513 116.584C151.338 118.687 151.741 120.788 152.188 122.974C152.368 123.85 152.755 125.167 153.475 125.534C154.13 125.867 156.027 125.625 156.843 125.563C161.097 125.24 165.275 124.91 169.555 125.204C174.398 125.536 179.582 125.765 184.413 125.406ZM192.909 86.4471C193.683 86.4497 194.438 86.3531 195.208 86.3531C194.763 84.2769 195.803 81.5905 196.171 79.5181C196.584 77.2 196.898 74.8029 197.173 72.4662C197.752 67.5443 198.015 62.6822 198.022 57.7243C198.029 52.9268 198.903 48.5427 200.126 43.9308C201.44 38.9778 203.591 34.5236 205.369 29.7469C203.419 30.7782 202.339 33.1914 201.313 35.0364C200.018 37.3691 199.154 39.952 198.625 42.5708C197.604 47.6227 196.485 52.6899 195.307 57.7334C194.08 62.9849 193.359 68.2845 191.954 73.4931C191.268 76.0331 190.336 79.158 190.285 81.7774C190.263 82.8609 189.937 85.1302 190.428 86.0712C190.887 86.9517 191.902 86.5369 192.909 86.4471ZM76.2065 79.9314C76.1657 80.4707 76.1273 80.9837 76.0315 81.5164C77.1024 81.5062 78.4587 80.395 79.3772 79.8962C80.4961 79.2885 81.6163 78.6182 82.7107 78.0074C84.8233 76.8279 87.2217 76.0508 89.4775 75.0819C92.0688 73.9687 94.4506 72.6237 96.9287 71.2836C97.7943 70.8155 104.015 68.1188 103.911 67.3822C102.545 67.3366 101.179 67.2913 99.8133 67.2459C98.6424 67.207 96.8289 67.4716 95.7076 67.1097C95.0935 66.9112 94.4039 66.181 94.1721 65.6091C93.9427 65.0433 94.4584 62.4407 94.1586 62.2748C92.63 63.8354 91.6688 65.9098 90.3021 67.5935C88.7919 69.4543 86.8403 70.541 84.6894 71.5298C82.3142 72.6219 79.8559 73.4676 77.4285 74.4036C76.4047 74.7983 76.425 75.0241 76.3359 76.1466C76.2361 77.4011 76.2469 78.6735 76.2065 79.9314ZM199.634 127.13C202.208 127.406 204.847 127.249 207.442 127.464C208.386 127.543 209.695 127.659 208.745 128.927C208.147 129.725 206.231 129.469 205.361 129.524C203.028 129.673 200.557 129.593 198.218 129.558C197.726 129.551 197.182 129.405 196.684 129.438C196.109 129.475 195.421 129.889 194.898 129.886C194.575 129.884 194.459 129.543 194.181 129.512C193.575 129.444 192.968 129.394 192.357 129.394C183.112 129.396 173.995 129.21 164.773 129.201C160.364 129.196 155.883 129.12 151.476 128.913C150.55 128.869 145.279 129.058 145.425 127.392C145.5 126.534 147.22 126.413 147.848 126.321C148.313 126.254 148.796 126.265 149.262 126.24C150.5 126.173 151.043 126.471 150.782 125.116C149.791 119.977 148.015 115.73 144.222 112.034C141.12 109.013 137.385 106.272 133.872 103.749C129.606 100.685 126.145 97.4626 123.612 92.7743C122.133 90.0365 120.895 87.2375 120.135 84.2104C119.862 83.1213 119.855 81.8827 119.52 80.8328C119.262 80.0245 118.675 79.4588 118.329 78.6215C114.085 85.7106 108.459 91.6417 103.301 98.0335C100.837 101.087 98.0255 103.988 95.0809 106.644C94.2071 107.433 93.3917 108.256 92.576 109.104C91.8938 109.814 90.8107 110.445 90.2347 111.233C89.6821 111.989 89.8181 111.953 90.6592 112.553C91.771 113.346 92.9963 114.005 94.1256 114.778C95.9308 116.015 97.9012 117.059 99.5152 118.547C101.261 120.156 102.786 122.02 104.312 123.835C105.328 125.044 106.663 126.596 106.919 128.125C107.003 128.631 107.325 129.882 106.9 130.253C106.538 130.569 106.574 130.449 106.124 130.256C105.534 130.003 105.36 129.422 104.639 129.145C102.794 128.438 100.562 128.681 98.6424 128.672C96.7223 128.663 94.7862 128.879 92.8669 128.871C88.4842 128.853 84.1948 129.208 79.8134 129.398C75.1599 129.601 70.4493 129.115 65.8113 129.184C62.3749 129.235 58.8469 128.978 55.3156 129.169C53.4992 129.267 51.7153 129.04 49.9443 129.014C47.6255 128.981 45.2441 129.296 42.9054 129.341C39.0669 129.416 35.2752 129.415 31.4132 129.507C23.1061 129.706 14.8439 129.911 6.53188 130.043C5.42314 130.061 4.20933 130.023 3.11364 130.148C1.95071 130.28 2.55109 130.528 1.75316 130.946C-0.480684 132.118 0.0351932 127.774 0.0887276 126.92C0.375867 122.342 1.53814 117.851 2.9349 113.505C4.25998 109.383 5.33576 105.068 6.45799 100.856C7.68641 96.247 9.28691 91.8262 10.7403 87.262C12.2295 82.5851 13.442 77.7258 16.1468 73.58C16.7629 72.6359 17.3996 71.6198 18.3906 71.0245C19.5016 70.3571 19.5494 70.7469 19.5485 69.5256C19.5478 68.3752 19.6186 66.8384 19.3472 65.7408C19.1018 64.7491 19.1397 65.3371 18.5873 64.6247C18.1378 64.0454 17.6675 63.6494 17.3449 62.9459C15.3637 64.9548 10.8286 63.8947 8.91438 62.4482C6.57148 60.6776 4.78692 57.6905 4.13301 54.8456C3.60784 52.5611 4.25224 48.2065 6.78075 47.1079C8.01337 46.5724 12.5408 46.1675 12.722 44.4221C12.8153 43.5211 11.2219 42.2542 10.8542 41.4795C10.1729 40.0443 9.51852 38.1352 9.32916 36.5619C8.95929 33.4909 10.3534 30.057 12.5742 27.9827C16.6481 24.1773 23.8162 22.2244 29.0566 24.6387C27.9492 20.4084 27.2807 16.759 27.8383 12.3586C28.3188 8.56759 30.5555 6.44656 33.6333 4.55826C38.8855 1.33551 46.0277 0.0635152 52.033 1.00059C53.3977 1.21362 54.7073 1.67043 55.9709 2.03389C57.8065 2.56193 60.0041 2.38607 61.7373 3.24401C62.9941 3.86585 63.9484 5.10466 65.0521 5.93179C66.3406 6.8974 67.4113 8.33863 68.3066 9.67146C70.2212 12.5216 69.4731 17.8113 67.8706 20.6723C67.527 21.286 67.1025 21.8025 66.534 22.2213C65.942 22.6571 65.0397 22.7927 64.7346 23.3579C63.9533 24.8058 64.707 27.9402 64.8111 29.5051C64.9326 31.3221 64.0139 32.687 61.9535 32.8319C60.7616 32.916 60.7235 32.2245 60.1528 33.6474C59.7829 34.5696 59.4469 35.5744 58.9131 36.4199C57.8125 38.1624 55.7968 37.9923 53.9607 37.9451C51.8352 37.8903 49.7417 37.5545 47.6151 37.3425C48.1768 39.1421 49.7142 40.5389 50.6743 42.1421C51.9724 44.3104 52.7537 46.1078 52.9648 48.6341C53.1267 50.5751 52.7772 52.1079 51.449 53.5524C50.8993 54.1504 50.4119 54.1798 50.5484 54.8695C50.6316 55.2903 51.3592 55.9845 51.6167 56.3203C52.2978 57.2087 53.0887 58.0241 53.6882 58.9729C55.995 62.6234 56.6764 68.1883 56.6821 72.4379C56.6823 72.6328 56.7863 73.0471 56.7002 73.2486C56.6365 73.3975 56.1525 73.8689 56.1454 73.9094C56.0508 74.4558 56.5834 75.3924 57.4194 75.4851C58.2974 75.5823 59.9055 74.8496 60.7222 74.6089C62.0291 74.2235 63.3613 73.9391 64.6654 73.5433C66.7716 72.9042 68.868 72.3945 71.0092 71.8937C71.9768 71.6676 72.9497 71.4791 73.9204 71.2676C75.026 71.027 75.5397 70.5617 76.1104 71.6866C76.6 72.652 76.2956 72.827 77.4815 72.3405C78.6591 71.8572 79.8096 71.2581 80.9593 70.7126C82.987 69.7508 85.4018 68.8933 87.1509 67.4733C90.0685 65.1043 91.149 61.3317 93.9414 58.818C94.7189 58.1181 95.1828 58.1057 95.6744 57.1361C96.2007 56.0984 96.4721 54.7676 96.7486 53.6513C97.2333 51.6966 97.5782 49.7351 98.0177 47.7822C98.5652 45.3493 99.7485 43.1459 100.612 40.8254C100.948 39.9213 101.123 38.772 101.665 37.9595C101.809 37.7441 102.084 37.6226 102.196 37.4443C102.582 36.8322 102.578 36.6641 102.678 35.9276C103.146 32.4866 105.2 34.2968 107.444 35.0859C108.39 35.4184 112.881 37.5746 111.166 39.0085C113.21 39.6016 116.484 39.2793 116.456 42.2086C116.442 43.7096 115.544 45.3152 115.063 46.7201C114.635 47.9676 114.221 49.2199 113.786 50.4653C112.834 53.1936 111.679 55.8402 110.749 58.5769C110.326 59.8241 109.976 61.1005 109.386 62.2776C108.866 63.316 107.607 64.4606 107.399 65.5961C112.846 63.2722 117.885 59.9124 123.982 60.1265C126.652 60.2201 129.075 61.3423 130.549 63.6897C132.398 66.6318 133.614 69.926 135.421 72.8954C141.993 83.6971 149.832 93.5103 157.047 103.865C157.602 104.661 158.314 105.413 158.507 106.396C158.632 107.038 158.389 107.68 158.539 108.296C158.851 109.577 160.428 111.176 161.498 111.912C163.547 113.323 166.88 115.313 169.437 115.137C167.832 111.279 167.854 107.052 167.928 102.936C167.999 99.0272 168.422 95.1495 168.923 91.2807C169.037 90.4053 169.136 89.5939 169.387 88.7455C169.676 87.7722 170.072 87.8644 169.207 86.9895C167.877 85.6423 166.294 84.5338 164.952 83.1698C162.05 80.2201 159.076 77.9081 156.792 74.3857C154.62 71.0354 152.329 67.5882 150.721 63.9193C149.066 60.1424 148.404 56.109 147.583 52.1092C147.249 50.4861 146.034 48.6741 146.278 46.9792C146.587 44.8371 147.58 46.3969 147.984 47.5497C149.218 51.0686 152.108 54.218 154.501 57.0481C157.086 60.1053 160.249 62.6632 162.947 65.6315C165.886 68.8643 167.899 72.5797 170.513 76.0307C170.513 71.7479 169.051 67.3868 168.452 63.1501C167.926 59.4211 167.761 55.6803 167.428 51.9351C166.673 43.4276 167.326 34.6694 168.386 26.2227C168.89 22.2111 168.604 18.294 168.619 14.2688C168.624 12.9877 168.094 10.0351 168.77 8.89831C170.064 6.72087 170.819 11.4821 170.884 12.192C171.276 16.4208 170.574 20.6024 170.932 24.8131C171.307 29.2102 172.12 33.4839 172.812 37.8301C173.562 42.536 174.783 47.1358 175.951 51.7515C177.178 56.5977 178.21 61.545 179.574 66.3524C179.941 64.8413 179.425 62.9849 179.323 61.4459C179.178 59.2434 178.894 57.0406 178.869 54.8324C178.83 51.313 178.802 47.7284 179.001 44.2255C179.198 40.7727 179.138 37.1547 180.197 33.8283C180.7 32.2495 181.437 30.7092 182.158 29.2219C183.048 27.388 183.362 25.6099 183.855 23.6594C184.277 21.989 184.895 20.3626 185.176 18.6588C185.351 17.5992 185.838 14.4712 187.052 16.8411C187.756 18.2166 187.452 20.2558 187.471 21.7335C187.496 23.628 187.206 25.4701 187.162 27.3566C187.076 31.058 187.013 34.755 186.737 38.4502C186.448 42.327 186.701 45.8014 187.438 49.6214C188.245 53.8028 188.482 57.9933 188.9 62.2259C189.116 64.4113 189.479 66.5845 189.655 68.773C189.748 69.9319 189.271 73.2553 190.102 74.0806C190.182 72.0733 190.757 70.0642 191.193 68.1082C191.71 65.791 191.918 63.3549 192.299 61.0045C192.916 57.1965 194.112 53.5599 194.903 49.7946C196.535 42.0328 197.891 32.057 204.728 26.9766C205.623 26.3118 206.606 25.8211 207.573 25.2741C208.12 24.9644 208.934 24.1631 209.56 24.0233C210.244 23.8707 210.529 23.9893 210.806 24.7825C211.193 25.8884 210.486 26.4049 209.826 27.2082C207.542 29.9875 206.567 33.5505 205.157 36.8101C201.928 44.2741 200.499 52.1468 200.483 60.215C200.474 64.4387 200.183 68.5124 199.733 72.7104C199.248 77.2283 198.61 82.0066 197.237 86.3528C198.614 86.6614 200.107 86.2013 200.481 87.8016C200.573 88.1947 200.407 88.6595 200.508 89.1711C200.607 89.6684 200.844 90.1631 200.985 90.6522C201.275 91.6638 201.429 92.6619 201.57 93.7008C202.116 97.7154 203.053 101.534 203.152 105.604C203.244 109.367 202.508 113.179 201.829 116.87C201.145 120.587 199.184 123.755 197.64 127.116C198.305 127.116 198.969 127.123 199.634 127.13Z" fill="black"/>
<path fill-rule="evenodd" clip-rule="evenodd" d="M112.253 118.586C111.521 118.793 107.986 119.184 107.986 120.293C107.987 120.958 111.517 120.945 112.142 121.017C112.179 120.207 112.216 119.396 112.253 118.586ZM120.055 126.24C122.092 126.627 124.857 126.082 126.16 124.287C126.768 123.448 127.057 122.171 127.255 121.17C127.444 120.216 128.028 117.834 127.631 116.94C127.143 115.841 122.463 116.989 121.1 117.115C118.722 117.335 116.263 117.361 113.884 117.205C113.884 119.662 113.758 122.057 115.203 124.171C116.246 125.697 118.203 126.057 120.055 126.24ZM119.646 129.274C117.433 128.464 115.109 128.991 113.668 126.615C113.302 126.012 112.994 125.364 112.773 124.694C112.665 124.401 112.581 124.1 112.521 123.793C112.633 123.13 112.391 122.944 111.793 123.232C110.62 123.004 109.334 123.809 108.098 123.572C105.101 122.996 105.645 118.703 107.657 117.217C108.054 116.923 108.451 116.842 108.906 116.697C109.908 116.377 110.451 116.734 111.368 116.643C112.109 116.57 112.313 115.793 113.109 115.451C113.63 115.227 114.354 115.244 114.902 115.222C117.771 115.104 120.649 115.105 123.536 114.918C124.882 114.831 126.336 115.044 127.655 114.814C128.273 114.706 128.184 114.295 128.769 114.656C129.375 115.029 129.113 116.41 129.083 116.96C128.906 120.144 128.716 123.559 127.011 126.343C125.45 128.889 122.38 129.15 119.646 129.274Z" fill="black"/>
<path fill-rule="evenodd" clip-rule="evenodd" d="M2.75788 130.152C3.46998 130.144 4.18185 130.136 4.89151 130.129C4.17853 130.137 3.46821 130.144 2.75788 130.152Z" fill="black"/>
<path fill-rule="evenodd" clip-rule="evenodd" d="M200.487 62.2655C200.486 61.5815 200.485 60.8975 200.483 60.2148C200.484 60.8993 200.486 61.5824 200.487 62.2655Z" fill="black"/>
<path fill-rule="evenodd" clip-rule="evenodd" d="M19.3494 65.0743C19.3472 65.7406 19.3449 66.4069 19.3427 67.0717C19.3447 66.405 19.3469 65.7395 19.3494 65.0743Z" fill="black"/>
<path fill-rule="evenodd" clip-rule="evenodd" d="M78.54 129.396C79.1066 129.397 79.6731 129.398 80.237 129.399C79.6696 129.399 79.105 129.398 78.54 129.396Z" fill="black"/>
<path fill-rule="evenodd" clip-rule="evenodd" d="M44.1415 129.26C44.7081 129.262 45.2744 129.264 45.8383 129.266C45.2709 129.265 44.7063 129.262 44.1415 129.26Z" fill="black"/>
<path fill-rule="evenodd" clip-rule="evenodd" d="M168.003 101.588C167.978 102.038 167.953 102.487 167.928 102.936C167.953 102.486 167.978 102.037 168.003 101.588Z" fill="black"/>
<path fill-rule="evenodd" clip-rule="evenodd" d="M199.634 127.13C199.196 127.125 198.758 127.121 198.32 127.116C198.76 126.933 199.198 126.941 199.634 127.13Z" fill="black"/>
<path fill-rule="evenodd" clip-rule="evenodd" d="M160.764 129.121C161.079 129.116 161.393 129.112 161.704 129.106C161.389 129.111 161.077 129.116 160.764 129.121Z" fill="black"/>
<path fill-rule="evenodd" clip-rule="evenodd" d="M200.317 67.8152C200.325 67.4752 200.332 67.1354 200.34 66.7968C200.332 67.137 200.325 67.4761 200.317 67.8152Z" fill="black"/>
<path fill-rule="evenodd" clip-rule="evenodd" d="M170.932 24.8132C170.907 24.4626 170.881 24.1122 170.855 23.7625C170.881 24.1133 170.907 24.4633 170.932 24.8132Z" fill="black"/>
<path fill-rule="evenodd" clip-rule="evenodd" d="M200.472 63.6045C200.476 63.253 200.48 62.9017 200.485 62.5515C200.48 62.9032 200.476 63.2539 200.472 63.6045Z" fill="black"/>
<path fill-rule="evenodd" clip-rule="evenodd" d="M101.658 128.685C101.937 128.69 102.217 128.694 102.494 128.697C102.214 128.693 101.936 128.689 101.658 128.685Z" fill="black"/>
<path fill-rule="evenodd" clip-rule="evenodd" d="M173.621 129.259C173.894 129.264 174.167 129.27 174.438 129.275C174.164 129.27 173.893 129.264 173.621 129.259Z" fill="black"/>
<path fill-rule="evenodd" clip-rule="evenodd" d="M203.121 104.546C203.101 104.238 203.082 103.93 203.062 103.622C203.082 103.931 203.102 104.238 203.121 104.546Z" fill="black"/>
<path fill-rule="evenodd" clip-rule="evenodd" d="M198.218 129.558C198.44 129.557 198.663 129.556 198.882 129.555C198.659 129.557 198.439 129.558 198.218 129.558Z" fill="black"/>
<path fill-rule="evenodd" clip-rule="evenodd" d="M167.93 129.273C168.15 129.267 168.37 129.262 168.588 129.257C168.367 129.262 168.148 129.268 167.93 129.273Z" fill="black"/>
<path fill-rule="evenodd" clip-rule="evenodd" d="M118.446 129.105C118.689 129.103 118.931 129.102 119.171 129.1C118.928 129.101 118.687 129.103 118.446 129.105Z" fill="black"/>
<path fill-rule="evenodd" clip-rule="evenodd" d="M62.5649 129.104C62.7952 129.105 63.0257 129.107 63.2536 129.109C63.0224 129.108 62.7936 129.106 62.5649 129.104Z" fill="black"/>
<path fill-rule="evenodd" clip-rule="evenodd" d="M48.9709 129.141C49.2059 129.128 49.4404 129.114 49.6731 129.102C49.4375 129.115 49.2043 129.128 48.9709 129.141Z" fill="black"/>
<path fill-rule="evenodd" clip-rule="evenodd" d="M114.054 39.6325C113.704 39.6024 113.355 39.5723 113.005 39.542C113.355 39.5666 113.725 39.3595 114.054 39.6325Z" fill="black"/>
<path fill-rule="evenodd" clip-rule="evenodd" d="M203.154 127.263C202.81 127.228 202.465 127.193 202.12 127.158C202.465 127.193 202.81 127.228 203.154 127.263Z" fill="black"/>
<path fill-rule="evenodd" clip-rule="evenodd" d="M179.114 41.7549C179.091 42.0568 179.068 42.359 179.045 42.6601C179.068 42.3577 179.091 42.0562 179.114 41.7549Z" fill="black"/>
<path fill-rule="evenodd" clip-rule="evenodd" d="M200.559 54.3447C200.582 54.0585 200.606 53.7722 200.629 53.4871C200.606 53.7738 200.582 54.0591 200.559 54.3447Z" fill="black"/>
<path fill-rule="evenodd" clip-rule="evenodd" d="M178.977 46.4388C178.952 46.7404 178.927 47.0417 178.903 47.3421C178.927 47.0403 178.952 46.7395 178.977 46.4388Z" fill="black"/>
<path fill-rule="evenodd" clip-rule="evenodd" d="M200.413 65.9006C200.41 65.6093 200.408 65.3179 200.406 65.0275C200.594 65.3179 200.587 65.6086 200.413 65.9006Z" fill="black"/>
<path fill-rule="evenodd" clip-rule="evenodd" d="M168.008 107.74C168.005 108.032 168.003 108.324 168 108.615C167.807 108.32 167.845 108.029 168.008 107.74Z" fill="black"/>
<path fill-rule="evenodd" clip-rule="evenodd" d="M189.975 73.9547C189.942 73.6591 189.908 73.3634 189.874 73.0687C189.908 73.3647 189.942 73.6598 189.975 73.9547Z" fill="black"/>
<path fill-rule="evenodd" clip-rule="evenodd" d="M8.07658 46.8271C7.84807 47.1291 7.53681 46.9223 7.26516 46.959C7.53593 46.915 7.80626 46.8712 8.07658 46.8271Z" fill="black"/>
<path fill-rule="evenodd" clip-rule="evenodd" d="M121.072 115.127C120.784 115.128 120.495 115.128 120.206 115.128C120.495 115.128 120.784 115.128 121.072 115.127Z" fill="black"/>
<path fill-rule="evenodd" clip-rule="evenodd" d="M167.195 48.0677C167.222 48.3133 167.249 48.5589 167.276 48.8035C167.249 48.5575 167.222 48.3126 167.195 48.0677Z" fill="black"/>
<path fill-rule="evenodd" clip-rule="evenodd" d="M24.5223 23.6805C24.2321 23.6863 23.9418 23.692 23.6516 23.6978C23.9387 23.5288 24.2281 23.4799 24.5223 23.6805Z" fill="black"/>
<path fill-rule="evenodd" clip-rule="evenodd" d="M178.97 50.6864C178.951 50.9439 178.932 51.2012 178.914 51.4576C178.932 51.2001 178.951 50.9432 178.97 50.6864Z" fill="black"/>
<path fill-rule="evenodd" clip-rule="evenodd" d="M171.011 19.0784C171.033 18.8437 171.055 18.609 171.078 18.3756C171.055 18.6108 171.033 18.8446 171.011 19.0784Z" fill="black"/>
<path fill-rule="evenodd" clip-rule="evenodd" d="M168.73 18.3431C168.707 18.5978 168.684 18.8526 168.662 19.1063C168.684 18.8513 168.707 18.5971 168.73 18.3431Z" fill="black"/>
<path fill-rule="evenodd" clip-rule="evenodd" d="M42.6601 1.3335C42.3647 1.36933 42.0694 1.40517 41.7743 1.44079C42.0696 1.40495 42.3647 1.36933 42.6601 1.3335Z" fill="black"/>
<path fill-rule="evenodd" clip-rule="evenodd" d="M21.3295 23.8834C21.0264 23.9144 20.7233 23.9454 20.4205 23.9763C20.7236 23.9454 21.0266 23.9144 21.3295 23.8834Z" fill="black"/>
<path fill-rule="evenodd" clip-rule="evenodd" d="M187.404 24.6297C187.423 24.3928 187.441 24.1556 187.459 23.92C187.441 24.1572 187.422 24.3934 187.404 24.6297Z" fill="black"/>
<path fill-rule="evenodd" clip-rule="evenodd" d="M11.3823 63.731C11.5568 63.7336 11.7311 63.736 11.903 63.7387C11.7278 63.736 11.555 63.7336 11.3823 63.731Z" fill="black"/>
<path fill-rule="evenodd" clip-rule="evenodd" d="M168.739 92.9729C168.721 93.2353 168.704 93.4974 168.686 93.7591C168.704 93.4967 168.721 93.2348 168.739 92.9729Z" fill="black"/>
<path fill-rule="evenodd" clip-rule="evenodd" d="M186.543 41.9156C186.536 41.6628 186.53 41.4101 186.522 41.158C186.53 41.411 186.537 41.6632 186.543 41.9156Z" fill="black"/>
<path fill-rule="evenodd" clip-rule="evenodd" d="M50.0943 0.735161C49.8251 0.735161 49.5558 0.735382 49.287 0.735382C49.5563 0.550445 49.8253 0.555091 50.0943 0.735161Z" fill="black"/>
<path fill-rule="evenodd" clip-rule="evenodd" d="M121.97 60.2476C121.675 60.2551 121.38 60.2626 121.086 60.2701C121.375 60.0653 121.67 60.0602 121.97 60.2476Z" fill="black"/>
<path fill-rule="evenodd" clip-rule="evenodd" d="M147.739 128.675C147.914 128.679 148.089 128.683 148.262 128.687C148.086 128.683 147.913 128.679 147.739 128.675Z" fill="black"/>
<path fill-rule="evenodd" clip-rule="evenodd" d="M154.322 128.982C154.497 128.976 154.671 128.97 154.843 128.964C154.668 128.97 154.495 128.976 154.322 128.982Z" fill="black"/>
<path fill-rule="evenodd" clip-rule="evenodd" d="M51.3026 129.104C51.4846 129.108 51.6667 129.113 51.8463 129.117C51.6636 129.113 51.4831 129.108 51.3026 129.104Z" fill="black"/>
<path fill-rule="evenodd" clip-rule="evenodd" d="M202.97 101.621C202.944 101.371 202.918 101.121 202.892 100.872C202.918 101.122 202.944 101.372 202.97 101.621Z" fill="black"/>
<path fill-rule="evenodd" clip-rule="evenodd" d="M179.193 59.4797C179.213 59.718 179.234 59.9562 179.254 60.1929C179.234 59.9545 179.213 59.7171 179.193 59.4797Z" fill="black"/>
<path fill-rule="evenodd" clip-rule="evenodd" d="M188.343 55.3891C188.315 55.1365 188.286 54.8838 188.258 54.6321C188.287 54.8849 188.315 55.1369 188.343 55.3891Z" fill="black"/>
<path fill-rule="evenodd" clip-rule="evenodd" d="M52.7796 129.254C52.9632 129.252 53.1471 129.249 53.3287 129.246C53.1442 129.249 52.9619 129.252 52.7796 129.254Z" fill="black"/>
<path fill-rule="evenodd" clip-rule="evenodd" d="M119.646 129.274C119.825 129.266 120.003 129.258 120.179 129.25C120 129.258 119.823 129.266 119.646 129.274Z" fill="black"/>
<path fill-rule="evenodd" clip-rule="evenodd" d="M186.849 36.9423C186.841 36.6864 186.833 36.4304 186.825 36.1749C186.834 36.4311 186.841 36.6866 186.849 36.9423Z" fill="black"/>
<path fill-rule="evenodd" clip-rule="evenodd" d="M35.3692 129.422C35.5484 129.421 35.7274 129.419 35.9041 129.418C35.724 129.419 35.5469 129.421 35.3692 129.422Z" fill="black"/>
<path fill-rule="evenodd" clip-rule="evenodd" d="M186.775 129.419C186.959 129.421 187.143 129.423 187.325 129.425C187.14 129.423 186.957 129.421 186.775 129.419Z" fill="black"/>
<path fill-rule="evenodd" clip-rule="evenodd" d="M190.751 129.397C190.929 129.41 191.107 129.423 191.282 129.435C191.104 129.422 190.927 129.41 190.751 129.397Z" fill="black"/>
<path fill-rule="evenodd" clip-rule="evenodd" d="M192.357 129.394C192.538 129.399 192.719 129.405 192.898 129.409C192.716 129.403 192.537 129.399 192.357 129.394Z" fill="black"/>
<path fill-rule="evenodd" clip-rule="evenodd" d="M200.603 56.4038C200.591 56.1521 200.579 55.9001 200.568 55.649C200.579 55.9012 200.591 56.1525 200.603 56.4038Z" fill="black"/>
<path fill-rule="evenodd" clip-rule="evenodd" d="M79.0814 126.094C79.632 126.066 80.1828 126.037 80.7337 126.008C80.1828 126.037 79.632 126.065 79.0814 126.094Z" fill="black"/>
<path fill-rule="evenodd" clip-rule="evenodd" d="M45.8571 34.5555C46.3352 34.5971 46.8132 34.6387 47.2908 34.6799C46.8128 34.6385 46.3349 34.5969 45.8571 34.5555Z" fill="black"/>
<path fill-rule="evenodd" clip-rule="evenodd" d="M180.832 55.3392C180.846 55.7954 180.862 56.2515 180.877 56.7063C180.862 56.25 180.846 55.7947 180.832 55.3392Z" fill="black"/>
<path fill-rule="evenodd" clip-rule="evenodd" d="M190.697 126.874C191.197 126.905 191.695 126.935 192.194 126.965C191.692 126.988 191.183 127.131 190.697 126.874Z" fill="black"/>
<path fill-rule="evenodd" clip-rule="evenodd" d="M187.744 72.9182C187.748 72.4831 187.752 72.0479 187.755 71.6139C187.752 72.0492 187.748 72.4837 187.744 72.9182Z" fill="black"/>
<path fill-rule="evenodd" clip-rule="evenodd" d="M186.467 86.5896C186.905 86.5954 187.343 86.6013 187.781 86.6071C187.343 86.6011 186.905 86.5954 186.467 86.5896Z" fill="black"/>
<path fill-rule="evenodd" clip-rule="evenodd" d="M76.2383 78.9398C76.2272 79.2714 76.2164 79.603 76.206 79.9331C76.2171 79.601 76.2277 79.2705 76.2383 78.9398Z" fill="black"/>
<path fill-rule="evenodd" clip-rule="evenodd" d="M193.754 64.8979C193.737 65.228 193.719 65.5578 193.701 65.8861C193.719 65.5558 193.737 65.2269 193.754 64.8979Z" fill="black"/>
<path fill-rule="evenodd" clip-rule="evenodd" d="M184.413 125.406C184.731 125.384 185.05 125.363 185.368 125.342C185.128 125.534 184.887 125.55 184.413 125.406Z" fill="black"/>
<path fill-rule="evenodd" clip-rule="evenodd" d="M182.281 82.2689C182.303 82.6246 182.325 82.9804 182.346 83.335C182.324 82.979 182.303 82.624 182.281 82.2689Z" fill="black"/>
<path fill-rule="evenodd" clip-rule="evenodd" d="M63.1746 26.1234C63.1779 25.7799 63.1812 25.4363 63.1848 25.0941C63.1814 25.4381 63.1781 25.7808 63.1746 26.1234Z" fill="black"/>
<path fill-rule="evenodd" clip-rule="evenodd" d="M182.666 86.6613L183.854 86.6354C183.462 86.8247 183.066 86.8314 182.666 86.6613Z" fill="black"/>
<path fill-rule="evenodd" clip-rule="evenodd" d="M193.62 89.1967C193.34 89.1991 193.06 89.2013 192.782 89.2042C193.063 89.202 193.341 89.1993 193.62 89.1967Z" fill="black"/>
<path fill-rule="evenodd" clip-rule="evenodd" d="M91.0923 125.542C91.4799 125.547 91.8675 125.553 92.255 125.557C91.8646 125.753 91.4766 125.781 91.0923 125.542Z" fill="black"/>
<path fill-rule="evenodd" clip-rule="evenodd" d="M18.0842 126.685C18.4776 126.65 18.8711 126.614 19.2644 126.579C18.8711 126.614 18.4776 126.65 18.0842 126.685Z" fill="black"/>
<path fill-rule="evenodd" clip-rule="evenodd" d="M180.968 58.2688C180.987 58.6258 181.007 58.9829 181.026 59.3388C181.007 58.9813 180.987 58.6252 180.968 58.2688Z" fill="black"/>
<path fill-rule="evenodd" clip-rule="evenodd" d="M55.4187 35.3936C55.7504 35.2301 56.0846 35.2027 56.4222 35.3759C56.0875 35.3819 55.7532 35.3879 55.4187 35.3936Z" fill="black"/>
<path fill-rule="evenodd" clip-rule="evenodd" d="M170.121 62.3917C170.149 62.6928 170.176 62.9941 170.204 63.2943C170.176 62.9928 170.149 62.6921 170.121 62.3917Z" fill="black"/>
<path fill-rule="evenodd" clip-rule="evenodd" d="M198.133 55.3641C197.963 55.0694 197.969 54.7763 198.142 54.4858C198.139 54.779 198.136 55.0716 198.133 55.3641Z" fill="black"/>
<path fill-rule="evenodd" clip-rule="evenodd" d="M181.023 45.135C181.023 45.433 181.023 45.7312 181.023 46.0283C181.023 45.7296 181.023 45.4323 181.023 45.135Z" fill="black"/>
<path fill-rule="evenodd" clip-rule="evenodd" d="M192.909 86.447C193.251 86.3424 193.592 86.1944 193.932 86.4506C193.591 86.4495 193.25 86.4481 192.909 86.447Z" fill="black"/>
<path fill-rule="evenodd" clip-rule="evenodd" d="M82.6098 125.96C82.9533 125.927 83.2967 125.896 83.64 125.864C83.2967 125.896 82.9533 125.927 82.6098 125.96Z" fill="black"/>
<path fill-rule="evenodd" clip-rule="evenodd" d="M35.5249 125.96C35.8395 125.822 36.1534 125.749 36.4633 125.971C36.1503 125.967 35.8377 125.964 35.5249 125.96Z" fill="black"/>
<path fill-rule="evenodd" clip-rule="evenodd" d="M99.8686 125.516C100.205 125.369 100.541 125.289 100.873 125.527C100.538 125.523 100.203 125.52 99.8686 125.516Z" fill="black"/>
<path fill-rule="evenodd" clip-rule="evenodd" d="M24.9895 81.9976C25.0147 82.3013 25.0402 82.605 25.0652 82.9079C25.0397 82.6039 25.0145 82.3008 24.9895 81.9976Z" fill="black"/>
<path fill-rule="evenodd" clip-rule="evenodd" d="M103.084 64.5029C103.415 64.3826 103.745 64.3197 104.07 64.5208C103.741 64.5146 103.413 64.5089 103.084 64.5029Z" fill="black"/>
<path fill-rule="evenodd" clip-rule="evenodd" d="M180.963 73.5439C180.981 73.8408 181 74.1377 181.018 74.4339C181 74.1368 180.981 73.8404 180.963 73.5439Z" fill="black"/>
<path fill-rule="evenodd" clip-rule="evenodd" d="M24.7756 46.7563C24.7482 46.9955 24.7207 47.2348 24.6935 47.4726C24.721 47.2331 24.7482 46.9948 24.7756 46.7563Z" fill="black"/>
<path fill-rule="evenodd" clip-rule="evenodd" d="M5.59345 116.106C5.57642 116.339 5.55961 116.572 5.54279 116.803C5.56027 116.57 5.57686 116.338 5.59345 116.106Z" fill="black"/>
<path fill-rule="evenodd" clip-rule="evenodd" d="M187.891 75.115C187.873 74.8743 187.854 74.6336 187.835 74.394C187.854 74.6352 187.873 74.8752 187.891 75.115Z" fill="black"/>
<path fill-rule="evenodd" clip-rule="evenodd" d="M163.79 125.067C164.084 125.069 164.379 125.071 164.674 125.073C164.379 125.071 164.084 125.069 163.79 125.067Z" fill="black"/>
<path fill-rule="evenodd" clip-rule="evenodd" d="M76.1266 80.9878C76.1817 81.163 76.2368 81.3384 76.2918 81.5138C75.924 81.6028 75.8689 81.4274 76.1266 80.9878Z" fill="black"/>
<path fill-rule="evenodd" clip-rule="evenodd" d="M98.2376 64.1068C98.5371 64.1055 98.8367 64.1044 99.1362 64.103C98.8371 64.245 98.5378 64.3426 98.2376 64.1068Z" fill="black"/>
<path fill-rule="evenodd" clip-rule="evenodd" d="M25.1574 83.4355C25.1676 83.701 25.1778 83.9667 25.1875 84.2313C25.1771 83.9656 25.1672 83.7006 25.1574 83.4355Z" fill="black"/>
<path fill-rule="evenodd" clip-rule="evenodd" d="M28.3261 126.251C28.6153 126.25 28.9042 126.25 29.1933 126.25C28.9039 126.25 28.6153 126.25 28.3261 126.251Z" fill="black"/>
<path fill-rule="evenodd" clip-rule="evenodd" d="M170.848 86.2345C170.859 86.4789 170.87 86.7234 170.881 86.9665C170.87 86.7214 170.859 86.4781 170.848 86.2345Z" fill="black"/>
<path fill-rule="evenodd" clip-rule="evenodd" d="M22.1882 126.549C22.4725 126.36 22.7574 126.376 23.0428 126.545C22.7579 126.547 22.473 126.548 22.1882 126.549Z" fill="black"/>
<path fill-rule="evenodd" clip-rule="evenodd" d="M29.6738 43.3416C29.6891 43.5911 29.7045 43.8408 29.7205 44.0888C29.7052 43.8388 29.6895 43.5902 29.6738 43.3416Z" fill="black"/>
<path fill-rule="evenodd" clip-rule="evenodd" d="M20.7092 126.574C21.0047 126.575 21.3003 126.577 21.5956 126.578C21.2992 126.78 21.0038 126.789 20.7092 126.574Z" fill="black"/>
<path fill-rule="evenodd" clip-rule="evenodd" d="M184.363 39.4245C184.365 39.1709 184.367 38.9176 184.369 38.6648C184.367 38.9185 184.365 39.1714 184.363 39.4245Z" fill="black"/>
<path fill-rule="evenodd" clip-rule="evenodd" d="M48.6796 34.9912C48.9623 35.0282 49.245 35.0651 49.5275 35.1018C49.2448 35.0649 48.9621 35.0282 48.6796 34.9912Z" fill="black"/>
<path fill-rule="evenodd" clip-rule="evenodd" d="M23.7317 56.8694C23.7355 57.1061 23.7392 57.343 23.7436 57.5786C23.7399 57.3415 23.7359 57.1054 23.7317 56.8694Z" fill="black"/>
<path fill-rule="evenodd" clip-rule="evenodd" d="M186.266 56.8352C186.25 56.5941 186.235 56.3529 186.219 56.1129C186.235 56.3545 186.251 56.5949 186.266 56.8352Z" fill="black"/>
<path fill-rule="evenodd" clip-rule="evenodd" d="M120.327 126.292C120.676 126.323 121.025 126.355 121.374 126.386C121.025 126.355 120.676 126.323 120.327 126.292Z" fill="black"/>
<path fill-rule="evenodd" clip-rule="evenodd" d="M119.162 117.261C118.973 117.264 118.785 117.267 118.598 117.271C118.787 117.268 118.974 117.265 119.162 117.261Z" fill="black"/>
<path fill-rule="evenodd" clip-rule="evenodd" d="M119.178 126.153C119.47 126.182 119.763 126.211 120.056 126.24C119.763 126.211 119.47 126.182 119.178 126.153Z" fill="black"/>
<path fill-rule="evenodd" clip-rule="evenodd" d="M66.5236 106.45C66.9043 108.601 63.5613 110.705 63.2963 107.647C63.1994 106.529 63.9471 105.742 64.7844 105.059C65.9728 104.089 66.6366 105.018 66.5236 106.45Z" fill="black"/>
<path fill-rule="evenodd" clip-rule="evenodd" d="M29.6749 80.2053C30.4624 80.5276 36.4793 82.4883 33.3539 83.4745C32.5266 83.7355 31.276 83.7744 30.5589 83.3145C29.6961 82.761 28.8258 81.1278 29.6749 80.2053Z" fill="black"/>
<path fill-rule="evenodd" clip-rule="evenodd" d="M31.1557 51.0748C33.198 50.8376 35.0796 54.1919 32.5617 54.0831C30.729 54.0037 28.2642 51.0748 31.1557 51.0748Z" fill="black"/>
<path fill-rule="evenodd" clip-rule="evenodd" d="M38.4614 59.2992C40.1667 60.7871 37.0058 64.1171 35.7508 62.8283C35.11 62.1699 35.701 60.7517 36.23 60.2009C36.7728 59.6357 37.7387 59.5295 38.4614 59.2992Z" fill="black"/>
<path fill-rule="evenodd" clip-rule="evenodd" d="M43.5383 97.8725C42.5316 98.0324 38.1041 99.4792 39.0275 96.8513C39.3797 95.8492 40.3619 96.1466 41.2598 96.1926C42.707 96.2665 43.5383 96.1972 43.5383 97.8725Z" fill="black"/>
<path fill-rule="evenodd" clip-rule="evenodd" d="M40.622 104.641C42.1292 105.447 39.9261 109.96 38.6769 108.999C36.9436 107.667 39.3142 105.046 40.622 104.641Z" fill="black"/>
<path fill-rule="evenodd" clip-rule="evenodd" d="M47.1952 101.014C47.9281 100.714 51.3829 104.038 50.0677 104.962C49.3937 105.436 48.1166 104.624 47.7102 104.134C46.9484 103.215 46.8793 102.082 47.1952 101.014Z" fill="black"/>
<path fill-rule="evenodd" clip-rule="evenodd" d="M27.263 73.8517C28.012 73.9747 29.3052 74.0136 29.3537 75.0662C29.3961 75.9913 28.2363 76.291 27.4198 76.3636C26.5725 76.4388 25.451 76.1997 25.4348 75.1345C25.4178 73.9853 27.2364 74.0545 27.263 73.8517Z" fill="black"/>
<path fill-rule="evenodd" clip-rule="evenodd" d="M45.7341 119.655C46.5318 120.139 50.2527 121.883 48.6577 123.142C48.0608 123.614 46.2515 122.64 45.8443 122.145C45.3582 121.555 44.8833 120.171 45.7341 119.655Z" fill="black"/>
<path fill-rule="evenodd" clip-rule="evenodd" d="M56.0777 107.003C55.9625 105.078 59.2095 104.312 58.5363 107.044C58.3465 107.814 58.1629 108.983 57.2106 109.028C56.085 109.081 56.0443 107.749 56.0777 107.003Z" fill="black"/>
<path fill-rule="evenodd" clip-rule="evenodd" d="M46.0473 73.5347C46.0699 74.9947 43.2724 76.2822 43.2507 73.9681C43.2315 71.9001 46.1517 71.2949 46.0473 73.5347Z" fill="black"/>
<path fill-rule="evenodd" clip-rule="evenodd" d="M44.2 65.9307C44.8893 66.1528 45.8053 66.2671 45.8659 67.1429C45.9303 68.0698 45.0693 68.4824 44.2946 68.4304C43.6593 68.3877 42.7191 67.9174 42.6037 67.2281C42.4344 66.2163 43.4219 66.1501 44.2 65.9307Z" fill="black"/>
<path fill-rule="evenodd" clip-rule="evenodd" d="M31.3822 92.6609C31.3705 91.4562 33.7849 90.0083 34.2295 91.4062C34.3717 91.8535 33.2338 93.8592 32.8553 94.0094C31.8539 94.407 31.7141 93.4805 31.3822 92.6609Z" fill="black"/>
<path fill-rule="evenodd" clip-rule="evenodd" d="M51.1667 112.713C50.3509 113.443 47.9036 115.494 48.0865 112.741C48.2033 110.981 51.382 111.073 51.1667 112.713Z" fill="black"/>
<path fill-rule="evenodd" clip-rule="evenodd" d="M91.0394 120.583C91.3069 119.425 95.1357 121.434 93.858 122.896C93.4292 123.387 92.3079 122.943 91.8768 122.652C91.0235 122.076 91.0049 121.545 91.0394 120.583Z" fill="black"/>
<path fill-rule="evenodd" clip-rule="evenodd" d="M69.7065 95.7983C69.8558 95.2822 70.0217 94.3695 70.5141 94.0401C71.4052 93.4441 72.181 94.3432 72.1812 95.2906C72.1814 97.0581 70.1695 97.6156 69.7065 95.7983Z" fill="black"/>
<path fill-rule="evenodd" clip-rule="evenodd" d="M60.2169 116.464C61.2111 116.692 63.4245 119.109 62.1408 120.094C60.9053 121.043 59.2621 117.186 60.2169 116.464Z" fill="black"/>
<path fill-rule="evenodd" clip-rule="evenodd" d="M61.1633 98.1721C62.4415 98.2741 64.1984 100.344 62.2116 100.673C60.6576 100.93 58.8502 98.6791 61.1633 98.1721Z" fill="black"/>
<path fill-rule="evenodd" clip-rule="evenodd" d="M72.7351 107.697C73.0556 106.617 76.2257 107.774 76.0476 108.963C75.9529 109.595 74.6568 109.744 73.9755 109.577C72.9725 109.33 72.7121 108.672 72.7351 107.697Z" fill="black"/>
<path fill-rule="evenodd" clip-rule="evenodd" d="M35.3679 47.3922C35.3909 45.9963 38.0731 45.4273 38.2696 46.8341C38.4472 48.1049 35.3343 49.4572 35.3679 47.3922Z" fill="black"/>
<path fill-rule="evenodd" clip-rule="evenodd" d="M71.8489 122.08C72.0423 121.378 72.1257 120.534 73.0023 120.441C74.0062 120.335 73.9766 121.105 73.8587 121.903C73.5375 124.073 72.311 124.182 71.8489 122.08Z" fill="black"/>
<path fill-rule="evenodd" clip-rule="evenodd" d="M29.4913 64C28.093 64.3155 25.5319 61.6224 27.0973 61.0446C28.2003 60.6368 29.4913 63.1875 29.4913 64Z" fill="black"/>
<path fill-rule="evenodd" clip-rule="evenodd" d="M47.3262 84.919C46.6145 85.2542 46.4506 85.4575 45.904 84.9075C45.4279 84.4286 45.4489 83.0942 45.8575 82.596C47.4224 80.6883 47.3857 84.147 47.3262 84.919Z" fill="black"/>
<path fill-rule="evenodd" clip-rule="evenodd" d="M53.1322 81.0499C53.8744 81.1444 56.0797 83.2362 54.9314 84.0675C53.5242 85.086 52.7281 81.8954 53.1322 81.0499Z" fill="black"/>
<path fill-rule="evenodd" clip-rule="evenodd" d="M69.1899 81.6007C68.6504 83.6781 67.3038 82.2803 67.3801 80.7083C67.5027 78.1904 68.8981 80.3833 69.1899 81.6007Z" fill="black"/>
<path fill-rule="evenodd" clip-rule="evenodd" d="M77.3775 114.966C78.2903 115.343 79.5291 118.832 78.2255 119.02C76.7612 119.23 77.2488 115.692 77.3775 114.966Z" fill="black"/>
<path fill-rule="evenodd" clip-rule="evenodd" d="M65.9794 113.006C67.0238 112.653 67.4065 114.856 66.7994 115.266C65.464 116.166 65.7456 113.526 65.9794 113.006Z" fill="black"/>
<path fill-rule="evenodd" clip-rule="evenodd" d="M56.0777 107.003C56.0645 107.295 56.0514 107.588 56.0377 107.878C56.0507 107.585 56.064 107.294 56.0777 107.003Z" fill="black"/>
<path fill-rule="evenodd" clip-rule="evenodd" d="M91.0394 120.583C91.0286 120.883 91.0178 121.183 91.0065 121.481C91.0169 121.181 91.0282 120.882 91.0394 120.583Z" fill="black"/>
<path fill-rule="evenodd" clip-rule="evenodd" d="M72.7351 107.697C72.7294 107.952 72.7232 108.206 72.7165 108.459C72.7223 108.204 72.7289 107.95 72.7351 107.697Z" fill="black"/>
<path fill-rule="evenodd" clip-rule="evenodd" d="M188.254 103.319C190.419 103.25 192.834 102.435 194.962 102.694C195.548 102.765 196.896 102.913 195.958 103.782C195.509 104.197 193.36 103.982 192.71 104.12C188.734 104.962 184.222 105.505 180.145 105.435C178.237 105.402 176.315 105.249 174.407 105.148C172.501 105.047 172.314 104.273 174.459 104.026C176.686 103.771 178.972 103.866 181.21 103.863C183.563 103.86 185.905 103.476 188.254 103.319Z" fill="black"/>
<path fill-rule="evenodd" clip-rule="evenodd" d="M193.007 98.1023C192.799 98.6956 192.616 100.057 191.817 100.147C190.699 100.272 190.514 98.3514 190.555 97.649C190.605 96.8013 190.91 95.3931 191.963 95.6868C192.853 95.9346 192.943 97.4238 193.007 98.1023Z" fill="black"/>
<path fill-rule="evenodd" clip-rule="evenodd" d="M186.236 97.6677C186.399 97.0324 186.48 95.5998 187.378 95.5511C188.383 95.4969 188.67 96.9895 188.663 97.7047C188.656 98.3836 188.405 99.666 187.606 99.8228C186.521 100.035 186.424 98.3937 186.236 97.6677Z" fill="black"/>
<path fill-rule="evenodd" clip-rule="evenodd" d="M174.959 98.8075C174.634 99.5711 174.419 100.623 173.412 100.102C172.633 99.6997 172.524 98.0757 172.671 97.3322C172.823 96.5619 173.146 95.6784 174.031 96.0248C175.051 96.4246 174.948 97.9667 174.959 98.8075Z" fill="black"/>
<path fill-rule="evenodd" clip-rule="evenodd" d="M183.499 98.1024C182.539 101.012 180.788 99.0434 181.453 96.8711C182.148 94.6005 183.411 96.8058 183.499 98.1024Z" fill="black"/>
<path fill-rule="evenodd" clip-rule="evenodd" d="M178.822 98.2464C178.556 98.7587 178.272 99.8639 177.553 99.7475C176.673 99.6046 176.644 97.9094 176.741 97.2781C176.825 96.7255 177.073 95.8046 177.811 95.8165C178.876 95.8338 178.805 97.5832 178.822 98.2464Z" fill="black"/>
<path fill-rule="evenodd" clip-rule="evenodd" d="M197.969 98.8049C197.254 100.408 196.271 99.027 196.586 97.8884C197.053 96.1998 197.928 97.6959 197.969 98.8049Z" fill="black"/>
<path fill-rule="evenodd" clip-rule="evenodd" d="M180.47 103.865C179.69 103.862 178.909 103.859 178.129 103.856C178.91 103.709 179.69 103.652 180.47 103.865Z" fill="black"/>
<path fill-rule="evenodd" clip-rule="evenodd" d="M195.977 102.687C195.3 102.692 194.624 102.696 193.947 102.7C194.623 102.498 195.299 102.493 195.977 102.687Z" fill="black"/>
<path fill-rule="evenodd" clip-rule="evenodd" d="M188.254 103.319C187.712 103.355 187.17 103.392 186.629 103.428C187.171 103.392 187.712 103.355 188.254 103.319Z" fill="black"/>
<path fill-rule="evenodd" clip-rule="evenodd" d="M174.959 98.8075C174.954 98.4186 174.949 98.0297 174.944 97.6417C175.145 98.0284 175.131 98.4169 174.959 98.8075Z" fill="black"/>
<path fill-rule="evenodd" clip-rule="evenodd" d="M179.206 105.426C179.52 105.429 179.834 105.432 180.145 105.435C179.83 105.432 179.518 105.429 179.206 105.426Z" fill="black"/>
<path fill-rule="evenodd" clip-rule="evenodd" d="M173.93 105.148C174.248 105.148 174.567 105.148 174.883 105.148C174.563 105.148 174.247 105.148 173.93 105.148Z" fill="black"/>
<path fill-rule="evenodd" clip-rule="evenodd" d="M176.539 103.898C176.097 103.935 175.654 103.971 175.212 104.007C175.654 103.971 176.097 103.935 176.539 103.898Z" fill="black"/>
<path fill-rule="evenodd" clip-rule="evenodd" d="M182.521 103.86C182.084 103.861 181.647 103.862 181.21 103.863C181.647 103.679 182.084 103.673 182.521 103.86Z" fill="black"/>
<path fill-rule="evenodd" clip-rule="evenodd" d="M178.822 98.2464C178.811 97.8411 178.801 97.4358 178.791 97.031C178.801 97.4365 178.812 97.8415 178.822 98.2464Z" fill="black"/>
<path fill-rule="evenodd" clip-rule="evenodd" d="M172.671 97.3323C172.669 97.7276 172.667 98.1229 172.663 98.5167C172.666 98.1209 172.669 97.7267 172.671 97.3323Z" fill="black"/>
<path fill-rule="evenodd" clip-rule="evenodd" d="M190.736 103.172C190.35 103.207 189.964 103.242 189.578 103.277C189.964 103.242 190.35 103.207 190.736 103.172Z" fill="black"/>
<path fill-rule="evenodd" clip-rule="evenodd" d="M197.969 98.8051C197.956 98.4597 197.944 98.1144 197.931 97.7695C197.944 98.1151 197.956 98.46 197.969 98.8051Z" fill="black"/>
<path fill-rule="evenodd" clip-rule="evenodd" d="M181.539 105.438C181.808 105.433 182.077 105.427 182.343 105.423C182.073 105.428 181.806 105.433 181.539 105.438Z" fill="black"/>
<path fill-rule="evenodd" clip-rule="evenodd" d="M193.007 98.1022C192.984 97.854 192.96 97.6056 192.936 97.3583C192.96 97.6069 192.984 97.8545 193.007 98.1022Z" fill="black"/>
<path fill-rule="evenodd" clip-rule="evenodd" d="M183.499 98.1023C183.482 97.8475 183.464 97.5924 183.447 97.3383C183.464 97.5933 183.482 97.8479 183.499 98.1023Z" fill="black"/>
<path fill-rule="evenodd" clip-rule="evenodd" d="M44.8767 23.2139C43.8195 22.9365 43.6212 21.4508 43.7911 20.5383C43.9838 20.0986 44.1765 19.659 44.3692 19.2192C44.2937 19.0566 44.2185 18.894 44.1433 18.7314C44.24 17.8258 43.9929 17.4322 45.0337 17.799C46.9671 18.4808 47.2762 23.144 44.8767 23.2139Z" fill="black"/>
<path fill-rule="evenodd" clip-rule="evenodd" d="M60.5259 20.3413C61.3969 20.2727 62.9788 21.287 62.1118 22.2683C61.5747 22.8762 59.8048 22.5886 59.0827 22.7156C58.1251 22.884 57.1263 23.1143 57.6444 21.6799C58.0512 20.5535 59.5041 20.3119 60.5259 20.3413Z" fill="black"/>
<path fill-rule="evenodd" clip-rule="evenodd" d="M59.6095 27.0883C58.7248 26.3789 59.1197 23.1475 60.466 23.7289C61.851 24.3273 60.3477 26.622 59.6095 27.0883Z" fill="black"/>
<path fill-rule="evenodd" clip-rule="evenodd" d="M43.7911 20.5382C43.7911 20.8782 43.7909 21.2184 43.7903 21.5569C43.6058 21.2162 43.6115 20.8771 43.7911 20.5382Z" fill="black"/>
<path fill-rule="evenodd" clip-rule="evenodd" d="M44.8767 23.2139C45.057 23.2088 45.2375 23.2035 45.4156 23.1989C45.2344 23.2046 45.0556 23.2093 44.8767 23.2139Z" fill="black"/>
<path fill-rule="evenodd" clip-rule="evenodd" d="M154.109 116.272C154.027 117.742 152.448 116.656 152.56 115.672C152.763 113.888 153.772 115.651 154.109 116.272Z" fill="black"/>
</svg>
