<svg width="240" height="172" viewBox="0 0 240 172" fill="none" xmlns="http://www.w3.org/2000/svg">
<path fill-rule="evenodd" clip-rule="evenodd" d="M102.21 71.9708C99.6259 73.844 100.037 77.5298 100.815 80.2076C101.96 84.1506 104.242 87.8007 106.844 90.947C111.462 96.5286 119.3 102.796 126.525 97.8958C132.959 93.5317 137.017 84.7259 138.418 77.3086C138.851 75.0163 139.428 71.6008 137.394 69.8776C134.386 67.3304 129.081 67.7938 125.45 68.1217C123.059 68.3375 120.752 69.0704 118.389 68.7265C112.899 67.9264 106.789 68.651 102.21 71.9708Z" fill="#FFE202"/>
<path fill-rule="evenodd" clip-rule="evenodd" d="M213.522 101.179C208.287 107.819 199.388 108.869 191.484 108.803C186.738 108.764 181.983 108.407 177.33 107.44C174.821 106.918 172.329 106.227 169.906 105.397C168.305 104.849 165.921 104.575 165.24 102.86C163.443 98.3336 164.765 92.6573 165.505 88.0632C165.882 85.7264 166.164 83.3757 166.53 81.0372C166.765 79.5408 166.877 77.8854 167.504 76.4856C168.238 74.8459 169.165 75.1733 170.718 75.6261C172.858 76.2508 175.054 76.5103 177.254 76.8462C182.622 77.666 187.306 79.3191 192.185 81.6621C197.009 83.9785 201.688 86.2653 205.991 89.4863C208.172 91.119 210.05 92.8907 211.8 94.9712C213.152 96.5785 215.17 99.0877 213.522 101.179ZM190.64 130.672C190.598 131.387 182.395 129.228 181.315 128.986C174.232 127.397 167.008 125.588 160.321 122.717C154.079 120.038 148.58 116.973 143.668 112.212C141.378 109.993 139.319 107.657 137.349 105.169C136.361 103.921 135.012 104.066 133.91 103.011C132.92 102.061 132.16 101.319 132.47 99.8998C134.945 100.552 139.516 104.652 142.082 102.582C143.545 101.402 141.516 100.169 140.579 99.4849C138.819 98.199 137.314 96.6126 135.914 94.9476C138.317 95.4135 140.554 96.3133 142.645 97.5661C143.574 98.1226 146.759 100.141 147.5 98.2169C147.956 97.0325 145.797 95.5444 145.124 94.8891C143.47 93.2806 141.686 91.4026 140.808 89.2399C142.978 88.7364 145.024 90.4137 146.502 91.7797C148.142 93.2965 150.153 94.8882 151.528 96.6359C152.238 97.5371 152.392 98.6019 152.947 99.5741C153.57 100.668 154.568 101.605 155.522 102.415C157.359 103.974 159.508 105.123 161.714 106.072C166.754 108.242 172.156 109.778 177.528 110.855C180.164 111.384 182.735 111.627 185.41 111.717C187.489 111.787 188.409 112.409 189.203 114.324C191.351 119.508 190.961 125.21 190.64 130.672ZM128.946 91.176C127.744 92.3007 126.182 93.0063 124.925 94.0875C123.82 95.039 122.545 96.0541 121.311 96.8236C119.993 97.6447 119.009 97.0689 117.823 96.3258C116.431 95.4541 114.83 95.1006 113.396 94.3207C108.437 91.6218 102.371 85.0092 103.297 78.9374C103.689 76.3641 105.019 73.832 107.435 72.6641C109.63 71.6042 112.819 71.0156 115.167 71.902C116.491 72.402 117.438 73.5057 118.287 74.5909C119.276 75.8559 119.655 75.6565 120.662 74.4365C122.465 72.2538 125.438 70.3389 128.377 70.3849C129.838 70.4082 131.288 70.716 132.604 71.3222C132.783 71.4046 132.882 71.6533 133.061 71.7376C133.281 71.8413 133.641 71.6257 133.794 71.7226C134.18 71.9665 134.564 72.7283 134.786 73.115C135.678 74.6662 137.283 77.7083 135.666 79.0144C135.665 79.015 135.737 80.7816 135.715 80.9829C135.601 82.0369 135.237 82.9069 134.768 83.8709C133.358 86.7662 131.277 88.9954 128.946 91.176ZM131.343 115.674C130.204 116.028 128.977 112.459 130.07 111.89C131.111 111.347 132.374 115.354 131.343 115.674ZM113.458 111.407C113.064 112.755 112.897 114.285 111.933 115.382C111.05 114.335 110.962 112.401 111.819 111.324C112.308 110.71 113.889 109.934 113.458 111.407ZM149.897 87.7892C149.891 87.8233 151.267 88.4817 150.596 89.2015C149.678 90.1848 149.804 88.2711 149.897 87.7892ZM155.586 76.8031C155.57 78.166 152.685 77.8369 152.705 76.466C152.731 74.7789 155.603 75.3581 155.586 76.8031ZM152.142 65.4118C152.427 64.1638 157.446 62.4278 157.309 64.6028C157.241 65.6931 151.536 68.0649 152.142 65.4118ZM100.691 107.731C100.128 108.407 99.3289 108.674 98.6548 109.193C97.9476 109.737 97.4421 110.443 96.8246 111.082C95.1283 112.836 93.0865 114.277 91.2565 115.888C87.8924 118.849 84.6697 122.033 80.9399 124.544C74.2745 129.032 66.5448 131.486 58.8717 133.636C58.2359 133.814 56.4048 134.532 55.7759 133.997C55.0976 133.42 55.4426 131.389 55.4738 130.62C55.601 127.471 55.9681 124.285 55.9284 121.141C55.9119 119.849 55.5337 118.013 56.2075 116.831C56.9599 115.512 59.0608 115.125 60.3601 114.629C64.31 113.119 68.1147 110.572 71.6038 108.214C75.8926 105.314 80.2241 102.367 84.6379 99.6604C88.962 97.0087 93.7319 95.233 98.5555 93.7184C98.7789 94.1881 96.4773 95.6992 96.2141 95.911C94.9523 96.9269 93.5794 97.9801 92.6427 99.3211C91.9795 100.271 91.2994 102.419 93.1305 102.474C94.0181 102.501 95.3305 101.642 96.1355 101.364C97.4649 100.905 98.8349 100.583 100.226 100.374C99.0299 101.69 94.9776 104.055 95.7149 106.244C96.4302 108.368 100.568 105.889 101.992 105.889C101.759 106.63 101.172 107.153 100.691 107.731ZM51.8067 113.661C49.1567 114.592 46.4406 115.122 43.7057 115.724C41.0988 116.297 38.6893 116.73 36.0192 116.394C32.3328 115.93 28.2532 114.403 27.7858 110.214C27.2316 105.251 30.7368 100.69 33.7465 97.1294C37.4096 92.797 41.5228 88.9238 45.9806 85.4169C50.4333 81.9131 55.2395 78.8244 60.2746 76.2167C64.1052 74.2329 68.4316 73.0284 72.482 71.5394C73.2526 71.2563 75.3838 70.2611 76.1045 71.086C76.6871 71.7529 75.8943 72.864 75.6289 73.4833C75.111 74.6906 75.0397 75.9061 74.906 77.2023C74.3088 82.9912 73.5899 88.7785 73.2591 94.5924C73.1671 96.2125 73.0047 97.9076 73.0993 99.5289C73.1515 100.427 73.6189 101.571 73.3077 102.448C72.7094 104.133 69.9697 105.249 68.5176 106.002C65.9185 107.349 63.166 108.355 60.5398 109.644C57.6559 111.06 54.8477 112.591 51.8067 113.661ZM88.5574 76.0458C89.2849 75.9459 90.3744 75.7477 91.0229 76.219C91.8684 76.8335 91.6467 77.6884 90.8656 78.1342C90.2488 78.4865 88.8053 78.5828 88.196 78.2631C87.1579 77.7188 87.3336 76.2142 88.5574 76.0458ZM92.5857 89.4505C91.9979 90.4296 89.8499 91.0715 90.037 89.2447C90.1975 87.6805 93.6683 87.6478 92.5857 89.4505ZM91.7884 61.8719C92.7333 62.2379 94.448 62.5511 94.7283 63.7666C94.9889 64.8978 93.917 64.8232 93.1433 64.5117C92.507 64.2561 89.6725 61.8523 91.7884 61.8719ZM239.832 105.027C239.28 102.88 239.701 100.502 239.396 98.3026C239.101 96.1702 238.569 94.2108 237.806 92.2013C236.117 87.7526 234.182 83.7479 231.444 79.8435C226.287 72.4909 220.304 66.0146 213.08 60.6441C205.948 55.3424 198.05 51.0337 189.684 48.014C180.812 44.8115 171.882 43.697 162.527 43.0831C159.733 42.9 156.942 42.6828 154.164 42.3298C152.133 42.072 149.588 41.7543 147.581 42.3761C146.32 42.7671 145.615 43.8668 146.989 44.5886C147.963 45.1002 149.238 45.1616 150.314 45.2976C149.014 49.426 146.9 53.569 143.549 56.4118C140.277 59.1873 135.9 60.1387 131.771 60.8426C129.532 61.2239 127.025 61.5192 124.752 61.3546C123.314 61.2509 122.192 60.5854 121.612 62.0658C121.21 63.0945 121.02 64.2232 120.489 62.67C119.861 60.8338 119.553 60.8455 117.601 60.3239C113.609 59.2574 109.032 58.2843 105.549 55.9776C101.935 53.5846 100.678 49.7134 98.6611 46.1085C98.1622 45.2175 96.6573 43.4142 97.4262 42.3932C98.1296 41.4596 100.416 41.5527 101.463 41.4553C102.568 41.3525 103.68 41.3483 104.789 41.3051C105.431 41.2804 106.724 41.5436 106.465 40.5842C106.075 39.1381 101.898 39.3235 100.86 39.2999C98.9314 39.2568 96.9756 39.3014 95.0562 39.5135C85.5394 40.566 75.9369 42.5121 66.7277 45.1073C48.86 50.1421 31.5551 59.4195 18.5155 72.7851C5.99867 85.6148 2.03316 106.964 9.72792 123.346C13.7269 131.859 22.4052 135.357 30.8177 138.181C35.2551 139.671 39.9537 140.836 44.6708 140.555C46.9343 140.42 49.0821 139.811 51.2897 139.352C52.2525 139.151 53.3482 138.832 54.3372 138.912C55.0856 138.973 55.8049 139.66 56.507 139.295C57.0054 139.036 57.222 138.292 57.831 137.975C58.5625 137.595 59.4489 137.458 60.2388 137.266C62.434 136.733 64.5595 135.868 66.7052 135.159C68.9242 134.426 71.0183 133.481 73.1472 132.527C74.2222 132.044 76.7098 130.084 77.4106 131.517C77.7297 132.171 77.5937 133.433 77.6715 134.119C77.8078 135.319 77.9679 136.516 78.1431 137.711C78.5287 140.341 78.9904 142.961 79.4635 145.577C80.3173 150.298 81.4178 154.817 83.2577 159.258C84.7268 162.803 86.0165 166.822 88.7445 169.643C89.9354 170.874 91.5601 171.428 93.2682 171.041C95.211 170.601 96.178 168.836 97.3575 167.41C99.9524 164.269 104.237 161.864 108.193 160.997C113.037 159.937 117.756 161.488 122.38 162.807C127.272 164.201 132.251 165.53 137.052 167.206C141.526 168.769 146.356 171.077 151.208 170.876C155.439 170.701 159.391 167.257 162.442 164.632C165.507 161.996 169.339 158.136 173.746 158.447C175.934 158.601 177.928 159.657 180.059 160.086C182.399 160.557 184.889 160.624 187.268 160.799C190.222 161.017 196.83 160.247 197.923 156.694C198.085 156.167 198.085 155.081 197.39 154.87C196.749 154.677 196.422 155.425 195.815 155.391C194.581 155.321 193.617 153.169 192.939 152.336C190.202 148.973 186.449 146.464 183.378 143.426C179.911 139.995 176.951 135.839 174.339 131.739C175.52 131.432 176.794 131.942 177.937 132.184C179.326 132.479 180.68 132.834 182.048 133.211C183.557 133.626 185.087 133.912 186.618 134.228C187.76 134.464 189.276 134.535 190.307 135.108C191.207 135.609 191.71 136.146 192.827 136.291C193.964 136.439 195.13 136.314 196.272 136.307C199.36 136.286 202.441 136.228 205.514 135.902C216.373 134.748 227.883 130.155 234.413 121.04C236.189 118.56 237.62 115.814 238.524 112.899C239.23 110.624 240.446 107.417 239.832 105.027Z" fill="black"/>
<path fill-rule="evenodd" clip-rule="evenodd" d="M114.167 26.1899C112.234 26.7896 109.95 26.084 108.84 24.3591C107.71 22.6052 106.937 20.5756 106.782 18.4864C106.633 16.4846 107.087 14.4579 108.268 12.8144C109.524 11.0662 112.085 9.10676 114.38 9.71382C114.864 9.84188 115.301 10.15 115.735 10.4558C116.195 10.78 116.651 11.1017 117.154 11.2022C117.284 11.2281 117.374 11.2525 117.442 11.2704C117.533 11.2948 117.582 11.3079 117.625 11.2979C117.675 11.2866 117.717 11.2454 117.809 11.1571C117.861 11.1065 117.929 11.0407 118.023 10.9563C118.217 10.7828 118.405 10.5216 118.588 10.2661H118.589C118.712 10.0943 118.834 9.92479 118.954 9.78651C119.186 9.52046 119.417 9.25157 119.65 8.98211C121.143 7.25009 122.664 5.48485 124.489 4.11493C128.269 1.2764 133.294 -0.0642748 137.984 0.00236551C140.838 0.0427699 143.513 0.888962 146.172 1.85097C146.395 1.9317 146.62 2.01182 146.845 2.09224L146.846 2.09252C148.981 2.85464 151.184 3.64072 152.894 5.16769C156.295 8.20497 157.181 13.2338 157.737 17.536C158.34 22.1952 156.679 26.2035 154.959 30.3561V30.3567L154.959 30.3576V30.3578C154.697 30.9899 154.434 31.6251 154.177 32.2662C152.358 36.8089 149.021 40.489 145.054 43.2932C142.975 44.762 140.678 45.6488 138.275 46.4262C137.776 46.5875 137.281 46.7601 136.786 46.9325H136.785H136.785C134.857 47.6037 132.935 48.2726 130.857 48.2695C126.89 48.2638 121.812 46.3799 120.123 42.4721C119.353 40.6926 120.103 40.3732 121.642 41.3403C121.911 41.5092 122.179 41.6799 122.446 41.8502V41.8505H122.447L122.448 41.8514C124.401 43.0956 126.343 44.3324 128.637 44.8796C133.698 46.0869 139.76 44.2166 144.198 41.7486C148.633 39.2815 151.612 35.5749 153.602 30.9601C155.61 26.3041 156.39 21.7162 155.616 16.697C154.96 12.4433 153.654 8.55791 149.821 6.24892C141.546 1.26495 130.398 1.66653 123.039 8.14364C122.03 9.03152 121.032 9.89554 119.992 10.7437C119.331 11.2826 118.553 11.9291 118.649 12.861C118.67 13.0666 118.798 13.4235 118.943 13.8235C119.358 14.9775 119.905 16.4929 118.383 15.7912C117.756 15.5019 117.237 15.1081 116.725 14.7199C115.882 14.0805 115.06 13.4564 113.807 13.3411C111.666 13.1435 109.111 14.7887 108.47 16.8594C107.859 18.8353 108.949 21.5387 110.656 22.6719C111.616 23.3096 112.664 23.2784 113.748 23.246C113.857 23.2429 113.966 23.2395 114.076 23.237C114.159 23.235 114.264 23.2296 114.383 23.2233C115.112 23.1847 116.385 23.1177 116.724 23.6592C117.422 24.7731 114.961 25.9437 114.167 26.1899ZM139.948 35.0042C140.31 34.2912 140.669 33.5862 141.075 32.9491C141.264 32.6535 141.571 32.4493 141.865 32.2537H141.866C141.95 32.1975 142.034 32.1418 142.113 32.085C143.106 33.6314 142.125 35.2879 141.281 36.7144C141.183 36.8799 141.086 37.0423 140.996 37.201C140.728 37.6667 140.468 38.1517 140.205 38.6409C139.642 39.6861 139.07 40.75 138.406 41.6853C136.788 43.9647 133.269 41.4987 133.164 39.156C133.084 37.3626 134.355 38.1432 135.17 38.813C136.009 39.5029 136.407 39.6747 137.287 38.9211C138.469 37.908 139.217 36.4398 139.948 35.0042ZM130.42 28.6874C130.776 26.3353 129.165 28.1619 128.821 29.2437C128.396 30.5785 128.044 32.4638 128.687 33.7884C129.868 36.2197 133.197 35.061 134.799 33.7694C135.55 33.1637 136.603 31.9022 136.567 30.8508C136.505 29.0213 135.096 30.1182 134.229 30.7928H134.228C134.118 30.8789 134.016 30.9581 133.927 31.0234C133.891 31.0498 133.853 31.0779 133.813 31.1074C133.009 31.7014 131.411 32.8818 130.475 32.2977C129.614 31.7613 129.959 30.4873 130.23 29.485C130.312 29.186 130.386 28.9112 130.42 28.6874ZM135.183 19.2013C137.084 18.8228 139.532 19.0179 141.186 20.0957C143.317 21.4842 140.515 22.4839 139.301 22.6083C137.832 22.7582 135.953 22.8576 134.604 22.1367C132.691 21.1148 133.329 19.571 135.183 19.2013ZM113.478 15.6757C112.024 15.3932 109.996 16.1269 110.997 17.8555C111.743 19.1457 113.583 19.5798 115.023 19.9197C115.198 19.9609 115.367 20.0009 115.528 20.0407C117.129 20.4382 117.92 19.8521 117.369 18.0863C116.836 16.3773 115.045 15.9806 113.478 15.6757ZM143.829 33.7566C143.963 33.1981 144.743 31.0986 145.27 32.6399C145.351 32.8767 145.361 33.2242 145.371 33.5953C145.398 34.5332 145.429 35.6232 146.622 35.4648C147.237 35.3833 147.529 34.7654 147.799 34.193C147.933 33.9093 148.062 33.6368 148.222 33.446C149.849 31.5086 149.35 35.1729 148.925 36.09C147.988 38.1111 145.366 39.5038 144.065 36.9395C143.581 35.9858 143.583 34.7819 143.829 33.7566ZM149.954 25.6087H149.954C150.709 26.4852 151.967 27.9466 152.792 26.8881C153.597 25.8549 152.212 24.2537 151.521 23.4556C151.491 23.4209 151.462 23.3877 151.435 23.3562C151.415 23.3332 151.394 23.3088 151.372 23.283C150.747 22.5544 149.146 20.6863 148.333 22.0856C147.824 22.9615 149.017 24.6126 149.584 25.1924C149.685 25.2955 149.81 25.4414 149.954 25.6087ZM127.786 42.8026C127.007 41.9082 127.089 40.2505 127.53 39.2156C127.889 38.3729 128.49 39.416 128.839 40.02C128.924 40.1673 128.993 40.2883 129.041 40.3496C129.197 40.5504 129.421 40.7364 129.651 40.9274C130.131 41.3255 130.637 41.7452 130.604 42.3616C130.523 43.8676 128.47 43.5882 127.786 42.8026Z" fill="black"/>
<path fill-rule="evenodd" clip-rule="evenodd" d="M195.643 31.672C194.788 31.44 193.934 31.208 193.085 30.9692C191.109 30.4133 192.976 29.1622 194.15 29.2503C195.059 29.3181 195.946 29.6367 196.819 29.9499C197.205 30.0882 197.588 30.2256 197.969 30.34C201.768 31.4806 205.289 32.7279 208.837 34.4983C209.367 34.7626 211.698 36.0157 210.156 36.5705C209.346 36.8618 207.716 35.985 206.575 35.3711C206.21 35.1749 205.896 35.0057 205.673 34.9097C202.452 33.5207 199.038 32.5939 195.643 31.672ZM227.901 59.8228C215.195 51.9398 202.542 44.2186 188.17 39.7026C187.421 39.4675 187.188 38.7994 187.581 38.1375C187.995 37.4399 188.791 37.4655 189.497 37.4882L189.557 37.4902C191.416 37.5489 193.232 38.1361 194.991 38.7048L195.215 38.7772C199.235 40.0757 203.065 41.877 206.842 43.7598C213.463 47.0597 219.834 51.0525 225.674 55.5924C226.895 56.541 228.146 57.3099 229.474 58.0856C229.556 58.1339 229.642 58.183 229.73 58.2336C230.55 58.704 231.567 59.2872 231.862 60.2021C232.694 62.7768 228.497 60.1924 227.901 59.8228ZM22.7204 57.4797C18.0769 61.0922 13.5393 64.8536 9.34123 68.9764C7.84657 70.4443 6.60094 72.1232 5.35644 73.8013C4.78657 74.5697 4.21671 75.3377 3.62328 76.085C3.55967 76.1651 3.48954 76.2588 3.41316 76.3607C2.93552 76.9973 2.22096 77.9499 1.44135 77.8446C0.449273 77.7112 0.248726 76.0024 0.280357 75.2562C0.388707 72.7116 2.71272 70.2541 4.37004 68.5019C6.23437 66.5317 8.22762 64.6117 10.2632 62.8177C12.5043 60.8427 14.9365 59.145 17.415 57.4831C18.3208 56.8758 19.2123 56.2332 20.1059 55.5895C21.6128 54.504 23.1239 53.4154 24.7131 52.4872C25.9053 51.791 27.885 51.5261 27.2362 53.6218C26.8571 54.8462 25.3684 55.7732 24.0694 56.5822C23.566 56.8956 23.0912 57.1912 22.7204 57.4797ZM6.08843 52.4713C8.70237 51.6575 11.1261 50.3943 13.5498 49.1311C15.129 48.3079 16.7086 47.4848 18.3404 46.7863C19.5139 46.2837 20.7044 45.824 21.8947 45.3643C22.9654 44.9506 24.0359 44.5372 25.0941 44.0929C25.1938 44.0508 25.3017 44.0111 25.4127 43.9699C25.967 43.7649 26.5959 43.5321 26.6708 42.879C26.7736 41.975 26.2458 42.0019 25.601 42.0349H25.6007C25.5592 42.0369 25.5172 42.0391 25.4746 42.0408C24.0049 42.107 22.4509 42.7583 20.9824 43.3739C20.3762 43.6283 19.7842 43.8765 19.2189 44.0747C18.7155 44.2513 18.2115 44.4236 17.7078 44.5957C16.1302 45.1352 14.5572 45.6733 13.0185 46.3328C10.9713 47.2102 8.88068 48.118 7.03707 49.3809C6.97176 49.4258 6.90362 49.4715 6.83377 49.5186C6.2233 49.9295 5.48449 50.427 5.22043 51.1056C4.95608 51.783 5.10174 52.7788 6.08843 52.4713Z" fill="black"/>
<path fill-rule="evenodd" clip-rule="evenodd" d="M114.309 35.0184C114.556 34.2938 117.611 26.3713 116.416 26.1325C115.149 25.879 113.456 30.4757 113.088 31.3062C111.731 34.3733 110.928 37.6641 110.298 40.9541C109.86 43.2449 109.474 45.5917 109.628 47.9336C109.746 49.7335 110.489 50.0061 111.714 51.1089C111.714 45.6419 112.545 40.1929 114.309 35.0184Z" fill="black"/>
</svg>
