<svg width="94" height="72" viewBox="0 0 94 72" fill="none" xmlns="http://www.w3.org/2000/svg">
    <path d="M0 0.0136948H93.3333V71.9315H0V0.0136948Z" fill="white" fill-opacity="0.01" />
    <path fill-rule="evenodd" clip-rule="evenodd"
        d="M56.6759 46.6706C56.5294 48.878 53.6139 50.0257 51.8456 50.4966C52.2001 48.3311 52.6578 46.0862 52.373 43.89C52.2793 43.1666 52.1562 42.4471 52.0241 41.7302C51.9752 41.4651 51.9248 41.2002 51.8726 40.9358C51.8599 40.8715 51.7574 40.5901 51.79 40.5259C51.8484 40.4112 52.3431 40.4292 52.4691 40.4342C52.7939 40.447 53.1126 40.5313 53.4098 40.6647C54.0344 40.9449 54.5606 41.4272 54.9941 41.9597C56.0165 43.2151 56.7864 45.006 56.6759 46.6706ZM53.3005 31.665C51.608 32.6947 49.5693 33.2473 47.6388 33.5166C44.698 33.927 41.6953 33.4546 38.8202 32.8001C38.1142 32.6394 37.4098 32.4662 36.7142 32.2629C36.6829 34.3562 37.2561 36.347 38.3756 38.0928C39.3012 39.5362 40.5092 40.7425 41.565 42.0795C42.5479 43.3241 43.3407 44.7281 43.3801 46.3709C43.3965 47.0565 43.3416 47.6838 42.7829 48.128C42.2214 48.5745 41.4631 48.7401 40.776 48.8418C39.0558 49.0965 37.254 48.9588 35.5445 48.6785C35.2125 48.624 34.8812 48.562 34.5536 48.4844C34.1816 48.3965 34.0513 48.2927 33.7407 48.5797C33.0703 49.1987 32.7628 50.127 32.6109 51.0151C32.3264 52.6784 32.4229 54.6187 32.8331 56.2598C33.2283 57.8406 35.0933 58.7167 36.475 59.0988C40.6425 60.251 45.2406 58.6597 48.4384 55.8268C48.508 55.765 48.5772 55.7024 48.6448 55.638C48.8719 56.1239 49.1199 56.6013 49.391 57.0628C49.5795 57.3839 49.7781 57.7066 50.0159 57.9924C50.1017 58.0955 50.2025 58.2349 50.3199 58.3025C50.5385 58.4283 50.7607 58.3359 51.0081 58.2917C52.8333 57.9661 54.6542 57.5378 56.3897 56.8635C59.0281 55.8383 61.3944 54.1494 62.6449 51.4815C63.2767 50.1339 63.606 48.6573 63.7654 47.1765C63.9483 45.4763 63.9879 43.7383 63.5221 42.0812C62.6688 39.0444 60.4916 36.5825 58.1073 34.6837C56.632 33.5087 55.0101 32.447 53.3005 31.665Z"
        fill="#FFE202" />
    <path fill-rule="evenodd" clip-rule="evenodd"
        d="M83.1231 11.5554C82.7374 11.7129 82.3221 11.7567 81.9117 11.7875C81.5898 11.8117 81.3371 11.9443 81.0338 11.9518C80.1892 11.9725 79.341 12.0114 78.5006 12.1411C77.6564 12.2714 76.8789 12.1012 76.2124 12.7529C75.9751 12.9847 75.6777 13.2514 75.8203 13.6256C75.8857 13.797 75.9779 13.92 76.0322 14.104C76.0936 14.312 76.17 14.5084 76.2588 14.7065C76.4291 15.0863 77.2824 16.5009 76.59 16.6739C75.8393 16.8615 74.8212 16.6423 74.0981 16.4276C73.6761 16.3024 73.2609 16.1557 72.8451 16.0111C72.5159 15.8967 72.0834 15.8318 71.78 15.6525C71.5788 15.5335 71.5371 15.3305 71.4042 15.1376C71.1623 14.7867 70.9362 14.4879 70.6236 14.1959C69.9752 13.5903 69.1644 13.1792 68.365 12.8178C68.3134 12.7943 68.2192 12.7397 68.1635 12.7343C68.1033 12.7285 68.037 12.7922 67.9981 12.7844C67.8916 12.7632 67.8544 12.6943 67.7377 12.6262C67.581 12.5348 66.9419 12.2305 66.8302 12.4697C66.9347 12.1555 67.0111 12.2462 67.2941 12.2918C67.4188 12.312 67.5022 12.2533 67.6142 12.2592C67.7174 12.2645 67.7598 12.3249 67.846 12.3412C68.004 12.371 68.1511 12.3485 68.3159 12.3473C68.3602 12.2468 68.4231 12.2476 68.5045 12.3495C68.55 12.3646 68.5955 12.3797 68.6409 12.395C68.8051 12.4412 68.9807 12.4323 69.1488 12.4459C69.4013 12.4665 70.0593 12.7829 70.186 12.4627C70.3211 12.1208 69.9107 12.0356 69.8423 11.797C69.7756 11.5629 70.0882 11.4255 70.2136 11.2842C70.3565 11.1234 70.4438 10.9823 70.6116 10.8407C70.7098 10.7575 70.8386 10.6801 70.9114 10.5693C70.9784 10.4674 70.9755 10.3027 71.0624 10.2179C71.1661 10.1167 71.182 10.1867 71.2763 10.1378C71.461 10.0417 71.3795 10.0466 71.4887 9.91532C71.5822 9.80314 71.6512 9.80651 71.7735 9.72054C71.9525 9.59459 72.0155 9.34854 72.1894 9.2132C72.3166 9.11412 72.5193 9.11429 72.631 9.01138C72.6968 8.95077 72.6765 8.85254 72.7333 8.79531C72.8424 8.68536 72.9173 8.73001 73.0535 8.69377C73.2833 8.63264 73.3577 8.50213 73.5268 8.35101C73.6814 8.21304 73.7795 8.21364 73.973 8.15641C74.2372 8.07831 74.4081 7.87369 74.6465 7.75347C74.8711 7.64038 75.1029 7.56108 75.3301 7.4406C75.4941 7.35357 75.6522 7.29957 75.8019 7.21076C75.8525 7.18079 75.8569 7.07102 75.9222 7.05616C75.9971 7.03901 76.057 7.16695 76.1367 7.17366C76.3037 7.18775 76.4938 6.9974 76.6036 6.8872C76.6512 6.83932 76.7157 6.70984 76.7771 6.68309C76.9053 6.62706 76.9819 6.73802 77.0963 6.69422C77.2568 6.63275 77.193 6.45275 77.2914 6.3535C77.3773 6.2669 77.56 6.27276 77.7127 6.30018C78.328 6.41038 77.3704 6.85698 77.1904 6.94731C76.8875 7.09946 74.6838 8.20625 75.1993 8.75821C75.4721 9.05019 76.138 8.83062 76.4345 8.75371C76.9544 8.61879 77.4962 8.35908 78.0294 8.29947C78.0954 8.29209 78.292 8.34057 78.3456 8.31943C78.4668 8.2718 78.4366 8.17654 78.535 8.12644C78.6833 8.05122 78.9862 8.05487 79.1367 8.07177C79.2544 8.08501 79.3832 8.15718 79.5028 8.14742C79.6347 8.13663 79.762 8.05785 79.8928 8.03246C80.1165 7.98916 80.3481 8.01038 80.5741 8.01709C80.899 8.02685 81.5486 8.07729 81.0765 8.52082C80.6944 8.87979 80.0334 9.03516 79.5514 9.19181C78.8384 9.42332 78.1379 9.63402 77.4341 9.89781C76.9545 10.0774 75.9315 10.393 76.5024 11.0665C76.5588 11.0118 76.6151 10.9572 76.6714 10.9025C76.738 10.9717 76.8068 11.1064 76.9135 11.1103C77.0022 11.1135 76.9696 11.0155 77.0535 10.9849C77.3172 10.8887 77.6787 10.896 77.9568 10.878C78.6534 10.8326 79.3476 10.7378 80.0451 10.7084C80.7021 10.6808 81.366 10.7167 82.0101 10.8583C82.1758 10.8947 83.7204 11.3115 83.1231 11.5554ZM77.4263 18.4804C77.4613 18.781 77.3316 19.0242 77.2955 19.3145C77.2519 19.6656 77.2839 19.9748 77.187 20.3238C76.9987 21.0023 76.8648 21.6964 76.6627 22.3709C76.3059 23.5618 75.7298 24.6136 75.1374 25.6942C74.8352 26.2451 74.3801 26.7 73.9642 27.1608C73.538 27.633 73.1975 28.0979 72.6879 28.4857C71.6698 29.2606 70.5711 29.95 69.3657 30.3686C68.104 30.807 66.7772 30.9398 65.452 30.884C64.8639 30.8593 64.2405 30.9205 63.6617 30.8228C63.0463 30.7188 62.3793 30.5911 61.7745 30.4376C60.6642 30.156 59.5944 29.6779 58.51 29.2509C57.2991 28.774 56.2088 28.1652 55.1045 27.4775C54.8123 27.2956 54.5035 27.2106 54.2296 26.9904C53.9986 26.8049 53.7714 26.6274 53.5285 26.4579C53.2496 26.2635 52.9828 26.0509 52.6979 25.8662C52.5278 25.7557 52.2883 25.6476 52.199 25.4477C52.076 25.1727 52.2243 24.8273 52.3008 24.5605C52.4005 24.2133 52.5066 23.8704 52.6265 23.53C52.8295 22.9536 53.346 22.0647 53.0619 21.4553C52.463 21.8365 52.1988 22.586 51.9428 23.223C51.637 23.9841 51.4235 24.7434 51.3774 25.5689C51.2848 27.2293 51.5552 28.9771 52.1416 30.5254C52.2287 30.7553 52.3817 31.0047 52.2693 31.2507C52.1512 31.5087 51.831 31.7267 51.5848 31.8384C50.8059 32.1913 50.024 32.2941 49.2106 32.4894C48.9891 32.5425 48.7467 32.7021 48.5389 32.7223C48.3986 32.7358 48.2826 32.6885 48.122 32.6897C47.9606 32.6908 47.8344 32.7836 47.69 32.7935C47.564 32.8023 47.4521 32.7266 47.3319 32.7337C47.063 32.7498 47.0134 33.2233 46.8801 32.8064C46.8559 32.8236 46.7224 32.979 46.7056 32.9791C46.6676 32.9792 46.6006 32.8633 46.5644 32.8427C46.4936 32.8024 46.4005 32.8001 46.3215 32.7896C46.1471 32.7663 45.959 32.7639 45.7873 32.805C45.4688 32.8813 45.1486 32.8491 44.8763 32.8436C44.8144 32.8424 44.7704 32.8936 44.6934 32.8906C44.6583 32.8891 44.6078 32.8254 44.5705 32.8155C44.3553 32.7585 44.1318 32.8011 43.9126 32.7886C43.3973 32.7594 42.8998 32.7453 42.3968 32.6283C41.3658 32.3885 40.3146 32.3405 39.2794 32.1212C38.7521 32.0093 38.2369 31.9484 37.7177 31.8011C37.5352 31.7493 37.3482 31.7249 37.1865 31.6543C37.0321 31.5867 37.0928 31.4968 36.8531 31.6774C36.7455 31.4063 36.7327 31.4339 36.4729 31.3443C36.3723 31.3096 36.1414 31.2234 36.0666 31.1551C36.0591 31.1483 35.8991 30.7356 35.8854 30.6849C35.8187 30.4384 35.8742 30.1566 35.902 29.9086C35.9648 29.3493 36.0556 28.7945 36.061 28.2308C36.0634 27.9821 36.107 27.9749 36.1823 27.7875C36.2056 27.7295 36.274 27.7341 36.2797 27.6457C36.2874 27.5278 36.17 27.4458 36.1827 27.3081C36.1995 27.1229 36.3806 26.9352 36.4441 26.7626C36.5205 26.5548 36.5195 26.3351 36.565 26.12C36.626 25.8338 36.7438 25.5652 36.8031 25.2778C36.8536 25.0344 36.8584 24.8409 36.9846 24.6321C37.1108 24.4236 37.0736 24.2535 37.1742 24.0459C37.2664 23.8555 37.3831 23.7871 37.4462 23.5572C37.5992 23.0011 37.8316 22.4505 38.1608 21.979C38.4504 23.1612 38.7585 24.3827 39.5647 25.3172C39.8969 25.7019 40.3256 26.0902 40.8264 26.2074C41.3926 26.3399 41.8454 25.9968 42.2141 25.5904C43.0925 24.6219 43.4564 23.5407 43.5094 22.2275C43.5226 21.9011 43.5207 21.5742 43.5164 21.2475C43.5144 21.1022 43.4419 20.7291 43.5389 20.6069C43.6451 20.4729 43.9485 20.5566 44.1063 20.4683C44.3004 20.3595 44.5137 20.0686 44.4271 19.8286C44.9444 20.0693 45.4391 20.3861 46.0144 20.4532C46.2422 20.4797 46.4847 20.4393 46.6884 20.4281C46.6823 20.4284 46.8461 20.4628 46.8559 20.465C46.8963 20.4172 46.9401 20.4056 46.9871 20.4301C47.0289 20.4347 47.0594 20.4577 47.0785 20.4994C47.8986 20.5836 48.7243 20.1673 49.4262 19.7263C49.8362 19.4686 50.2867 19.0872 50.4018 18.5855C50.4429 18.4066 50.4074 18.2379 50.5875 18.1466C50.7337 18.0723 51.0163 18.1795 51.1707 18.1911C51.7138 18.232 52.249 18.179 52.7793 18.3453C53.1029 18.4469 53.6678 19.1581 53.8935 18.6577C53.9914 18.7521 53.9382 18.9202 54.0424 19.0121C54.1333 19.0921 54.4387 19.1485 54.5643 19.2171C54.7589 19.3231 54.873 19.4642 55.0434 19.5916C55.2527 19.7483 55.4717 19.7604 55.6743 19.9442C56.376 20.5808 57.198 21.0419 57.9815 21.5698C58.9111 22.1961 59.7338 22.9344 60.7313 23.4452C61.7514 23.9676 62.7386 24.4039 63.8534 24.6757C64.359 24.799 64.8777 24.9019 65.3968 24.94C65.6416 24.9578 65.8752 24.9488 66.1114 25.0242C66.2549 25.0701 66.3013 25.0931 66.4422 25.0973C66.5243 25.0997 66.6432 25.051 66.7443 25.0529C66.952 25.0567 67.0581 25.0479 67.2456 25.1185C67.4577 25.1984 67.6341 25.2465 67.8756 25.2533C68.1534 25.2613 68.317 25.1517 68.5694 25.0841C68.7729 25.0296 68.9561 25.0556 69.1381 24.9424C69.9473 24.4395 70.5974 23.6716 71.0218 22.7998C71.509 21.7992 71.8843 20.5794 71.9606 19.4581C72.0043 18.8163 71.8665 18.1904 71.628 17.6011C71.5606 17.4349 71.1567 16.7268 71.2812 16.5982C71.4224 16.4521 71.8843 16.787 72.0146 16.8598C72.4277 17.0905 73.1739 17.1644 73.4636 17.5526C73.5373 17.4071 73.9476 17.6227 74.0792 17.6834C74.188 17.7336 74.2188 17.8243 74.3558 17.8352C74.4849 17.8454 74.618 17.7397 74.7366 17.7059C74.6499 17.9544 74.9413 17.966 75.141 17.9792C75.2848 17.9887 75.4394 17.9654 75.5674 17.9561C75.8125 17.9382 75.8165 17.8816 76.0404 17.7526C76.0316 17.8471 76.0417 17.9394 76.0702 18.0295C76.214 17.8155 76.4885 17.9641 76.683 17.8701C76.5425 17.6511 77.1423 17.591 77.2821 17.6371C77.6337 17.7531 77.3953 18.2141 77.4263 18.4804ZM49.8902 33.535C50.1222 33.4639 50.3558 33.3989 50.5885 33.331C50.4122 33.4972 50.2291 33.7972 49.9773 33.844C49.6736 33.9003 49.554 33.6379 49.8902 33.535ZM38.4345 33.6541C38.8252 33.7021 39.2506 33.6653 39.593 33.9023C39.4261 34.0996 39.3177 34.306 39.0394 34.1929C38.8055 34.098 38.613 33.8271 38.4345 33.6541ZM51.4857 44.4538C51.2292 44.2174 51.263 44.1117 51.3834 43.8057C51.4353 43.6741 51.5173 43.265 51.7119 43.3849C51.781 43.4274 51.8647 43.8732 51.8771 43.9635C51.9046 44.1654 51.783 44.7278 51.4857 44.4538ZM52.9325 43.0812C52.8419 42.7391 52.845 42.3665 52.7559 42.016C52.6619 41.6459 52.5463 41.2745 52.513 40.8919C53.8684 41.1379 54.6382 42.5199 55.2252 43.6732C55.5371 44.286 55.843 44.9638 55.9607 45.6489C56.0754 46.3165 55.8763 46.8234 55.6449 47.4183C55.5269 47.7221 55.332 47.8274 55.1044 48.0281C54.9027 48.2059 54.8271 48.506 54.6169 48.6657C54.4617 48.7838 54.2599 48.845 54.0976 48.9643C53.9372 49.082 53.7767 49.1986 53.6112 49.3087C53.4219 49.4342 52.8548 49.8924 52.5993 49.7946C52.408 49.7215 52.4932 49.481 52.5414 49.3302C52.6429 49.0124 52.7142 48.7064 52.7768 48.375C52.944 47.4911 53.0346 46.6125 53.078 45.7133C53.1203 44.8353 53.1598 43.9383 52.9325 43.0812ZM51.7989 47.0685C51.8192 47.112 51.9039 47.4831 51.7149 47.4069C51.5837 47.3538 51.7796 47.1367 51.7989 47.0685ZM52.5974 32.3336C52.7574 32.2657 52.8213 32.4666 52.9621 32.4726C53.1487 32.4806 53.1879 32.2672 53.3838 32.261C53.8628 32.2455 54.5568 32.721 54.9462 32.9692C54.7556 33.2169 54.6769 33.4703 54.7717 33.7752C54.8553 34.0438 55.1744 34.3442 55.1627 34.6289C55.1507 34.9143 54.8053 35.0982 54.6977 35.3521C54.5987 35.5854 54.561 36.0519 54.8665 36.1547C55.392 36.3316 55.5122 35.3203 55.9105 35.3124C56.0807 35.3091 56.302 35.638 56.4244 35.7405C56.6987 35.9698 57.0079 36.1373 57.3269 36.2896C57.5421 36.3923 57.8418 36.5949 58.0014 36.3186C58.1294 36.0974 58.0249 35.7468 57.9005 35.5565C57.7579 35.3381 56.4798 34.3385 56.5604 34.2505C56.6034 34.2035 56.9217 34.333 56.9668 34.3723C57.0687 34.4609 57.1062 34.6052 57.2083 34.6996C57.3642 34.8437 57.5657 34.9008 57.7584 34.9674C58.1608 35.1063 58.4154 35.5949 58.8053 35.8225C59.0303 35.9537 59.1676 36.2057 59.3579 36.4008C59.607 36.6563 59.8608 36.924 59.8233 37.3002C59.7973 37.5609 59.7596 38.1681 59.6162 38.388C59.4604 38.6267 59.2013 38.5352 58.9646 38.5916C58.6983 38.655 58.4853 38.8684 58.5384 39.1733C58.5934 39.4903 58.8402 39.513 59.0979 39.5209C59.8249 39.5435 59.5572 40.0178 59.8107 40.5387C59.9484 40.8216 60.1782 40.9327 60.3362 40.6016C60.4636 40.3351 60.2361 39.9152 60.3743 39.6877C60.5426 39.4104 61.4432 39.4859 61.631 39.7012C61.7734 39.8645 61.8489 40.0891 61.9909 40.2599C62.2064 40.5192 62.2949 40.8827 62.4243 41.2006C62.5615 41.5382 62.6813 41.8806 62.7864 42.2304C62.8603 42.476 63.0198 42.8651 62.6379 42.6552C62.3712 42.5088 62.1719 42.1782 61.8339 42.1677C61.4996 42.1574 61.3091 42.5142 61.4068 42.8245C61.5013 43.1247 61.9323 43.2569 61.9821 43.5613C62.037 43.8943 61.4818 44.2341 61.3133 44.4789C60.9251 45.0427 61.2498 45.6774 61.886 45.1988C62.1115 45.0292 62.3476 44.687 62.602 44.5799C63.0044 44.4102 63.0021 45.0386 63.1948 45.2699C63.2986 45.3943 63.3361 45.2679 63.2747 45.4539C63.252 45.5224 63.137 45.5438 63.1241 45.6291C63.1148 45.6915 63.1692 45.7246 63.1711 45.7729C63.1775 45.9368 63.1779 45.9609 63.142 46.139C63.1023 46.3364 63.1167 46.5818 63.1048 46.7825C63.0773 47.241 63.0715 47.679 63.0246 48.1374C62.9986 48.3925 62.9441 48.9122 63.2372 49.0365C63.1329 49.2045 62.9939 49.6718 62.7889 49.6367C62.8055 49.7473 62.7962 49.8886 62.9007 49.9609C62.9258 49.8935 62.9507 49.8261 62.9756 49.7585C63.0331 49.9127 62.9826 49.9305 62.9792 50.0354C62.9835 49.9055 62.8638 50.2166 62.9285 50.1782C62.8735 50.2255 62.8009 50.2525 62.7181 50.3137C62.6026 50.3991 62.5417 50.5171 62.452 50.6327C62.2897 50.8415 62.299 51.0525 62.157 51.2703C61.9553 51.5792 61.6967 51.8842 61.4843 52.193C61.3114 52.4443 60.9819 52.5892 60.8434 52.8593C60.7552 53.0312 60.7201 53.231 60.5698 53.3518C60.3545 53.5249 60.0667 53.6879 59.8328 53.8667C59.6857 53.9789 59.5739 54.1348 59.4271 54.2438C59.3528 54.2991 59.129 54.3551 59.1287 54.4676C58.8472 54.3866 58.6477 54.091 58.4264 53.9112C58.2784 53.791 57.9261 53.6349 57.9473 53.3939C57.9648 53.1969 58.2375 52.9524 58.3003 52.7457C58.3536 52.5707 58.4277 52.2441 58.2804 52.0945C57.9713 51.7808 57.6207 52.4541 57.4547 52.6334C57.1124 53.0031 56.9668 52.6303 56.6854 52.3618C56.2358 51.933 55.9531 52.3779 56.1113 52.9119C56.1916 53.1821 56.4968 53.4232 56.5166 53.6992C56.5384 54.0025 56.2184 54.155 56.0918 54.3973C55.9723 54.6259 55.9171 55.0275 56.1418 55.2166C56.3896 55.4252 56.6051 55.1784 56.7671 54.9859C56.893 54.8362 57.0329 54.5071 57.2374 54.4883C57.4935 54.465 57.9135 54.943 58.1083 55.0905C57.8123 55.1785 57.6341 55.4332 57.3838 55.5963C57.0609 55.8068 56.61 55.8567 56.2486 56.0012C55.9081 56.1374 55.6017 56.2483 55.2775 56.4172C54.8928 56.6176 54.4222 56.6677 54.0148 56.8136C53.6511 56.9439 53.3061 57.1267 52.9345 57.2343C52.5158 57.3556 52.0812 57.4286 51.6591 57.5382C51.298 57.6319 50.8746 57.7219 50.5025 57.7226C50.1262 57.7232 50.134 57.4839 50.0137 57.1649C49.8707 56.786 49.6339 56.4534 49.4829 56.0836C49.3391 55.732 49.5561 55.5985 49.7643 55.3294C49.9604 55.0759 49.9085 55.0362 50.1613 55.2143C50.4942 55.4486 50.7141 55.29 50.973 55.0205C51.2034 54.7811 51.288 54.5819 51.6195 54.7488C51.9513 54.9156 52.2673 55.1872 52.6236 55.2961C52.9045 55.3818 53.1137 55.3195 53.1607 55.0039C53.2115 54.663 53.0222 54.421 52.7837 54.2185C52.6021 54.0645 52.2056 53.8817 52.1392 53.6318C52.0693 53.3685 52.4375 52.9843 52.4769 52.6899C52.5265 52.3182 52.3707 52.0449 52.0275 52.3023C51.7785 52.4889 51.6128 52.8937 51.267 52.9188C51.363 52.505 51.5713 52.1373 51.7499 51.758C51.8997 51.4406 52.0281 51.0802 52.4301 51.0448C52.5604 51.0334 52.6452 51.0473 52.7695 51.0243C52.9336 50.994 53.1564 50.9698 53.3319 50.9243C53.7448 50.8171 54.1095 50.4895 54.4897 50.3018C54.5769 50.5428 54.7311 51.2293 55.0861 50.8285C55.3487 50.532 55.0579 50.0218 55.2998 49.692C55.7988 49.0115 56.8856 49.5111 57.5412 49.1602C57.8266 49.0075 58.0589 48.5204 57.6565 48.3735C57.4214 48.2877 56.7424 48.6045 56.601 48.3709C56.5001 48.2043 56.9227 47.5537 56.9738 47.3749C57.1327 46.8182 57.1069 46.2404 57.1069 45.6671C57.4259 45.8012 57.8296 46.1151 58.1734 46.1581C58.5269 46.2022 58.5891 45.7757 58.4964 45.4956C58.3687 45.1097 57.9434 44.7935 57.6518 44.5449C57.5232 44.4354 57.1867 44.259 57.1162 44.0924C57.0435 43.9204 57.1477 43.837 57.2293 43.6876C57.3569 43.4539 57.6661 42.85 57.3297 42.6312C57.0202 42.4298 56.8466 42.9942 56.6495 43.1149C56.315 43.3198 56.2003 42.8505 56.0673 42.6116C55.8259 42.1779 55.4913 41.7909 55.191 41.4007C54.9175 41.0455 54.7491 40.8051 54.7092 40.3526C54.6789 40.0097 54.6107 39.7444 55.0041 39.6664C55.7016 39.5284 56.7227 39.8686 57.2892 39.2855C57.5864 38.9798 57.3741 38.6636 56.9989 38.6794C56.5061 38.7 56.0375 38.7251 55.5415 38.6839C55.2778 38.6621 54.7266 38.728 54.5934 38.4487C54.4221 38.0891 54.7126 37.5114 54.3971 37.1963C53.9943 36.7939 53.8956 37.7033 53.8823 37.9544C53.8724 38.1373 53.9181 38.4158 53.8074 38.5741C53.7039 38.7217 53.515 38.7195 53.3621 38.7729C52.9771 38.9074 52.7782 39.3935 53.289 39.4963C53.4608 39.5309 53.7004 39.4806 53.8432 39.6115C53.9928 39.7485 53.9356 39.9919 53.9496 40.1766C53.5919 39.7504 52.848 39.9393 52.3635 39.7811C52.1083 39.6977 52.0652 39.5867 51.9578 39.3327C51.8279 39.0254 51.5318 38.6367 51.5204 38.2969C51.5108 38.0084 51.7447 37.7912 51.8538 37.5425C51.9475 37.3291 52.0323 36.9818 52.0184 36.7423C51.985 36.1648 50.9709 36.7543 50.762 36.9753C50.3829 37.3764 49.9155 37.8952 50.1211 38.4633C50.3044 38.9702 50.4016 39.2577 49.7656 39.2178C49.5328 39.2032 49.0439 39.2506 48.8632 39.1495C48.7292 39.0746 48.7796 38.9401 48.7751 38.7454C48.7714 38.5766 48.7838 38.3209 48.6784 38.1734C48.3074 37.6548 48.2207 38.9454 48.0123 39.0852C47.6869 39.3039 46.9979 39.0747 47.0511 39.7236C47.0977 40.2913 47.8444 40.0595 48.051 40.5479C48.1505 40.7832 48.1293 41.0571 48.2547 41.2842C48.4332 41.6078 48.653 41.5906 48.7714 41.2532C48.8545 41.0162 48.7437 40.7726 48.8076 40.549C48.9 40.2257 49.3397 40.2556 49.6102 40.2191C49.9389 40.1746 50.2255 40.0896 50.5382 39.9857C50.9241 39.8574 50.9031 40.068 50.9659 40.3729C51.0388 40.7267 51.1502 41.0677 51.2185 41.4267C51.2822 41.7613 51.4511 42.1217 51.4786 42.4565C51.4995 42.7126 51.4151 42.6891 51.2089 42.8369C50.9833 42.9984 50.7351 43.4181 50.4734 43.4871C50.0798 43.5909 49.683 42.6662 49.3249 43.1394C49.171 43.3425 49.2306 43.775 49.3399 43.9849C49.4844 44.2622 49.75 44.3327 49.5274 44.6503C49.3601 44.8889 49.1498 45.0738 49.1341 45.3949C49.1195 45.6929 49.3167 45.9749 49.6251 45.8873C49.8743 45.8167 50.0216 45.5544 50.2103 45.3952C50.536 45.1204 50.8035 45.375 51.1369 45.5306C51.3993 45.653 51.8816 45.7329 52.0132 46.021C52.1804 46.3864 51.9661 46.5278 51.6556 46.4238C51.7766 46.8325 51.6174 47.0699 51.5737 47.4922C51.5384 47.8341 51.4619 48.1468 51.4131 48.4774C51.3484 48.9187 51.3416 48.8709 50.8995 48.8859C50.524 48.8986 50.1589 48.8883 49.7838 48.8714C49.4534 48.8565 49.2286 48.8872 49.2138 48.4774C49.2072 48.2966 49.3182 47.6835 48.9713 47.7571C48.6659 47.8219 48.7539 48.3821 48.6517 48.5926C48.5039 48.8973 48.2539 48.8041 47.9759 48.8793C47.6929 48.9559 47.4643 49.1706 47.5372 49.5022C47.6152 49.8563 47.931 49.8317 48.2055 49.9136C48.6283 50.0397 48.5356 50.6787 48.7823 51.0258C48.883 51.1674 48.989 51.3105 49.1581 51.1943C49.4681 50.981 49.1754 50.4602 49.2574 50.1988C49.3435 49.924 49.634 49.9803 49.9085 49.9446C50.3138 49.8921 50.738 49.6912 51.1418 49.6936C51.0644 49.9331 50.8475 50.0722 50.7694 50.3243C50.7275 50.4595 50.7666 50.7118 50.7085 50.8235C50.6461 50.9436 50.4491 50.9795 50.3676 51.1465C50.261 51.3652 50.2281 51.5994 50.1033 51.8135C49.8083 52.32 49.5543 52.8377 49.2408 53.339C48.917 53.8566 48.5681 54.3493 48.1609 54.798C47.7658 55.2335 47.6479 55.0226 47.3084 54.6666C47.1702 54.5218 46.8766 54.3541 46.8383 54.1377C46.8003 53.9244 46.972 53.7504 47.0659 53.5768C47.1906 53.3466 47.4156 52.9506 47.3608 52.6745C47.2579 52.1559 46.8067 52.6334 46.6356 52.8275C46.3369 53.1666 46.1699 53.5232 45.7184 53.2553C45.4293 53.0838 45.0648 52.6144 44.6855 52.788C44.3401 52.946 44.4368 53.4026 44.6493 53.6343C44.7683 53.7641 44.9379 53.8384 45.0641 53.9598C45.3359 54.2217 45.182 54.2927 45.058 54.5859C44.9565 54.826 44.9418 55.2979 45.1289 55.4979C45.4972 55.8912 45.782 55.0978 46.1238 55.0816C46.2858 55.074 46.9593 55.5281 47.0073 55.6916C47.0916 55.9784 46.3649 56.3209 46.1719 56.4556C45.7228 56.7687 45.2336 57.088 44.7285 57.2956C44.1324 57.5406 44.5767 56.7685 44.2508 56.5119C43.827 56.1781 43.7942 57.0925 43.7507 57.3196C43.6351 57.9238 43.014 57.9396 42.5128 58.0894C42.1938 58.1848 41.8745 58.2861 41.5523 58.3691C41.2787 58.4395 40.9725 58.4378 40.7073 58.525C40.4748 58.6015 40.3157 58.7567 40.0556 58.7585C39.9711 58.7591 39.8976 58.7296 39.816 58.7277C39.6516 58.7235 39.5008 58.8202 39.3436 58.8102C39.0822 58.7934 39.196 58.7087 39.1049 58.5213C39.0195 58.3454 38.8022 58.2808 38.6331 58.2258C38.1483 58.0684 37.7447 58.2064 37.6744 57.573C37.6527 57.3785 37.6813 56.58 37.3212 56.6733C36.9006 56.7821 37.2707 57.7313 37.0096 57.9692C36.8826 58.0849 36.6908 58.0271 36.5377 58.0614C36.2863 58.1175 36.1761 58.3125 35.9009 58.2994C35.6688 58.2885 35.4527 58.1826 35.2503 58.0774C34.9487 57.9206 34.5889 57.8167 34.3374 57.5774C33.9927 57.2493 33.8415 56.7386 33.6946 56.2951C33.4784 55.6418 33.3862 54.9909 33.3515 54.3059C33.3394 54.0671 33.2407 53.8988 33.1994 53.6796C33.1555 53.4467 33.2851 53.3999 33.315 53.1792C33.3439 52.9646 33.3299 52.7354 33.3738 52.5054C33.437 52.1747 33.4591 51.8365 33.5203 51.5048C33.6217 50.9563 33.7753 50.4116 33.9015 49.8681C33.9407 49.6992 34.0117 49.1579 34.2145 49.1059C34.3641 49.0675 34.7097 49.2965 34.8483 49.3637C35.1226 49.4966 35.3583 49.6802 35.6517 49.7722C35.8031 49.8197 35.9942 49.815 36.0935 49.9594C36.2506 50.188 36.1236 50.6356 36.1887 50.9057C36.2684 51.2363 36.5321 51.377 36.7447 51.0448C36.858 50.8678 36.8278 50.6567 36.843 50.4609C36.8647 50.1787 36.8696 50.1104 37.1668 50.1295C37.4678 50.1488 37.7618 50.2656 38.0705 50.2798C38.3488 50.2926 38.6286 50.2847 38.9067 50.2691C39.582 50.2311 40.1996 50.1182 40.8328 49.8712C41.2619 49.7038 41.7593 49.338 42.2321 49.3509C42.8995 49.3691 42.7188 50.0039 42.8102 50.4787C42.8659 50.7677 43.3363 51.655 43.517 50.935C43.6063 50.5788 43.3085 50.0595 43.485 49.7378C43.6934 49.3577 44.4593 49.6731 44.8077 49.5851C45.0897 49.5138 45.561 49.103 45.3619 48.7486C45.2675 48.5807 45.0843 48.6125 44.921 48.6C44.6114 48.5762 44.3039 48.5327 43.9968 48.4863C43.8222 48.4599 43.5552 48.4444 43.4854 48.2383C43.4261 48.0634 43.704 47.6098 43.7644 47.4425C43.9638 46.8884 44.0357 46.4378 44.0365 45.8336C44.0367 45.5614 44.054 45.2741 44.0115 45.0047C43.9958 44.906 43.8517 44.5838 43.9191 44.4895C44.0099 44.3626 44.1957 44.5237 44.2702 44.6188C44.4183 44.8082 44.3668 44.793 44.2826 44.9893C44.1587 45.278 43.9178 45.8835 44.3264 46.1057C44.7537 46.3381 44.9081 45.5527 45.3129 45.6388C45.5017 45.679 45.688 45.934 45.8401 46.0531C46.0182 46.1926 46.2104 46.3406 46.4197 46.4262C46.7631 46.5666 47.1489 46.4614 47.0102 46.0177C46.9008 45.6678 46.5547 45.3752 46.3072 45.1271C45.913 44.7321 45.9309 44.566 46.2032 44.1006C46.3173 43.9058 46.755 43.0788 46.2476 43.0116C45.9791 42.9759 45.6887 43.4232 45.5469 43.5944C45.3035 43.8881 45.1639 44.0143 44.8017 43.7784C44.4477 43.5479 44.2834 43.3551 43.8551 43.3339C43.3625 43.3094 43.1408 42.5489 42.8797 42.1583C42.1701 41.0973 41.0839 40.5725 40.1679 39.7596C39.7216 39.3634 39.4202 38.8451 39.0807 38.3574C38.9191 38.1251 38.7104 37.9322 38.5787 37.6791C38.4959 37.5199 38.2714 37.1362 38.3298 36.9484C38.4025 36.7145 38.7951 36.5702 38.9583 36.405C39.0954 36.2665 39.1686 36.0938 39.3842 36.1467C39.576 36.1939 39.7489 36.4607 39.9058 36.5779C40.0597 36.693 40.2335 36.7998 40.4042 36.8858C40.713 37.0414 41.0858 37.1246 41.1039 36.6513C41.1197 36.2418 40.7562 35.8033 40.4936 35.527C40.3025 35.326 40.013 35.1513 40.0509 34.832C40.0696 34.6737 40.2005 34.3918 40.2769 34.259C40.5402 33.802 41.3441 34.0808 41.7809 34.1101C42.3073 34.1455 42.8876 34.0547 43.306 34.4373C43.4424 34.5622 43.7587 34.8073 43.8257 34.981C43.9036 35.1832 43.7763 35.2741 43.7056 35.4698C43.6141 35.7227 43.5512 36.2221 43.8145 36.3964C44.254 36.6874 44.4831 35.8243 44.9401 36.0131C45.3733 36.1921 45.6762 36.7069 46.1707 36.7883C46.8179 36.8949 46.4493 36.0706 46.2254 35.8281C45.9349 35.5137 45.3716 35.1885 45.556 34.7236C45.6087 34.5907 45.7291 34.3135 45.8374 34.231C46.0494 34.0695 46.3911 34.1582 46.6338 34.1608C47.2464 34.1675 47.8247 34.1158 48.4251 34.0057C48.6061 33.9725 48.6472 33.9462 48.7748 34.0848C48.9515 34.2764 49.0442 34.5262 49.2496 34.7146C48.9528 35.0432 48.513 35.4312 48.7193 35.937C48.8968 36.3723 49.286 36.1588 49.5493 35.9262C49.673 35.8171 49.8007 35.586 49.9646 35.5421C50.1773 35.4852 50.4164 35.6838 50.5906 35.7846C50.852 35.936 51.411 36.3847 51.7079 36.1198C52.1006 35.7694 51.6359 35.2422 51.3654 35.0258C51.2018 34.8949 50.9838 34.8015 50.8461 34.64C50.6629 34.425 50.7704 34.3934 50.8814 34.1997C51.0846 33.8451 51.0101 33.3885 51.3351 33.1116C51.5153 32.958 51.773 32.8615 51.9788 32.7489C52.1813 32.638 52.3987 32.418 52.5974 32.3336ZM55.9089 33.7123C55.8299 33.6626 55.7508 33.6129 55.6718 33.5631C55.8525 33.4726 55.9717 33.4834 55.9089 33.7123ZM60.2697 38.02C60.3015 37.8545 60.4257 37.5585 60.5967 37.7133C60.7068 37.8128 60.5865 38.1863 60.8485 38.083C60.8619 38.321 60.6894 38.3008 60.9439 38.5125C60.6229 38.4743 60.1797 38.4892 60.2697 38.02ZM47.8091 58.0796C47.8899 57.8567 47.8893 57.5111 48.1381 57.7148C48.1511 57.4449 48.089 56.5891 48.5658 56.6239C48.7603 56.638 48.7581 56.8143 48.8095 56.9669C48.8991 57.2331 49.0504 57.4757 49.1778 57.7238C48.7047 57.7435 48.2312 57.8547 47.8091 58.0796ZM47.964 61.1554C48.2344 61.3654 48.37 61.1175 48.6253 61.0271C48.8609 60.9436 49.1054 60.9936 49.3665 60.9344C49.6902 60.8609 50.0715 60.8721 50.3878 60.8692C50.4657 60.8685 50.6287 60.8812 50.7074 60.8905C50.8509 60.9074 50.838 60.9379 50.9866 60.9789C51.0439 60.9654 51.1018 60.9554 51.1603 60.9493C51.2319 60.9461 51.2885 60.9766 51.3298 61.0407C51.4634 61.0864 51.5119 61.056 51.6398 61.088C51.9443 61.1644 52.1717 61.3529 52.3705 61.6029C52.7755 62.1115 52.7875 62.876 52.7782 63.5057C52.7756 63.685 52.7623 63.8634 52.7816 64.0423C52.7992 64.2063 52.912 64.4542 52.866 64.6173C52.7961 64.8641 52.5798 64.8086 52.3279 64.8196C52.1796 64.8262 52.0316 64.9244 51.9135 64.9332C51.7994 64.9416 51.7534 64.8984 51.6379 64.8718C51.3365 64.8025 50.9808 64.9014 50.6835 64.9856C50.3785 65.0722 50.1109 65.1575 49.8016 65.2187C49.6003 65.2585 49.4191 65.2812 49.2161 65.3072C49.0495 65.3286 48.9777 65.4187 48.8324 65.4558C48.6924 65.4915 48.5557 65.438 48.4144 65.4661C48.2217 65.5044 48.0874 65.6497 47.9119 65.7219C47.6699 65.8217 47.2831 65.6727 47.1758 65.9801C47.1338 65.6836 46.857 65.7642 46.651 65.738C46.3114 65.6947 45.9768 65.5382 45.6503 65.4384C45.3825 65.3566 44.4566 64.6026 44.2793 64.9087C44.2796 64.8778 44.3118 64.7025 44.2838 64.6822C44.185 64.6109 44.1858 64.6501 44.0795 64.6054C43.9168 64.5371 43.8482 64.4754 43.7319 64.3601C43.4967 64.1272 43.1801 64.0054 42.9324 63.7941C42.3099 63.2633 42.0968 62.1698 41.9449 61.4087C41.7463 61.7704 41.8194 61.3062 41.8538 61.151C41.9351 60.7851 41.8305 60.6045 41.8069 60.251C41.7851 59.9257 41.9294 59.8614 42.2153 59.8274C42.5673 59.7854 42.9062 59.7269 43.2511 59.6367C43.5804 59.5504 43.9031 59.4531 44.2003 59.2816C44.4723 59.1246 44.7577 59.0629 45.0358 58.9255C45.3425 58.7739 45.6432 58.6146 45.9527 58.467C46.0921 58.4005 46.7063 57.9243 46.8129 57.9533C47.0318 58.0129 46.8251 58.4067 46.7584 58.51C46.587 58.7754 46.3054 58.8985 46.0515 59.0655C45.8224 59.216 45.1277 59.9293 45.833 59.8577C46.3003 59.8104 46.6169 59.3071 46.9158 59.8806C47.0214 60.0831 47.1767 60.2456 47.0554 60.4549C46.8859 60.7469 46.3972 60.886 46.141 61.0825C45.9226 61.2499 45.4758 62.0394 45.9261 62.1241C46.0555 62.1483 46.255 62.1169 46.3513 62.0135C46.4162 61.9438 46.4116 61.8004 46.4772 61.7527C46.5703 61.685 46.751 61.7688 46.8572 61.7317C47.0085 61.6788 47.0441 61.594 47.0997 61.4446C47.2613 61.5204 47.2635 61.622 47.448 61.5243C47.5092 61.4919 47.5317 61.373 47.6025 61.3412C47.6977 61.2986 47.726 61.4383 47.7782 61.4177C47.9197 61.362 47.9192 61.2992 47.964 61.1554ZM38.2649 58.8335C37.9939 58.8544 37.698 58.8767 37.4667 58.6993C37.7476 58.7167 37.9955 58.7819 38.277 58.7222C38.389 58.6985 38.5681 58.59 38.6828 58.6277C39.0903 58.762 38.3734 58.825 38.2649 58.8335ZM37.5123 34.3409C37.5083 34.2429 37.4275 32.9254 37.8655 33.4429C37.9854 33.5845 37.8561 33.7741 37.8391 33.9307C37.8103 34.1946 37.9003 34.459 38.0356 34.6813C38.1618 34.8885 38.3975 35.07 38.3622 35.3402C38.3313 35.5773 38.0984 35.7798 37.9836 35.9765C37.7014 35.5196 37.535 34.8908 37.5123 34.3409ZM36.5494 20.5131C35.5344 20.6228 34.5244 20.817 33.5456 21.1168C32.5847 21.411 31.6889 21.8711 30.7859 22.3119C30.5998 21.4932 30.4049 20.6766 30.2211 19.8572C30.1327 19.4629 30.0482 19.0675 29.9654 18.6718C29.9065 18.3905 29.6922 17.8659 29.7816 17.5892C29.8291 17.4425 29.8917 17.4419 29.9938 17.3513C30.0561 17.2961 30.1648 17.1609 30.2294 17.1319C30.3868 17.0616 30.791 17 30.9521 17.01C31.0989 17.0191 31.1757 17.079 31.3267 17.0357C31.4553 16.9988 31.5633 16.8971 31.684 16.8413C31.9911 16.6995 32.3744 16.6519 32.7028 16.5768C33.0189 16.5046 33.3452 16.4885 33.662 16.417C33.9395 16.3542 34.0714 16.1444 34.3081 16.1519C34.924 16.1717 35.6052 16.0975 36.2163 15.9463C36.902 15.7767 37.6479 15.8095 38.3514 15.7913C38.6317 15.7841 38.8286 15.7193 38.8301 16.0399C38.8317 16.4312 38.6796 16.8705 38.602 17.2524C38.4299 18.0993 38.2841 18.9226 38.2191 19.7825C38.1865 20.2127 38.0149 20.1826 37.6745 20.3146C37.2958 20.4613 36.9522 20.4696 36.5494 20.5131ZM31.2124 29.202C31.4625 29.24 31.4338 28.5371 31.4521 28.3942C32.0485 29.5496 32.72 30.6616 33.2455 31.855C33.3683 32.1341 33.4798 32.4196 33.6096 32.6953C33.6984 32.8841 33.8971 33.1375 33.8924 33.3571C33.8873 33.5862 33.7072 33.672 33.5173 33.7569C33.3121 33.8487 33.232 33.8945 33.0874 33.7884C32.9124 33.6598 32.7663 33.2639 32.6582 33.073C32.4931 32.7816 32.335 32.4861 32.1734 32.1928C31.8805 31.661 31.5349 31.1519 31.2942 30.5937C31.0688 30.0707 30.7278 29.6206 30.4848 29.1069C30.2442 28.5981 29.9148 28.1158 29.6382 27.6178C29.916 27.499 30.2623 27.2023 30.5779 27.2188C30.904 27.2358 30.896 27.5592 30.9102 27.8285C30.925 28.1145 30.8319 29.1442 31.2124 29.202ZM32.0133 34.4225C31.8645 34.6038 31.5291 34.7104 31.3234 34.811C31.0385 34.9502 30.7468 35.0741 30.4633 35.2162C29.5329 35.6826 28.6065 36.1095 27.6588 36.5378C27.1689 36.7592 26.685 36.9945 26.2069 37.2416C25.9565 37.3711 25.4047 37.8247 25.1166 37.8362C24.7863 37.8494 24.7785 37.1641 24.7058 36.9071C24.6446 36.692 24.5311 36.5245 24.4548 36.3207C24.4237 36.2373 24.4478 36.1742 24.4004 36.0917C24.3465 35.9977 24.1953 35.9219 24.1175 35.8409C23.7874 35.4964 23.5138 35.0579 23.235 34.6698C22.9796 34.3144 22.5439 33.8693 22.4214 33.4337C22.1805 32.5773 23.58 32.1033 24.1155 31.7592C25.053 31.1568 25.9951 30.538 26.8889 29.8688C27.296 29.5639 27.6945 29.2469 28.1037 28.9447C28.2946 28.8038 28.8237 28.2553 29.0688 28.4507C29.1601 28.5235 29.1618 28.7248 29.1999 28.8304C29.2831 29.061 29.4094 29.2623 29.5374 29.4692C29.6511 29.6524 29.8127 29.8418 29.8837 30.0462C29.9684 30.29 29.9644 30.428 30.1194 30.6467C30.4012 31.0443 30.5343 31.503 30.7963 31.9084C31.049 32.2993 31.2917 32.5876 31.4569 33.0243C31.5517 33.2747 31.7013 33.4967 31.8335 33.7269C31.8957 33.8356 31.9608 33.9424 32.0166 34.055C32.1165 34.2561 32.1517 34.2535 32.0133 34.4225ZM24.0165 37.7674C23.8377 37.8988 23.5745 37.6778 23.401 37.6748C23.3256 37.6734 23.2506 37.7339 23.2002 37.7322C23.0486 37.7276 22.9248 37.623 22.7852 37.5743C22.1411 37.3492 21.3731 37.3405 20.8229 36.8834C19.7298 35.975 20.2509 34.1526 20.45 32.9719C20.4906 32.7311 20.5636 32.3978 20.3743 32.2006C20.1667 31.9844 19.8545 32.1134 19.6646 32.2883C19.4697 32.4675 19.3372 32.7187 19.1752 32.9281C18.9172 33.2615 18.6356 33.5767 18.3511 33.8862C17.3404 34.9859 16.27 36.2442 15.0197 37.0512C14.4997 37.3869 14.029 37.8418 13.4591 38.0976C12.7735 38.4054 13.4773 37.2174 13.6006 37.0244C14.4075 35.7611 15.5823 34.761 16.5688 33.652C16.755 33.4427 17.0194 33.1606 17.0227 32.8591C17.0277 32.4063 16.6385 32.4469 16.3307 32.5726C16.0429 32.6902 15.8987 32.9829 15.6671 33.1828C15.3788 33.4318 15.0419 33.6337 14.721 33.8345C14.0289 34.2679 13.2941 34.6315 12.5616 34.9861C12.219 35.1519 11.8747 35.3142 11.5305 35.4765C11.4359 35.5211 10.8712 35.8892 10.8982 35.5736C10.9018 35.5312 11.2621 35.0816 11.3066 35.0649C11.5285 34.9816 11.6385 35.2331 11.8359 34.9035C11.9762 34.6694 11.9956 34.5479 12.1936 34.3703C12.2274 34.3401 12.2505 34.2637 12.2779 34.2142C12.2745 34.2328 12.425 34.0824 12.3962 34.1085C12.4357 34.0727 12.4931 34.0069 12.5252 33.9639C12.6801 33.7562 12.9777 33.7522 13.1122 33.5148C13.1635 33.4245 13.1344 33.3086 13.1963 33.2188C13.283 33.093 13.4737 33.0394 13.5754 32.9287C13.6626 32.8336 13.7345 32.7561 13.7887 32.6979C13.826 32.6578 13.8914 32.6297 13.9355 32.5839C14.0454 32.4697 14.0367 32.3687 14.1904 32.2727C14.3284 32.1866 14.3918 32.2672 14.4396 32.0539C14.6075 32.1645 14.5864 32.0027 14.6546 31.8868C14.7432 31.736 14.8557 31.6688 14.9779 31.5597C15.2466 31.3196 15.4985 30.9621 15.7271 30.6599C16.2957 29.9082 16.7555 29.0293 16.9248 28.0862C16.9654 27.8607 16.9877 27.6329 17.0039 27.4042C17.0124 27.2839 16.9742 26.9911 17.0467 26.8733C17.1593 26.6905 17.3728 26.7631 17.5353 26.6831C17.5906 26.6559 17.6451 26.5758 17.6968 26.5576C17.7693 26.5322 17.858 26.557 17.9332 26.5325C17.9624 26.523 17.9692 26.4347 18.0175 26.4234C18.1123 26.4011 18.2064 26.4365 18.3001 26.4378C18.5051 26.4406 18.7075 26.4035 18.9041 26.3364C19.0829 26.2753 19.2326 26.1353 19.411 26.0848C19.3928 26.0901 19.7051 26.1156 19.6883 26.0975C19.7032 26.0184 19.7182 25.9394 19.7331 25.8604C19.8517 25.9455 20.256 26.0577 20.3815 26.0383C20.5831 26.007 20.5406 25.8203 20.7115 26.0656C20.8083 25.9788 20.905 25.8921 21.0017 25.8054C21.075 26.1214 21.5797 25.9681 21.8085 25.9855C22.1309 26.0102 22.3848 25.948 22.6786 26.0633C23.0359 26.2038 23.3492 26.3517 23.7341 26.39C24.0029 26.4167 24.1148 26.5466 24.3782 26.6268C24.7322 26.7343 24.7602 26.8531 24.6494 27.2248C24.5597 27.5261 24.4821 27.7584 24.6133 28.0676C24.846 28.6159 25.4782 28.8418 25.8859 29.2207C24.9309 29.9093 23.988 30.5867 23.0649 31.3206C22.6781 31.6279 22.2667 31.9358 22.0464 32.3982C21.8432 32.8251 21.728 33.338 21.6058 33.7948C21.3254 34.8423 22.1153 35.5473 22.9268 36.0081C23.0948 36.1033 24.2513 37.5948 24.0165 37.7674ZM22.4415 39.0335C22.3844 38.832 22.3919 38.7782 22.5812 38.7059C22.6528 38.6786 22.9274 38.6428 22.9719 38.7439C23.0725 38.9731 22.5436 38.9702 22.4415 39.0335ZM30.4888 24.4345C30.5566 24.8815 30.6233 25.3287 30.6839 25.7768C30.7173 26.0243 30.793 26.2433 30.6136 26.43C30.5116 26.536 30.2642 26.5756 30.134 26.6321C29.9462 26.7136 29.7632 26.8069 29.5826 26.9041C29.2606 27.0774 28.9241 27.1817 28.6063 27.338C28.468 27.4058 28.3861 27.5395 28.2664 27.6317C28.1027 27.758 27.9035 27.8194 27.7345 27.9394C27.4326 28.1542 27.1559 28.4083 26.8541 28.6244C26.5122 28.8694 26.4409 28.7907 26.2489 28.4288C26.0765 28.1039 25.8696 27.9556 25.6214 27.7009C25.5249 27.6019 25.1795 27.0373 25.4729 26.9887C25.5481 26.9761 25.8078 27.0923 25.8667 27.1294C25.9561 27.1858 26.099 27.5063 26.1718 27.5118C26.3027 27.5216 26.4704 27.1384 26.5521 27.0376C27.087 26.376 27.6755 25.7216 28.2954 25.1429C28.6167 24.8429 28.9542 24.5696 29.3184 24.3274C29.5774 24.1553 29.8035 23.9141 30.0589 23.7508C30.1129 23.7028 30.1741 23.6684 30.2428 23.6478C30.376 23.5856 30.4261 23.6393 30.3929 23.8088C30.4693 23.9746 30.461 24.2515 30.4888 24.4345ZM18.7877 23.8486C18.9176 23.7127 19.0819 23.604 19.1953 23.4522C19.2593 23.3666 19.3015 23.2135 19.3747 23.1581C19.5021 23.0617 19.6844 23.1062 19.8326 22.9768C19.9757 22.8518 20.1014 22.7022 20.2412 22.5725C20.5442 22.2915 20.857 22.0333 21.1543 21.7473C21.3233 21.5847 21.5004 21.3738 21.6506 21.2665C21.6904 21.2381 21.735 21.1957 21.7773 21.1738C21.8677 21.127 21.9128 21.1747 22.0448 21.131C22.1321 21.1023 22.1944 20.9887 22.2644 20.9349C22.431 20.8072 22.6479 20.7566 22.8081 20.6337C22.9684 20.5107 23.0455 20.3198 23.266 20.2173C23.5328 20.0933 23.7328 20.1912 23.9257 19.9541C24.0043 19.8575 24.0258 19.7357 24.1493 19.6747C24.2981 19.6012 24.4287 19.6792 24.5708 19.5957C24.6666 19.5393 24.732 19.4211 24.8309 19.3594C25.0079 19.2494 25.2038 19.2377 25.3693 19.1014C25.509 18.9865 25.4315 18.9983 25.5969 18.9498C25.6696 18.9285 25.7503 18.9193 25.828 18.892C26.0767 18.8048 26.4828 18.6981 26.6301 18.4557C26.705 18.5678 26.7306 18.5906 26.8519 18.5558C26.9156 18.5025 26.974 18.4439 27.0273 18.38C27.0663 18.4307 27.1082 18.4337 27.1529 18.3891C27.4154 18.2964 27.6562 18.1371 27.9147 18.0487C27.9514 18.069 27.988 18.0894 28.0246 18.1096C28.0755 18.1125 28.0962 18.087 28.0866 18.0329C28.1883 18.0138 28.3055 17.9678 28.3992 17.9258C28.5789 17.8454 28.7774 17.6542 28.9892 17.7226C29.3427 17.8369 29.3597 18.578 29.4207 18.8716C29.571 19.5954 29.7223 20.3189 29.8734 21.0424C29.9348 21.337 29.9888 21.6336 30.0696 21.9231C30.1225 22.1122 30.254 22.3912 30.2065 22.5923C30.1483 22.8389 29.9141 22.9191 29.7183 23.0332C29.4485 23.1903 29.1876 23.3647 28.9322 23.5457C27.848 24.3141 27.0397 25.3707 26.271 26.4548C26.1286 26.2422 25.7471 25.9436 25.5093 25.8477C25.3428 25.7807 25.1929 25.8347 25.0272 25.7529C24.9089 25.6944 24.8108 25.5803 24.6989 25.5068C24.0163 25.0576 23.1925 24.6863 22.4012 24.5081C20.7778 24.1422 19.1885 24.7087 17.6144 24.9775C17.9338 24.5263 18.4114 24.2419 18.7877 23.8486ZM29.6543 11.6053C29.9321 10.675 30.3999 9.77429 31.0657 9.07642C31.4014 8.72458 31.796 8.41707 32.2382 8.22145C32.623 8.05139 33.0805 7.88829 33.0746 8.43515C33.0616 9.62231 32.7947 10.796 32.7621 11.9851C32.7303 13.1503 32.9202 14.0856 33.6065 15.0246C33.1717 15.1283 32.737 15.2336 32.3038 15.344C31.9747 15.4278 31.6336 15.5218 31.3223 15.5794C31.0146 15.6362 30.7316 15.6732 30.4274 15.7801C30.2223 15.8521 29.901 16.0723 29.6791 16.0245C29.3102 15.9451 29.3975 14.5855 29.3785 14.2589C29.3253 13.3364 29.3893 12.4931 29.6543 11.6053ZM36.396 13.3965C36.9 12.768 37.4236 12.0347 38.2715 11.9181C39.0912 11.8052 39.3934 12.8153 39.3412 13.4965C39.3237 13.727 39.2903 14.3254 39.1273 14.5122C38.947 14.7187 38.627 14.563 38.398 14.5312C37.4092 14.3936 36.3956 14.6232 35.4041 14.6232C35.7347 14.2142 36.067 13.8067 36.396 13.3965ZM40.4529 15.9029C40.7968 15.9535 41.0715 16.0074 40.9054 16.4096C40.573 17.2152 40.3176 17.984 40.6089 18.8622C40.8314 19.5328 41.5359 20.347 42.2398 20.4813C42.4865 20.5284 42.8576 20.4442 43.0091 20.7016C43.1442 20.9309 42.9978 21.6185 42.9821 21.8732C42.9235 22.8217 42.6871 23.7629 42.0896 24.5082C41.5578 25.1714 40.909 25.6904 40.1358 25.0644C39.4839 24.5368 39.099 23.593 38.9061 22.7864C38.8031 22.3558 38.7906 21.9262 38.7709 21.4861C38.7535 21.0969 38.6813 20.8501 39.1096 20.7694C39.2245 20.7478 39.5113 20.7546 39.5117 20.5745C39.5123 20.3325 39.2013 20.4233 39.0824 20.411C38.6236 20.364 38.8385 19.8158 38.8812 19.4613C38.9541 18.8576 39.072 18.2606 39.1803 17.663C39.2724 17.1539 39.2773 16.4868 39.4775 16.0109C39.5944 15.733 40.2234 15.869 40.4529 15.9029ZM41.2976 17.6906C41.3497 17.3625 41.3775 16.9524 41.6944 16.771C42.0426 16.5717 42.217 16.8964 42.3889 17.1617C42.8446 17.8655 43.349 18.5241 43.4237 19.3978C43.4326 19.502 43.4761 19.7112 43.3784 19.7833C43.3347 19.8155 43.2305 19.7306 43.1631 19.7357C42.802 19.7623 42.5409 19.8617 42.1869 19.6523C41.4943 19.2423 41.1716 18.4824 41.2976 17.6906ZM44.0209 19.656C43.9466 18.8919 43.603 18.2144 43.2194 17.5694C43.0304 17.2514 42.663 16.9037 42.5325 16.5677C42.4625 16.3877 42.5863 16.1649 42.8407 16.242C42.9673 16.2805 43.2113 16.6257 43.296 16.7451C43.5134 17.052 43.6937 17.3944 43.8657 17.7295C44.0497 18.0877 44.5724 19.4022 44.0209 19.656ZM41.7408 12.0482C41.781 11.3294 41.7851 10.504 42.2382 9.90745C42.5894 9.44486 43.2323 9.24352 43.754 9.0647C44.4566 8.82375 45.3006 8.78657 46.0355 8.86442C46.6823 8.93302 47.1706 9.38549 47.5696 9.88301C47.9756 10.389 48.29 11.0404 48.5692 11.6291C48.639 11.7764 49.2316 12.7215 48.8308 12.6995C48.6718 12.6907 48.5337 12.3719 48.4119 12.2777C48.3166 12.204 48.2035 12.213 48.118 12.154C48.0263 12.0908 48.0462 12.0323 47.9751 11.9542C47.4856 11.4171 47.0353 11.7264 46.5073 12.0093C46.4826 11.8219 46.5259 11.4738 46.3733 11.3369C46.1738 11.1577 45.9654 11.4416 45.8222 11.5808C45.6919 11.7076 45.5313 11.9388 45.3672 12.0074C45.1541 12.0965 45.2265 12.0018 45.0414 11.927C44.6688 11.7764 44.3822 12.2221 44.1938 12.4813C44.1235 12.578 44.0085 12.8221 43.8827 12.8482C43.7609 12.8734 43.745 12.7844 43.6401 12.7515C43.3434 12.6585 43.2612 12.8759 43.1667 13.1459C43.0604 13.4495 42.9698 13.742 42.8124 14.0256C42.5338 14.5273 42.4141 14.6924 42.6344 15.2465C42.3127 15.2956 42.2451 15.335 42.0856 15.0416C41.9213 14.7392 41.8787 14.4885 41.889 14.141C41.9106 13.4142 41.6994 12.7864 41.7408 12.0482ZM49.2101 15.487C49.5469 16.1121 49.761 16.9819 49.7575 17.6941C49.7557 18.0474 49.7355 18.4819 49.575 18.8024C49.421 19.1099 49.0985 19.2639 48.8015 19.3949C48.0856 19.7108 47.2791 19.7072 46.5265 19.5664C46.1358 19.4931 45.7558 19.5404 45.4215 19.2993C45.1699 19.1176 44.8665 18.9413 44.7928 18.6084C44.762 18.469 44.8095 18.3523 44.7997 18.2156C44.8119 18.1505 44.8074 18.0871 44.786 18.0251C44.7421 17.9991 44.6978 17.9739 44.6532 17.9492C44.618 17.8454 44.6854 17.7296 44.6681 17.6212C44.6473 17.4903 44.5416 17.3837 44.4921 17.2651C44.3559 16.9379 44.4532 16.7549 44.7081 16.5327C44.7691 16.4833 44.8304 16.4346 44.8922 16.3861C44.9476 16.2961 45.0089 16.2957 45.0759 16.3849C45.1973 16.3866 45.1937 16.4251 45.3214 16.3869C45.601 16.3032 45.8357 15.9974 46.1096 15.89C46.2161 15.8483 46.3749 15.8837 46.4614 15.8068C46.5386 15.7379 46.4889 15.5935 46.5568 15.526C46.7735 15.3101 47.1144 15.5148 47.3149 15.2009C47.4785 14.9448 47.4437 14.5815 47.4605 14.2907C47.9627 14.3893 48.1803 14.8838 48.5929 15.1325C48.6745 14.8075 48.6864 14.8172 49.0014 14.728C48.8587 14.9993 49.0895 15.2633 49.2101 15.487ZM49.5945 12.0365C49.687 12.159 49.7577 12.4631 49.5945 12.4924V12.0365ZM50.0232 13.1424C50.79 13.144 51.2801 14.14 51.5039 14.757C51.7473 15.428 52.0037 16.3229 51.5496 16.9764C51.3754 17.227 51.1618 17.2499 50.8815 17.2174C50.5438 17.1783 50.3707 17.1281 50.5029 16.7573C50.7504 16.0626 50.5642 15.1794 50.1254 14.5977C50.7289 14.478 50.3464 13.9092 50.0435 13.6963C49.6897 13.4478 49.4038 13.141 50.0232 13.1424ZM32.5167 49.1494C32.3363 49.641 32.1529 50.1311 32.0015 50.6377C31.8581 51.1177 31.9412 51.6586 31.7628 52.1201C31.6531 52.0643 31.6216 51.9652 31.5262 51.905C31.4674 51.8677 31.365 51.853 31.3145 51.812C31.2277 51.7418 31.0173 51.4799 30.9602 51.3783C30.7631 51.0268 30.8946 50.4555 30.9999 50.0943C31.1303 49.647 31.353 49.2175 31.6521 48.865C31.8619 48.618 31.9777 48.6965 32.2581 48.8183C32.424 48.8902 32.5948 48.9362 32.5167 49.1494ZM31.1501 53.0282C31.006 53.3276 30.7396 53.5746 30.5814 53.8765C30.4154 54.1935 30.2897 54.5506 30.078 54.8404C29.8625 55.136 29.6688 55.0865 29.3721 55.214C29.2655 55.2597 29.2207 55.3444 29.135 55.4106C28.9742 55.5344 28.7979 55.6105 28.629 55.7207C28.5088 55.4177 28.1417 53.8968 27.6745 53.9294C27.2684 53.9577 27.4762 54.7539 27.5285 54.9889C27.5728 55.1873 27.6234 55.3888 27.6907 55.5804C27.7587 55.7739 27.9706 56.0637 27.8922 56.2758C27.7926 56.5453 27.5447 56.5276 27.4205 56.331C27.3167 56.1665 27.2641 55.943 27.1875 55.764C27.1202 55.6067 26.8128 54.7457 26.547 54.8792C26.291 55.0078 26.6892 55.8426 26.7558 56.0066C26.9168 56.4025 27.2254 56.7831 26.8175 57.1003C26.1984 57.582 25.4359 57.9446 24.7423 58.2918C24.3375 58.4945 23.9734 58.7611 23.5484 58.9256C23.1537 59.0784 22.6976 59.1045 22.316 59.2802C22.2221 59.3234 22.2851 59.3773 22.1479 59.4024C22.0329 59.4233 21.8319 59.367 21.7086 59.3681C21.5043 59.37 21.2996 59.3861 21.0957 59.3597C20.9807 59.3449 20.7192 59.2155 20.7606 59.429C20.5981 59.3827 20.5352 59.2141 20.4166 59.1089C20.311 59.015 20.1761 58.9641 20.0582 58.8904C19.8143 58.738 19.6321 58.5643 19.5589 58.2738C19.3871 57.5917 19.7502 56.8818 20.1982 56.4062C20.4555 56.1335 20.7572 55.9066 20.9929 55.6128C21.0757 55.5098 21.1346 55.3899 21.2396 55.3062C21.3682 55.2036 21.5447 55.1909 21.6692 55.0869C21.7619 55.0097 21.7896 54.8865 21.8867 54.8155C22.0304 54.7108 22.1984 54.7542 22.3342 54.6165C22.4115 54.538 22.6772 54.1678 22.6586 54.0653C22.7314 54.0903 22.8043 54.1154 22.8769 54.1404C22.9212 53.9123 23.3041 53.6309 23.493 53.5216C23.5885 53.4663 23.7746 53.469 23.8457 53.4096C23.9402 53.3304 23.9325 53.1645 24.0075 53.0652C24.2227 52.7805 24.673 52.6527 24.958 52.4544C25.3205 52.2021 25.6726 51.9164 26 51.6177C26.6619 51.0142 27.2455 50.3129 27.7222 49.5467C27.9142 49.2381 28.0924 48.9233 28.2291 48.5851C28.3133 48.3769 28.3973 48.0068 28.6052 47.886C28.8199 47.7613 29.313 47.9302 29.5535 47.9479C29.9066 47.9742 30.4572 47.9579 30.7737 48.1362C31.1121 48.3269 30.837 48.4845 30.6628 48.7119C30.4079 49.0445 30.2551 49.4518 30.1278 49.8509C30.0297 50.1578 30.0114 50.455 29.9472 50.7645C29.8795 51.0916 29.8801 51.5333 30.0371 51.8339C30.1925 52.1315 31.3122 52.6915 31.1501 53.0282ZM17.8005 59.0603C17.0401 57.9966 17.6696 56.4396 18.4134 55.58C19.3109 54.5429 20.5881 53.9597 21.6373 53.1164C22.8504 52.1412 24.0964 51.2353 25.1713 50.0914C25.7162 49.5117 26.1906 48.8868 26.6208 48.2131C26.986 47.6411 27.2511 46.879 27.9889 46.7963C27.5537 47.3538 27.5283 48.157 27.1918 48.7775C26.8355 49.4348 26.3102 49.9814 25.7753 50.4866C24.6458 51.5533 23.4259 52.5306 22.2059 53.4839C21.5832 53.9705 20.9777 54.4791 20.3571 54.968C19.8013 55.406 19.2175 55.7806 18.8972 56.448C18.3446 57.5994 18.3116 59.3053 19.5353 60.0146C18.9048 59.8855 18.1956 59.6128 17.8005 59.0603ZM84.0948 11.095C83.8698 10.6326 83.4482 10.4679 83.0249 10.287C82.6105 10.1099 82.2318 9.89182 81.7723 9.83516C81.5679 9.80997 80.9916 9.87252 80.9647 9.56828C80.9422 9.31475 81.5444 9.06029 81.6832 8.86714C81.8889 8.58084 82.0287 8.116 81.9489 7.7544C81.8733 7.41147 81.5487 7.30314 81.2456 7.24099C80.3029 7.04784 79.3006 7.18988 78.3554 7.26926C78.4711 7.10302 78.6341 6.96667 78.7269 6.76757L78.8767 7.08766C78.9621 6.9046 79.0546 6.72495 79.1608 6.55353C79.2325 6.63639 79.3044 6.71935 79.3761 6.80221C79.2568 6.37184 79.6581 6.37404 79.6159 6.01126C79.5995 5.87015 79.5065 5.80834 79.4837 5.69491C79.4388 5.4694 79.6083 5.32838 79.4154 5.11926C79.2008 4.88637 78.8497 4.97875 78.5998 5.00049C78.5685 5.00329 78.523 5.06705 78.4824 5.07223C78.4263 5.07953 78.3939 5.00006 78.3245 5.00431C78.1382 5.0156 77.9739 5.16427 77.7888 5.20943C76.9307 5.4188 76.0723 5.79221 75.2487 6.14081C74.4102 6.49571 73.5871 6.90893 72.8561 7.4659C72.0737 8.062 71.5086 8.82834 70.8837 9.58336C70.59 9.93817 70.2862 10.2789 70.0626 10.6877C69.9471 10.8989 69.8426 11.5625 69.6347 11.659C69.4088 11.7636 68.841 11.4675 68.61 11.4128C68.0663 11.2842 67.5252 11.2305 66.9678 11.2564C66.5245 11.2768 66.0567 11.2646 65.617 11.3203C65.3618 11.3526 64.7258 11.6436 64.685 11.969C64.6669 12.1136 64.8282 12.2338 64.8643 12.3693C64.9189 12.5742 64.8286 12.7914 64.8916 12.9967C65.02 13.4155 65.616 13.5695 65.9673 13.7014C66.9478 14.0697 67.9419 14.3553 68.9326 14.6849C69.3631 14.8283 69.7312 15.0564 70.1211 15.2855C70.4446 15.4753 70.7396 15.6653 70.4129 16.0218C70.1035 16.3595 70.1421 16.4958 70.2343 16.961C70.3315 17.452 70.3652 17.9485 70.4919 18.4347C70.618 18.9189 70.8537 19.3814 70.8078 19.8937C70.7618 20.4044 70.5562 20.9289 70.3639 21.3969C70.1697 21.8696 69.9552 22.3368 69.7441 22.8019C69.5489 23.2322 69.3375 23.6685 68.8858 23.8521C68.0233 24.2026 66.9214 24.1471 66.0225 24.0197C65.0023 23.8752 63.9484 23.6303 62.9836 23.2563C62.0559 22.8967 61.0355 22.3451 60.2682 21.6935C59.8583 21.3454 59.4145 21.0875 58.9795 20.7759C58.5387 20.4603 58.204 20.0346 57.8178 19.6566C57.0609 18.9158 56.1291 18.4054 55.17 17.9981C54.0918 17.5403 52.9787 17.5879 51.8361 17.5383C52.016 17.1753 52.2475 16.8283 52.3324 16.4242C52.4209 16.0032 52.3569 15.5459 52.3008 15.1253C52.192 14.3068 51.9858 13.5864 51.4829 12.9253C51.2529 12.623 50.9844 12.3873 50.6013 12.3434C50.3693 12.3167 49.9404 12.4999 49.7729 12.2979C49.6991 12.2088 49.7164 12.0215 49.6699 11.9119C49.6288 11.8145 49.5461 11.7164 49.5013 11.6107C49.3095 11.1585 49.0702 10.7589 48.8313 10.3299C48.7362 10.1593 48.6626 9.90745 48.533 9.7639C48.4625 9.6858 48.3718 9.65031 48.3323 9.59319C48.2585 9.48625 48.2245 9.29081 48.163 9.17016C48.0576 8.96367 47.9236 8.77179 47.7689 8.60139C47.5218 8.32903 47.2036 8.08866 46.8646 7.95298C46.6764 7.87759 46.5384 7.85976 46.3418 7.8708C46.2842 7.87402 46.2201 7.90816 46.1625 7.90366C46.0246 7.89287 46.0462 7.8421 45.9357 7.8185C45.1964 7.66032 44.2051 7.88226 43.5116 8.15472C42.7812 8.44169 42.1879 8.8201 41.744 9.50011C40.6537 11.1701 40.9078 13.3265 41.3702 15.1659C41.0905 15.0904 40.8119 15.0012 40.5294 14.9372C40.3565 14.898 40.1204 14.9054 39.966 14.8115C39.6222 14.6028 39.9018 14.0673 39.9039 13.7213C39.9092 12.8419 39.5053 11.467 38.6246 11.0956C37.7068 10.7086 36.5904 11.7948 36.0231 12.4108C35.6591 12.806 35.3282 13.2319 34.9799 13.6412C34.7366 13.9274 34.4152 14.3835 33.9885 14.3088C33.058 14.1457 33.3418 12.3268 33.3831 11.712C33.4485 10.7402 33.5878 9.75276 33.5885 8.77841C33.5889 8.18613 33.4892 7.38711 32.7813 7.31765C31.807 7.22214 30.8841 8.13264 30.316 8.83317C28.8176 10.6804 28.4867 13.122 28.8875 15.4401C28.9462 15.7799 29.1338 16.1991 28.7759 16.4101C28.3057 16.6873 27.7046 16.8551 27.1992 17.0587C26.0692 17.5136 25.0229 18.1204 23.959 18.7135C22.9057 19.3009 21.8693 19.8838 20.919 20.6404C19.9717 21.3947 19.034 22.194 18.1711 23.0491C17.741 23.4754 17.326 23.9201 16.9344 24.3842C16.566 24.8208 16.2675 25.3166 15.867 25.7246C15.5944 26.0024 15.0929 26.3749 15.033 26.7988C14.9846 27.1409 15.5462 27.378 15.7995 27.5361C15.9733 27.6446 16.0937 27.6412 16.1063 27.8345C16.1218 28.0755 15.8745 28.4618 15.7864 28.6916C15.5621 29.2778 15.269 29.7634 14.8835 30.2512C14.0299 31.3318 12.9983 32.248 12.0191 33.208C11.1094 34.0999 10.2179 34.9778 9.55096 36.0846C9.38753 36.3558 8.9809 36.9127 9.36739 37.1665C9.46738 37.2322 9.77426 37.2842 9.87607 37.2136C10.0023 37.1262 9.93833 36.9944 10.0874 36.9068C10.0501 37.2015 11.3525 36.6257 11.4539 36.5723C11.7276 36.4282 11.9752 36.2592 12.255 36.1301C12.4191 36.0543 12.439 35.9487 12.5661 35.8642C12.6341 35.8189 12.6349 35.8796 12.7257 35.8515C12.8076 35.826 12.9997 35.8164 13.0608 35.7354C13.0624 35.7331 13.1292 35.537 13.0725 35.5775C13.2943 35.4188 13.4255 35.659 13.2923 35.8845C12.8985 36.5508 12.4005 37.041 12.2462 37.8417C12.1902 38.1326 12.0946 38.6725 12.2674 38.9376C12.2737 38.9473 12.3318 38.9192 12.3389 38.9295C12.3455 38.9392 12.4089 39.0298 12.435 39.0555C12.5877 39.2056 12.5778 39.2725 12.8327 39.2662C12.9457 39.2634 13.1711 39.2485 13.2745 39.1961C13.3524 39.1567 13.3904 39.0594 13.4503 39.0248C13.5108 38.9896 13.5037 38.9713 13.5605 38.9509C13.5721 38.9466 13.5945 39.0488 13.6166 39.0446C13.738 39.0211 13.7903 38.9465 13.8935 38.8865C14.1907 38.7136 14.4821 38.5235 14.7651 38.3494C15.0501 38.1742 15.2629 37.9299 15.5466 37.7264C15.8481 37.5102 16.0947 37.3445 16.3266 37.0444C16.4871 36.8366 16.6787 36.761 16.7864 36.6587C16.9143 36.5373 17.1347 36.0685 17.3408 36.0128C17.4347 35.9873 17.5098 36.0727 17.5612 36.0377C17.6191 35.9984 17.556 35.923 17.585 35.8787C17.6392 35.796 17.646 35.7822 17.7382 35.7064C17.8563 35.6094 18.0014 35.5833 18.1004 35.4569C18.2106 35.3162 18.2258 35.1585 18.3613 35.0267C18.6874 34.7096 18.9777 34.3756 19.3232 34.0684C19.1898 34.833 19.0576 35.5921 19.161 36.3697C19.2612 37.1234 19.5724 37.4609 20.1834 37.8433C20.3179 37.9276 20.459 38.0501 20.6035 38.1097C20.6913 38.1461 20.8235 38.1244 20.889 38.1511C21.1105 38.2414 21.0351 38.4261 21.0655 38.6343C21.1126 38.957 21.4013 39.2053 21.5876 39.4568C21.7443 39.6682 22.0268 40.1493 22.289 40.2223C22.5257 40.2882 22.749 40.0037 22.9461 39.8826C23.2433 39.7 23.5672 39.5691 23.8806 39.4198C24.4929 39.1284 25.0844 38.7806 25.6898 38.4723C25.9663 38.3316 26.2456 38.2743 26.5383 38.1833C26.8898 38.0741 27.1898 37.8652 27.5269 37.7227C28.1331 37.4664 28.714 37.1606 29.3166 36.8914C30.5637 36.3344 31.9239 35.9518 33.0337 35.1161C33.5357 34.7381 34.1821 34.6978 34.6769 34.3305C35.1926 33.9475 34.8764 33.3618 34.6556 32.8918C34.0523 31.6079 33.6923 30.2745 32.8618 29.1048C32.4303 28.4971 32.0316 27.8691 31.6553 27.2231C31.3224 26.6513 31.3292 26.0037 31.2457 25.3578C31.1897 24.9262 31.1373 24.4927 31.0689 24.063C31.0256 23.7898 30.8857 23.4457 31.055 23.1982C31.2368 22.9322 31.6688 22.8189 31.9417 22.6786C32.281 22.5042 32.6095 22.3166 32.9615 22.1689C33.7659 21.8316 34.6131 21.5981 35.4569 21.392C35.7084 21.3306 36.7855 20.8911 36.9905 21.1485C36.7387 21.3215 36.6652 21.6355 36.5522 21.9047C36.384 22.3058 36.2104 22.6879 36.0877 23.1082C35.8341 23.9773 35.6185 24.8603 35.4118 25.7421C35.2064 26.6177 34.9618 27.5002 34.899 28.4022C34.8668 28.8627 34.8889 29.3234 34.888 29.7843C34.8872 30.2762 34.788 30.7587 34.8056 31.2518C34.8175 31.5797 34.8443 31.9737 35.0312 32.2534C35.2044 32.5126 35.499 32.5415 35.7557 32.6801C36.0944 32.863 36.227 32.941 36.2301 33.339C36.2338 33.8028 36.2046 34.2583 36.2468 34.7218C36.3939 36.3359 36.9217 38.2514 37.9751 39.4976C38.0451 39.5805 40.0889 42.2293 40.3151 41.8415C40.471 42.0311 40.704 42.1004 40.8957 42.2658C41.1972 42.5256 41.4929 42.7332 41.7421 43.055C42.1957 43.6406 42.5814 44.3268 42.6949 45.0755C42.7923 45.7199 42.7337 46.4903 42.38 47.0488C42.0252 47.6091 41.2667 47.9766 40.6941 48.2525C39.9414 48.615 39.1776 48.6557 38.3604 48.5649C37.9572 48.52 37.5572 48.45 37.1568 48.3839C36.9903 48.3563 36.7961 48.3562 36.6384 48.2917C36.4693 48.2227 36.4121 48.1463 36.2433 48.1378C36.1172 48.1314 36.0483 48.16 35.9151 48.1315C35.7501 48.0961 35.571 48.0317 35.4065 47.9882C35.2235 47.9398 35.0735 47.871 34.905 47.7822C34.749 47.7 34.5731 47.6841 34.4229 47.6062C34.1641 47.472 34.0842 47.2475 33.734 47.3719C33.3644 47.5032 33.4416 47.8318 33.2057 48.057C32.9959 48.2573 32.7362 48.0722 32.5275 47.9532C32.2203 47.7779 31.9013 47.6321 31.5742 47.4994C31.221 47.3561 30.8601 47.2315 30.4924 47.1328C30.0903 47.0249 29.6486 47.0036 29.2612 46.8464C28.9208 46.7085 28.7743 46.4415 28.5277 46.1921C28.2683 45.9298 27.9164 45.8299 27.5568 45.8532C26.902 45.8959 26.4548 46.6233 26.1089 47.1284C25.1425 48.5396 24.0742 49.7419 22.7824 50.8505C22.1652 51.38 21.4695 51.8304 20.8725 52.38C20.6208 52.6118 20.438 52.8292 20.1398 53.0019C19.7482 53.2286 19.3928 53.5131 19.0184 53.7688C17.5539 54.7687 16.4798 56.2255 16.8847 58.1277C17.067 58.9839 17.4312 59.5849 18.1115 60.1001C18.4204 60.3339 18.703 60.5285 19.0965 60.5149C19.468 60.5022 19.7957 60.4889 19.5769 60.0346C19.8542 60.1228 20.0862 60.3406 20.3889 60.4521C20.7376 60.5804 21.1914 60.6604 21.5616 60.6682C22.1545 60.6807 22.8519 60.3595 23.371 60.2233C23.5161 60.1854 23.7959 60.123 23.9612 59.9828C24.0927 59.8714 24.0642 59.7395 24.2633 59.6866C24.5241 59.6172 24.6235 59.6983 24.8733 59.5359C25.2357 59.3001 25.6287 59.1601 26.0047 58.9429C26.5112 58.6501 26.9981 58.32 27.4998 58.0186C27.5667 58.208 27.9599 59.3339 28.2027 58.7911C28.4139 58.3186 27.728 57.9142 28.145 57.4358C28.5428 56.9796 28.626 57.4593 29.0119 57.671C29.5476 57.965 29.4672 57.4158 29.3115 57.0906C29.2492 56.9605 29.1182 56.7643 29.1568 56.6126C29.2312 56.3196 29.4619 56.4916 29.6432 56.5214C29.9289 56.5686 30.1598 56.4878 30.3742 56.291C30.5531 56.1267 30.8488 55.985 30.9569 55.7685C31.011 55.6602 31.0204 55.5114 31.0654 55.3963C31.1247 55.2447 31.167 55.2815 31.1886 55.0934C31.1679 54.9961 31.1597 54.8977 31.1639 54.7979C31.2108 54.7882 31.2576 54.7785 31.3044 54.7686C31.3058 54.7618 31.3091 54.572 31.2902 54.6003C31.334 54.535 31.428 54.5074 31.482 54.4167C31.5317 54.3334 31.4855 54.1736 31.5054 54.0752C31.5459 53.876 31.6562 53.7152 31.7463 53.5377C31.937 54.3667 31.8819 55.2313 32.0641 56.0608C32.2137 56.7418 32.5545 57.3522 32.9521 57.9106C33.1364 58.1695 33.3804 58.3531 33.5733 58.5991C33.7365 58.8072 33.8182 58.9904 34.0591 59.1135C34.2194 59.1951 34.3997 59.2373 34.5648 59.3078C34.6705 59.353 34.9109 59.5608 35.01 59.5571C34.9237 59.5604 35.1722 59.5683 35.1146 59.5582C35.1189 59.5589 35.0852 59.447 35.1152 59.4488C35.4755 59.7994 35.8519 59.8002 36.2689 60.0182C36.4599 60.118 36.5314 60.1118 36.735 60.1487C36.9989 60.1965 37.2209 60.3511 37.4736 60.3676C37.8625 60.393 38.3005 60.4468 38.706 60.432C38.8163 60.4278 39.0237 60.3549 39.1102 60.454C39.1673 60.5194 39.059 60.9926 39.0521 61.1009C38.9809 62.2372 39.1286 63.4301 39.5952 64.4698C39.9821 65.3319 40.3946 66.3518 41.0788 67.0101C41.8374 67.7398 42.8998 68.2541 43.9143 68.4509C45.0375 68.6687 46.1508 68.5056 47.2775 68.4379C48.4206 68.3691 49.4783 68.2026 50.5807 67.8621C51.6059 67.5455 52.577 67.1328 53.558 66.6975C54.2252 66.4015 55.0711 65.9755 54.7214 65.077C54.6368 64.8598 54.3088 64.2557 54.0186 64.5537C53.7619 64.8174 54.1911 65.3165 54.3853 65.484C52.9212 66.5331 51.1446 66.88 49.4315 67.2517C48.4907 67.4557 47.5639 67.4471 46.6069 67.45C45.796 67.4524 44.9852 67.4763 44.1795 67.36C43.4506 67.2547 42.602 67.0572 42.0596 66.5097C41.4922 65.9368 40.9553 65.2528 40.568 64.5382C40.1431 63.7538 40.04 62.9058 40.0056 62.0214C39.9876 61.5557 39.9672 61.0843 40.0146 60.6197C40.0491 60.2825 40.2166 60.2424 40.2997 59.976C40.4918 60.2524 40.6182 60.1503 40.854 59.9888C41.0064 60.426 40.9385 60.8803 40.9122 61.3312C40.8868 61.7705 40.9438 62.2159 40.9961 62.6521C41.0849 63.3936 41.4307 64.167 41.8694 64.764C42.0677 65.034 42.3649 65.1479 42.6338 65.3343C42.9766 65.5719 43.3321 65.7932 43.6899 66.0065C44.3637 66.4082 45.0992 66.7516 45.8587 66.812C46.1248 66.8333 46.3183 66.9757 46.6353 66.9558C46.8235 66.944 47.0131 66.8778 47.2009 66.883C47.3891 66.8883 47.5508 66.9502 47.7442 66.9357C48.5476 66.876 49.3759 66.6056 50.1714 66.457C51.0327 66.2962 51.8993 66.123 52.7215 65.8056C53.0778 65.6679 53.372 65.4905 53.5709 65.1447C53.7129 64.8977 53.6757 64.4548 53.9404 64.307C53.7671 64.0772 53.8315 64.0367 53.9813 63.8312C54.0512 63.7354 54.2769 63.4818 54.0031 63.4864C54.0864 63.1162 53.9472 62.7582 53.8878 62.3961C53.8623 62.2397 53.8692 62.0029 53.7751 61.8683C53.7201 61.7898 53.6287 61.7883 53.5796 61.7304C53.5288 61.7293 53.4891 61.7076 53.4606 61.6653C53.4573 61.6035 53.4854 61.5658 53.545 61.5523C53.5313 61.4299 53.6194 61.4738 53.5313 61.2825C53.4111 61.0213 53.1829 60.7938 52.9669 60.6162C52.7829 60.4648 52.6474 60.1961 52.4349 60.1154C52.1584 60.0102 51.8685 59.896 51.578 59.7985C50.9194 59.5772 50.2666 59.4926 49.5756 59.6153C49.2591 59.6715 48.9473 59.7404 48.6417 59.8409C48.4628 59.8998 48.1893 60.0586 48.0309 59.8873C47.9765 59.8286 47.8629 59.3295 47.87 59.2756C47.8984 59.0591 48.3286 58.9717 48.4855 58.8961C48.7254 58.7807 49.1696 58.6572 49.3219 58.4281C49.3858 58.332 49.3136 57.924 49.3241 57.9167C49.4247 57.847 49.8471 58.8378 49.9621 58.9054C50.1284 59.0031 50.5958 58.8739 50.7677 58.8545C51.2808 58.7966 51.8023 58.7637 52.3048 58.6379C53.2684 58.3968 54.2145 58.0238 55.1522 57.6942C56.9361 57.0673 58.6583 56.2409 60.262 55.2145C61.011 54.735 61.755 54.1223 62.3249 53.4262C62.582 53.1122 62.7636 52.7398 63.026 52.4319C63.3288 52.0768 63.2334 51.7564 63.3691 51.3115C63.6439 50.4111 63.9776 49.5932 64.1272 48.6495C64.2812 47.678 64.3447 46.686 64.3021 45.7024C64.2177 43.7584 64.1259 41.9152 63.2945 40.1289C62.5325 38.492 61.5451 36.8926 60.3712 35.5373C60.0983 35.2223 59.81 34.9222 59.4748 34.6772C59.114 34.4134 58.7167 34.2064 58.3901 33.8948C58.122 33.639 57.8978 33.3378 57.6174 33.095C57.2732 32.7972 56.8638 32.6655 56.4607 32.4752C56.0742 32.293 55.7218 32.0559 55.3266 31.89C55.0861 31.7891 54.8425 31.6959 54.5918 31.6255C54.4066 31.5734 54.1604 31.5702 53.9909 31.4713C53.7229 31.3148 53.4486 30.8595 53.2735 30.6023C53.018 30.227 52.8796 29.7905 52.7581 29.3542C52.6102 28.8234 52.4727 28.2894 52.3282 27.7576C52.2787 27.5759 52.094 26.9435 52.4623 27.097C52.5701 27.1419 52.6711 27.3414 52.7542 27.4267C52.9115 27.5885 53.1057 27.7331 53.3009 27.8431C53.6157 28.0205 53.9435 28.2342 54.2454 28.3565C54.5115 28.4643 54.7851 28.6756 55.0331 28.8276C55.0707 28.8507 55.0818 28.9301 55.1303 28.9523C55.2446 29.0044 55.3207 28.8606 55.4288 28.8958C55.5762 28.9439 55.6005 29.0868 55.6823 29.2003C55.801 29.3651 55.8624 29.3782 56.0437 29.4629C56.2453 29.5572 56.3933 29.7436 56.5899 29.836C56.8288 29.9481 57.3543 29.8611 57.3902 30.2477C57.7613 29.9986 58.2268 30.4823 58.4584 30.7333C58.6916 30.3654 59.1046 30.7961 59.4574 30.674C59.2622 30.9529 59.2976 30.9252 59.6057 30.9596C59.8657 30.9888 60.0214 31.1663 60.2784 31.2694C60.4564 31.3407 60.6531 31.4608 60.8382 31.5111C61.0131 31.5586 61.1456 31.452 61.2979 31.4787C61.403 31.497 61.5028 31.5904 61.6027 31.6159C61.7294 31.6483 61.9098 31.6876 62.053 31.7225C62.2271 31.765 62.4005 31.726 62.5742 31.7598C62.7769 31.7992 62.9519 31.9233 63.1577 31.9636C63.3872 32.0084 63.6259 31.9784 63.854 32.0357C64.0619 32.0877 64.1883 32.1477 64.4037 32.1498C64.725 32.1531 65.0836 32.1967 65.4007 32.1595C65.5696 32.1396 65.6632 32.0516 65.8545 32.1376C65.982 32.195 66.0584 32.3723 66.2322 32.2911C66.0487 32.2156 66.2098 31.9213 66.412 32.1467C66.4599 32.0203 66.4908 31.9498 66.6238 31.9083C66.6172 32.032 66.5975 32.1562 66.751 32.1821C66.7627 32.096 66.7746 32.01 66.7863 31.9239C67.12 32.1849 67.199 32.2771 67.514 31.9585C67.5056 32.0628 67.4627 32.1808 67.5659 32.2547C67.6319 32.1419 67.698 32.0291 67.7641 31.9164C67.8756 32.2803 68.4082 32.1547 68.6663 32.0902C68.7665 32.0652 69.043 32.0256 69.1084 31.9413C69.1537 31.8828 69.1481 31.837 69.1649 31.8012C69.1797 31.7693 69.01 31.6911 69.1545 31.6454C69.2632 31.6108 69.348 31.8559 69.4757 31.8461C69.5896 31.8374 69.6357 31.6393 69.7176 31.5991C69.7254 31.5954 69.781 31.6791 69.8196 31.6607C69.8795 31.6322 69.9136 31.5572 69.9797 31.5306C70.1229 31.4731 70.3081 31.4874 70.4685 31.4191C70.6719 31.3326 70.8769 31.2913 71.0845 31.2199C71.3477 31.1296 71.4671 30.9519 71.6808 30.8066C71.7309 30.7725 71.7831 30.7924 71.8323 30.7683C71.8985 30.7358 71.968 30.6597 72.0469 30.6238C72.2943 30.5111 72.5056 30.4344 72.7403 30.2788C72.9496 30.14 73.2259 30.0376 73.4122 29.8711C73.5672 29.7325 73.6509 29.5302 73.8069 29.3892C74.0308 29.1868 74.6095 28.9328 74.5156 28.5374C74.8902 28.5962 74.9819 28.347 75.1193 28.0721C75.2501 27.8107 75.5182 27.7323 75.6935 27.4939C75.7692 27.3909 75.8912 27.248 75.933 27.1304C75.958 27.0604 75.8955 26.9874 75.9123 26.9396C75.9901 26.7199 76.2898 26.624 76.4287 26.4259C76.6052 26.1738 76.6619 25.855 76.8092 25.5961C76.8382 25.5452 76.9095 25.5149 76.9372 25.4606C76.9549 25.4257 76.9179 25.3392 76.9394 25.3049C76.9908 25.2235 77.0716 25.1954 77.1232 25.12C77.2481 24.9375 77.2708 24.678 77.383 24.4711C77.4107 24.4201 77.5069 24.2778 77.519 24.2475C77.5596 24.1456 77.5473 24.0786 77.5683 23.9652C77.5744 23.9311 77.6386 23.7338 77.6517 23.7057C77.6929 23.6176 77.7328 23.6046 77.7958 23.508C77.9533 23.2661 78.0511 22.8862 78.0641 22.5925C78.0696 22.468 78.0293 22.3392 78.0732 22.2204C78.111 22.1177 78.2277 22.0543 78.2717 21.9467C78.3871 21.6645 78.3682 21.2656 78.4001 20.9638C78.4345 20.6348 78.537 20.3105 78.5652 19.984C78.579 19.8259 78.5068 19.6859 78.5121 19.537C78.5182 19.3665 78.6043 19.3347 78.6375 19.1928C78.6753 19.0308 78.6199 18.8442 78.6537 18.6705C78.6852 18.5088 78.731 18.3593 78.744 18.1935C78.778 17.7619 78.7301 17.3102 78.7119 16.8783C78.7048 16.7107 78.6831 16.5359 78.7262 16.3718C78.7609 16.2398 78.9027 16.0921 78.8981 15.9489C78.8836 15.5064 78.539 15.8894 78.3411 15.859C78.1108 15.8237 78.0685 15.293 78.0079 15.0916C77.8596 14.5998 77.7114 14.108 77.5631 13.6163C78.2697 13.4272 79.0045 13.4817 79.726 13.4307C80.435 13.3806 81.1271 13.2225 81.8146 13.0445C82.395 12.8943 83.03 12.8071 83.5515 12.4863C83.9895 12.217 84.3507 11.6209 84.0948 11.095Z"
        fill="#3A3A3A" />
    <path fill-rule="evenodd" clip-rule="evenodd"
        d="M15.4691 20.6154C15.7517 20.4645 15.6805 20.2558 15.8881 20.062C17.0498 18.9772 18.4133 18.03 19.7798 17.2479C21.2194 16.4239 22.8348 16.075 24.3062 15.3447C24.5042 15.2465 24.7613 15.0929 24.6875 14.8193C24.6012 14.4996 24.3049 14.6467 24.0937 14.7222C23.3899 14.9736 22.6408 15.0683 21.927 15.2892C20.4032 15.7607 18.9762 16.5738 17.6854 17.5255C16.9345 18.079 16.215 18.6911 15.5737 19.3786C15.3376 19.6316 15.0227 19.9269 14.9612 20.2914C14.8851 20.7426 15.1447 20.7887 15.4691 20.6154Z"
        fill="#3A3A3A" />
    <path fill-rule="evenodd" clip-rule="evenodd"
        d="M19.8697 48.9784C19.8629 48.5797 19.4403 48.7246 19.2229 48.7782C18.3389 48.9962 17.5488 49.1631 16.7666 49.6679C15.3148 50.6047 14.2149 52.0279 13.5032 53.6029C13.4084 53.8124 13.0269 54.4766 13.3327 54.6743C13.5343 54.8048 13.6566 54.425 13.7319 54.284C14.1152 53.5665 14.6284 52.9313 15.1445 52.3079C16.2902 50.9236 17.6675 50.0451 19.3153 49.4036C19.5175 49.325 19.8748 49.2682 19.8697 48.9784Z"
        fill="#3A3A3A" />
    <path fill-rule="evenodd" clip-rule="evenodd"
        d="M68.7221 39.1854C68.4164 38.5534 67.922 37.7735 67.2379 37.5132C66.8594 37.3692 66.6354 37.6075 66.7478 38.0058C66.8371 38.3225 67.1354 38.4772 67.358 38.6872C67.9311 39.2277 68.284 40.0347 68.4933 40.784C68.7145 41.5761 68.7586 42.4357 68.7547 43.2557C68.7526 43.6887 68.6401 44.0649 68.579 44.4863C68.5551 44.652 68.5141 45.0172 68.6994 45.1206C69.1101 45.3498 69.2997 44.153 69.3417 43.9228C69.4961 43.0739 69.4812 42.2923 69.3511 41.4448C69.2321 40.6698 69.0651 39.8943 68.7221 39.1854Z"
        fill="#3A3A3A" />
    <path fill-rule="evenodd" clip-rule="evenodd"
        d="M67.5475 8.8153C67.7145 8.58386 67.5927 8.25986 67.6424 7.99599C67.6945 7.71941 67.8499 7.43963 67.9812 7.19769C68.2652 6.67537 68.5819 6.16244 68.9193 5.67527C69.2677 5.17217 69.6928 4.7435 70.0631 4.26013C70.1883 4.09662 70.4103 3.86289 70.3561 3.66608C70.2685 3.34743 70.0778 3.50273 69.9248 3.63628C69.089 4.36649 68.353 5.26684 67.7585 6.21249C67.4764 6.66131 67.2098 7.15281 67.1164 7.6852C67.0682 7.96017 67.0678 8.24707 67.1471 8.51628C67.197 8.68548 67.3468 9.0934 67.5475 8.8153Z"
        fill="#3A3A3A" />
    <path fill-rule="evenodd" clip-rule="evenodd"
        d="M16.0403 47.7661C16.4591 47.7263 16.8803 47.7121 17.3001 47.69C17.6109 47.6736 17.9604 47.6932 18.2456 47.5395C18.5326 47.3849 18.4078 47.1531 18.1692 47.1188C18.032 47.0991 17.8005 47.1942 17.6535 47.2008C17.4943 47.2078 17.3342 47.2027 17.1749 47.2034C16.7092 47.2052 16.2075 47.2015 15.7585 47.3605C15.6119 47.4125 15.3897 47.4927 15.3294 47.665C15.2004 48.0333 15.8461 47.7845 16.0403 47.7661Z"
        fill="#3A3A3A" />
    <path fill-rule="evenodd" clip-rule="evenodd"
        d="M19.7075 14.0601C20.3157 13.9852 20.9036 13.7979 21.5028 13.6785C22.0726 13.5651 22.1695 13.1037 21.4951 13.1244C21.2686 13.1313 19.0851 13.5569 19.7075 14.0601Z"
        fill="#3A3A3A" />
    <path fill-rule="evenodd" clip-rule="evenodd"
        d="M69.9659 37.2052C69.5573 37.1002 69.7687 37.5659 69.8951 37.7099C70.129 37.9761 70.2567 38.1755 70.3262 38.5305C70.3667 38.7371 70.3287 39.2038 70.4995 39.3618C70.6676 39.5174 70.6792 39.4141 70.7091 39.222C70.7932 38.6807 70.6251 37.3749 69.9659 37.2052Z"
        fill="#3A3A3A" />
    <path fill-rule="evenodd" clip-rule="evenodd"
        d="M65.4799 7.73647C65.5956 7.6104 65.4715 7.0622 65.4852 6.90154C65.5019 6.70687 65.5467 6.54213 65.6032 6.35946C65.6307 6.27088 65.7686 5.95822 65.6943 5.86114C65.5914 5.72658 65.4201 5.95397 65.3659 6.04349C65.1897 6.3348 65.1485 6.82053 65.1778 7.14857C65.1883 7.26731 65.2582 7.97763 65.4799 7.73647Z"
        fill="#3A3A3A" />
    <path fill-rule="evenodd" clip-rule="evenodd"
        d="M41.4204 53.9647C41.4397 53.6541 41.7307 53.4389 41.7315 53.1087C41.7326 52.7377 41.4896 52.577 41.187 52.8181C41.0045 52.9636 40.8624 53.3178 40.6156 53.3642C40.1206 53.4574 39.9265 52.5439 39.4388 52.6496C39.0167 52.7411 39.2386 53.486 39.3659 53.7374C39.5009 54.0038 39.7461 54.1908 39.6662 54.5185C39.5714 54.9077 39.2463 55.1321 39.3728 55.5763C39.6078 56.4018 40.1179 55.63 40.4247 55.3706C40.6432 55.1856 40.7753 55.2185 40.9876 55.3998C41.2783 55.6481 41.5005 55.8168 41.8532 55.9841C42.1642 56.1317 42.4641 56.2346 42.4738 55.7395C42.4815 55.3501 42.1953 54.9626 41.9441 54.6984C41.7355 54.4792 41.3991 54.3103 41.4204 53.9647Z"
        fill="#3A3A3A" />
    <path fill-rule="evenodd" clip-rule="evenodd"
        d="M35.9713 52.7332C35.6074 52.3347 35.1479 53.3512 34.8538 53.4637C34.3772 53.646 34.2675 52.6688 33.8287 52.6995C33.4872 52.7235 33.5142 53.2263 33.5886 53.4556C33.6686 53.7026 33.9081 53.9044 33.9482 54.1574C34.0099 54.5451 33.296 55.3202 33.7942 55.6947C34.2196 56.0144 34.378 54.9341 34.9097 55.3749C35.1708 55.5912 35.9012 56.3964 36.2631 55.9957C36.6908 55.5222 35.6736 54.7135 35.4879 54.3533C35.2367 53.8656 36.5045 53.3172 35.9713 52.7332Z"
        fill="#3A3A3A" />
    <path fill-rule="evenodd" clip-rule="evenodd"
        d="M44.786 38.8856C44.6817 38.8383 44.513 38.9165 44.4001 38.9115C44.2789 38.9063 44.1526 38.8496 44.0331 38.8287C43.7732 38.783 43.3163 38.849 43.1319 38.6111C42.9438 38.3684 43.0868 37.881 43.0064 37.5858C42.9627 37.4252 42.9121 37.227 42.7016 37.2987C42.4573 37.3817 42.4633 37.8426 42.4341 38.0446C42.3912 38.3429 42.3565 38.5704 42.0648 38.6764C41.8488 38.7549 41.6215 38.7154 41.4469 38.8977C41.3189 39.0313 41.2326 39.2752 41.3328 39.4498C41.4832 39.712 41.8089 39.5762 42.0349 39.659C42.3795 39.7855 42.2976 40.3639 42.3682 40.696C42.4134 40.9095 42.5128 41.5071 42.8112 41.4974C43.2179 41.4844 43.0599 40.6448 43.0374 40.3998C43.0145 40.1511 42.9601 39.9403 43.2302 39.8629C43.4583 39.7977 43.7769 39.9188 44.0126 39.9173C44.3101 39.9154 44.6608 39.8387 44.8403 39.5647C44.9429 39.408 45.0079 38.9861 44.786 38.8856Z"
        fill="#3A3A3A" />
    <path fill-rule="evenodd" clip-rule="evenodd"
        d="M59.7316 49.2189C60.3783 49.2762 59.9863 50.0949 60.4154 50.4203C60.8249 50.7308 60.8799 49.8738 60.8798 49.6291C60.8796 49.0364 61.5812 49.2555 62.0084 49.1573C62.3729 49.0737 62.7709 48.6847 62.3356 48.3534C62.0214 48.1143 61.5004 48.2252 61.1357 48.1619C60.6414 48.0761 60.7882 47.737 60.7773 47.3462C60.7734 47.2029 60.7253 46.6922 60.5452 46.6519C60.2154 46.5782 60.1958 47.5296 60.1735 47.7106C60.0795 48.4765 59.5674 48.0098 59.1606 48.3938C58.6289 48.8957 59.3463 49.1847 59.7316 49.2189Z"
        fill="#3A3A3A" />
    <path fill-rule="evenodd" clip-rule="evenodd"
        d="M28.9766 34.9393C27.9663 35.79 26.8191 35.6681 25.8945 34.7523C25.5035 34.3649 25.2672 33.9746 25.3022 33.4079C25.3336 32.8979 25.4793 32.3344 25.8768 31.99C26.2115 31.6997 26.8428 31.5955 27.2666 31.5549C27.8606 31.4981 28.3921 31.8304 28.803 32.2456C29.1608 32.6072 29.5791 33.0678 29.6342 33.6046C29.6923 34.1693 29.3791 34.6002 28.9766 34.9393ZM29.1303 31.5538C28.224 30.6571 26.617 30.7471 25.6814 31.5648C24.6312 32.4826 24.4517 34.2068 25.4609 35.2123C26.5245 36.272 27.9285 36.1577 29.0543 35.2786C29.6583 34.8072 29.9859 34.2022 30.0701 33.426C30.1495 32.6924 29.6258 32.044 29.1303 31.5538Z"
        fill="#3A3A3A" />
    <path fill-rule="evenodd" clip-rule="evenodd"
        d="M46.6534 16.1203C46.5517 16.4598 46.6221 16.8216 46.6402 17.1675C46.3529 16.9828 46.174 16.6536 45.8656 16.5006C45.7177 16.9205 46.4548 18.1214 46.9187 17.7278C47.3432 17.3675 47.0299 16.3623 46.6534 16.1203Z"
        fill="#3A3A3A" />
    <path fill-rule="evenodd" clip-rule="evenodd"
        d="M48.1607 18.1908C47.9321 18.2784 47.7195 18.2541 47.4939 18.299C47.3452 18.3286 47.3259 18.2417 47.3066 18.4167C47.2656 18.7902 47.8521 18.9347 48.1164 18.9295C48.4388 18.923 48.7922 18.7002 48.761 18.3376C48.7287 17.9597 48.4094 18.0957 48.1607 18.1908Z"
        fill="#3A3A3A" />
    <path fill-rule="evenodd" clip-rule="evenodd"
        d="M48.3481 16.6209C48.2444 16.5241 48.0054 16.1585 47.8299 16.221C47.6955 16.269 47.7904 16.4341 47.8299 16.5167C47.9776 16.8265 48.2674 17.0901 48.4989 17.3386C48.3275 17.4011 47.9971 17.4414 48.0844 17.7126C48.1646 17.9617 48.528 17.9234 48.7022 17.8185C49.2987 17.4592 48.6466 16.8993 48.3481 16.6209Z"
        fill="#3A3A3A" />
    <path fill-rule="evenodd" clip-rule="evenodd"
        d="M48.9505 16.0328C48.9913 16.2039 49.0132 16.3654 48.9231 16.5258L48.4263 15.6102C48.0267 15.7788 48.7276 17.0978 49.1359 16.9518C49.4182 16.8509 49.2826 16.2309 49.238 16.0358C49.2142 15.9314 49.1574 15.5994 49.0165 15.5656C48.7393 15.4993 48.9202 15.9067 48.9505 16.0328Z"
        fill="#3A3A3A" />
    <path fill-rule="evenodd" clip-rule="evenodd"
        d="M28.4529 34.4993C28.2224 34.3248 27.8405 34.7335 27.5969 34.735C27.1045 34.7377 27.3726 34.1443 27.0644 33.952C26.9038 33.8516 26.2309 33.9528 26.3372 33.5374C26.4011 33.2876 26.6511 33.4679 26.7881 33.3153C26.96 33.124 26.715 32.9713 26.5625 32.8928C26.6294 32.8011 27.015 32.7608 27.1118 32.8242C27.279 32.9339 27.2693 33.2628 27.4227 33.4321C27.6218 33.171 27.5138 32.843 27.7258 32.6086C27.8081 32.5175 28.0489 32.449 27.9553 32.2865C27.901 32.1921 27.6632 32.2233 27.5818 32.1483C27.5108 32.0829 27.5143 31.8718 27.3997 31.8543C27.2124 31.8256 27.2169 32.1197 27.1607 32.2046C26.9914 32.4598 26.2478 32.3718 26.556 32.8894C26.3507 32.7842 25.7905 32.7009 25.8992 33.0685C25.927 33.1625 26.033 33.22 26.0592 33.3271C26.082 33.4199 26.0319 33.5522 26.0271 33.6454C26.0182 33.8221 26.0044 34.0287 26.1317 34.1708C26.3066 34.3662 26.5403 34.224 26.7278 34.309C26.9835 34.4247 26.8914 34.6653 27.0262 34.8757C27.2027 35.1509 27.4741 35.0663 27.7241 34.9831C28.0221 34.8837 28.0692 34.8747 28.2872 35.1298C28.387 34.9974 28.6601 34.6564 28.4529 34.4993Z"
        fill="#3A3A3A" />
    <path fill-rule="evenodd" clip-rule="evenodd"
        d="M28.8537 33.4247C28.6132 33.379 28.7079 32.6428 28.4154 32.9627C28.3056 33.0825 28.418 33.3165 28.2956 33.4449C28.2134 33.5312 28.1091 33.4803 28.0269 33.537C27.9529 33.5877 27.9342 33.6851 27.8906 33.7594C28.0453 33.8309 28.1649 33.8402 28.33 33.809C28.33 33.9368 28.2474 34.3131 28.4597 34.2856C28.6571 34.26 28.6013 33.8823 28.7018 33.765C28.8038 33.6456 29.2151 33.7009 29.2533 33.5332C29.3007 33.3255 28.9588 33.4446 28.8537 33.4247Z"
        fill="#3A3A3A" />
</svg>
